<?xml version="1.0" encoding="utf-8"?>
<!-- Generator: Adobe Illustrator 16.0.1, SVG Export Plug-In . SVG Version: 6.00 Build 0)  -->
<!DOCTYPE svg PUBLIC "-//W3C//DTD SVG 1.1//EN" "http://www.w3.org/Graphics/SVG/1.1/DTD/svg11.dtd">
<svg version="1.1" id="Layer_1" xmlns="http://www.w3.org/2000/svg" xmlns:xlink="http://www.w3.org/1999/xlink" x="0px" y="0px"
	 width="569.378px" height="153.874px" viewBox="20.764 317.314 569.378 153.874"
	 enable-background="new 20.764 317.314 569.378 153.874" xml:space="preserve">
<g id="Blue">
	<g>
		<path fill="#FFFFFF" d="M212.67,349.881c-0.656-1.967-1.967-3.497-4.372-3.497c-3.06,0-4.808,2.841-4.808,8.306
			s1.53,8.306,5.027,8.306c1.967,0,3.279-0.656,4.59-3.497l4.153,1.093c-1.311,4.153-4.59,6.12-8.743,6.12
			c-6.12,0-9.398-4.372-9.398-12.24c0-7.65,3.497-12.24,9.398-12.24c4.59,0,7.213,1.967,8.306,6.12L212.67,349.881z"/>
		<path fill="#FFFFFF" d="M230.156,366.711l-0.219-1.53c-1.53,1.093-3.278,1.749-5.246,1.749c-3.06,0-4.59-2.186-4.59-4.59
			c0-3.934,3.06-5.901,9.835-6.775v-1.53c0-1.312-1.093-1.967-2.404-1.967c-1.967,0-2.841,1.093-3.715,2.186l-2.623-1.967
			c1.093-1.749,3.934-3.278,6.338-3.06c4.59,0,6.557,1.749,6.557,6.776v8.087c0,0.875,0,1.749,0.438,2.404h-4.372V366.711z
			 M229.719,358.406c-2.623,0.437-5.683,1.093-5.683,3.497c0,1.312,0.875,1.967,1.967,1.967c1.312,0,2.841-1.093,3.716-1.749
			V358.406z"/>
		<rect x="238.68" y="343.105" fill="#FFFFFF" width="4.153" height="23.606"/>
		<path fill="#FFFFFF" d="M247.86,342.668h4.153v3.716h-4.153V342.668z M252.013,366.711h-4.153v-17.048h4.153V366.711z"/>
		<path fill="#FFFFFF" d="M261.849,352.941v13.77h-4.153v-13.77h-2.404v-3.278h2.404v-2.186c0-3.716,1.53-4.809,4.809-4.809h2.623
			v3.279h-1.093c-1.749,0-2.186,0.437-2.186,1.749v1.749h3.497v3.278h-3.497V352.941z"/>
		<path fill="#FFFFFF" d="M274.963,349.226c4.59,0,7.432,3.497,7.432,8.743c0,5.246-2.842,8.743-7.432,8.743
			s-7.432-3.497-7.432-8.743C267.531,352.723,270.373,349.226,274.963,349.226 M274.963,352.504c-2.186,0-3.279,1.749-3.279,5.464
			c0,3.715,1.093,5.464,3.279,5.464s3.278-1.749,3.278-5.464C278.241,354.253,277.148,352.504,274.963,352.504"/>
		<path fill="#FFFFFF" d="M285.892,366.711v-17.048h3.715v2.841l0,0c0.875-1.967,2.404-3.279,4.809-3.279v4.372
			c-0.218,0-0.437,0-0.656,0c-1.967,0-3.715,2.404-3.715,2.841v10.273H285.892z"/>
		<path fill="#FFFFFF" d="M297.694,366.711v-17.048h3.716v1.749c1.53-1.093,3.278-2.186,5.245-2.186
			c3.497,0,5.027,2.186,5.027,5.683v11.584h-4.152v-11.147c0-2.186-0.656-3.06-2.186-3.06c-1.749,0-3.06,1.093-3.716,1.749v12.24
			h-3.934V366.711z"/>
		<path fill="#FFFFFF" d="M316.71,342.668h4.153v3.716h-4.153V342.668z M320.863,366.711h-4.153v-17.048h4.153V366.711z"/>
		<path fill="#FFFFFF" d="M334.633,366.711l-0.219-1.53c-1.529,1.093-3.278,1.749-5.245,1.749c-3.061,0-4.591-2.186-4.591-4.59
			c0-3.934,3.061-5.901,9.836-6.775v-1.53c0-1.312-1.093-1.967-2.404-1.967c-1.967,0-2.841,1.093-3.716,2.186l-2.622-1.967
			c1.093-1.749,3.934-3.278,6.338-3.06c4.59,0,6.558,1.749,6.558,6.776v8.087c0,0.875,0,1.749,0.437,2.404h-4.371V366.711z
			 M334.195,358.406c-2.622,0.437-5.683,1.093-5.683,3.497c0,1.312,0.874,1.967,1.967,1.967c1.312,0,2.842-1.093,3.716-1.749
			V358.406L334.195,358.406z"/>
		<path fill="#FFFFFF" d="M366.326,349.226c-0.656-1.749-2.187-3.06-4.153-3.06s-3.278,0.875-3.278,2.623
			c0,4.153,12.24,3.279,12.24,10.929c0,4.809-3.061,7.213-8.307,7.213c-3.934,0-7.431-2.186-8.742-5.683l3.716-1.53
			c1.093,2.186,2.404,3.715,5.245,3.715c2.186,0,3.935-0.874,3.935-3.06c0-4.59-12.24-3.716-12.24-10.929
			c0-4.153,3.497-6.557,7.65-6.557c3.716,0,6.994,1.967,8.306,5.246L366.326,349.226z"/>
		<path fill="#FFFFFF" d="M375.506,349.663v-5.683h4.152v5.683h3.279v3.278h-3.279v9.617c0,0.874,0.438,1.093,1.53,1.093
			c0.656,0,1.312-0.219,1.967-0.437v3.278c-1.093,0.219-2.186,0.219-3.278,0.219c-3.06,0-4.152-1.53-4.152-3.934v-10.055h-2.404
			v-3.278h2.186V349.663z"/>
		<path fill="#FFFFFF" d="M395.833,366.711l-0.219-1.53c-1.53,1.093-3.278,1.749-5.246,1.749c-3.06,0-4.59-2.186-4.59-4.59
			c0-3.934,3.061-5.901,9.836-6.775v-1.53c0-1.312-1.093-1.967-2.404-1.967c-1.967,0-2.842,1.093-3.716,2.186l-2.623-1.967
			c1.093-1.749,3.935-3.278,6.339-3.06c4.59,0,6.558,1.749,6.558,6.776v8.087c0,0.875,0,1.749,0.437,2.404h-4.371V366.711z
			 M395.396,358.406c-2.623,0.437-5.683,1.093-5.683,3.497c0,1.312,0.874,1.967,1.967,1.967c1.312,0,2.842-1.093,3.716-1.749
			V358.406L395.396,358.406z"/>
		<path fill="#FFFFFF" d="M404.794,349.663v-5.683h4.153v5.683h3.278v3.278h-3.278v9.617c0,0.874,0.437,1.093,1.53,1.093
			c0.655,0,1.311-0.219,1.967-0.437v3.278c-1.093,0.219-2.186,0.219-3.278,0.219c-3.061,0-4.153-1.53-4.153-3.934v-10.055h-2.404
			v-3.278h2.186V349.663z"/>
		<path fill="#FFFFFF" d="M418.564,358.843c0,3.497,1.53,4.809,3.497,4.809s2.842-0.874,3.716-1.967l2.841,1.749
			c-1.529,2.404-3.934,3.498-7.213,3.498c-4.371,0-7.213-3.498-7.213-8.743c0-5.464,2.842-8.743,7.432-8.743
			c4.372,0,6.994,3.716,6.994,7.869v1.53H418.564z M425.121,356.001c0-2.404-1.312-3.716-3.278-3.716s-3.278,1.312-3.278,3.716
			H425.121z"/>
		<path fill="#FFFFFF" d="M458.781,343.105h4.59v14.863c0,6.994-4.152,9.18-8.961,9.18s-9.18-2.186-9.18-9.18v-14.863h4.59v15.082
			c0,3.935,1.529,5.246,4.59,5.246c3.06,0,4.59-1.311,4.59-5.246v-15.082H458.781z"/>
		<path fill="#FFFFFF" d="M468.617,366.711v-17.048h3.716v1.749c1.53-1.093,3.278-2.186,5.245-2.186
			c3.498,0,5.027,2.186,5.027,5.683v11.584h-4.152v-11.147c0-2.186-0.656-3.06-2.186-3.06c-1.749,0-3.061,1.093-3.716,1.749v12.24
			h-3.935V366.711z"/>
		<path fill="#FFFFFF" d="M487.633,342.668h4.153v3.716h-4.153V342.668z M491.567,366.711h-4.153v-17.048h4.153V366.711z"/>
		<polygon fill="#FFFFFF" points="495.064,349.663 498.999,349.663 501.84,361.247 501.84,361.247 504.9,349.663 508.834,349.663 
			504.025,366.711 499.654,366.711 		"/>
		<path fill="#FFFFFF" d="M514.518,358.843c0,3.497,1.529,4.809,3.497,4.809c1.967,0,2.841-0.874,3.716-1.967l2.841,1.749
			c-1.53,2.404-3.935,3.498-7.213,3.498c-4.371,0-7.213-3.498-7.213-8.743c0-5.464,2.842-8.743,7.432-8.743
			c4.371,0,6.994,3.716,6.994,7.869v1.53H514.518z M521.074,356.001c0-2.404-1.312-3.716-3.278-3.716
			c-1.968,0-3.278,1.312-3.278,3.716H521.074z"/>
		<path fill="#FFFFFF" d="M528.725,366.711v-17.048h3.715v2.841l0,0c1.094-1.967,2.405-3.279,4.809-3.279v4.372
			c-0.218,0-0.437,0-0.655,0c-1.967,0-3.716,2.404-3.716,2.841v10.273H528.725z"/>
		<path fill="#FFFFFF" d="M549.27,354.034c-0.874-0.874-1.967-1.749-3.278-1.749c-1.53,0-2.186,0.656-2.186,1.749
			c0,2.841,8.524,1.749,8.524,7.869c0,3.497-2.623,5.027-6.339,5.027c-2.623,0-5.027-1.312-6.557-3.498l2.622-1.967
			c0.875,1.312,2.187,2.404,3.935,2.404c1.53,0,2.404-0.875,2.404-1.967c0-2.841-8.524-1.967-8.524-7.869
			c0-3.278,2.623-5.027,5.684-5.027c2.186,0,4.59,0.874,5.901,2.623L549.27,354.034z"/>
		<path fill="#FFFFFF" d="M556.265,342.668h4.152v3.716h-4.152V342.668z M560.417,366.711h-4.152v-17.048h4.152V366.711z"/>
		<path fill="#FFFFFF" d="M566.1,349.663v-5.683h4.153v5.683h3.278v3.278h-3.278v9.617c0,0.874,0.438,1.093,1.53,1.093
			c0.655,0,1.312-0.219,1.967-0.437v3.278c-1.093,0.219-2.186,0.219-3.278,0.219c-3.061,0-4.153-1.53-4.153-3.934v-10.055h-2.404
			v-3.278h2.186V349.663z"/>
		<path fill="#FFFFFF" d="M575.936,369.334c0.656,0.218,1.093,0.218,1.749,0.218c1.312,0,2.186-0.437,2.622-1.312
			c0.438-0.874,0.656-1.311,0.656-1.967s-0.438-1.312-0.438-1.967l-4.59-14.644h4.153l2.841,10.491l0,0l2.842-10.491h4.152
			l-5.464,17.048c-1.749,4.809-3.278,6.12-6.558,6.12c-1.093,0-1.529,0-1.967-0.219V369.334L575.936,369.334z"/>
		<polygon fill="#FFFFFF" points="200.211,421.354 200.211,383.76 210.266,383.76 217.479,409.988 217.479,409.988 224.691,383.76 
			234.964,383.76 234.964,421.354 228.625,421.354 228.625,391.847 228.625,391.847 220.102,421.354 214.855,421.354 
			206.55,391.847 206.332,391.847 206.332,421.354 		"/>
		<path fill="#FFFFFF" d="M258.133,421.791c-10.273,0-15.737-6.994-15.737-19.234c0-12.239,5.464-19.234,15.737-19.234
			s15.737,6.995,15.737,19.234C273.87,414.797,268.187,421.791,258.133,421.791 M258.133,389.224c-5.901,0-8.524,4.372-8.524,13.333
			c0,8.743,2.623,13.333,8.524,13.333s8.524-4.371,8.524-13.333C266.657,393.814,264.034,389.224,258.133,389.224"/>
		<polygon fill="#FFFFFF" points="281.301,421.354 281.301,383.76 288.733,383.76 303.377,409.333 303.596,409.333 303.596,383.76 
			310.152,383.76 310.152,421.354 303.377,421.354 288.077,394.688 287.858,394.688 287.858,421.354 		"/>
		<polygon fill="#FFFFFF" points="343.376,383.76 343.376,389.88 333.54,389.88 333.54,421.354 326.546,421.354 326.546,389.88 
			316.71,389.88 316.71,383.76 		"/>
		<polygon fill="#FFFFFF" points="349.933,421.354 349.933,383.76 374.632,383.76 374.632,389.88 357.146,389.88 357.146,398.842 
			369.823,398.842 369.823,404.743 357.146,404.743 357.146,415.234 375.287,415.234 375.287,421.354 		"/>
		<path fill="#FFFFFF" d="M382.062,421.354V383.76h14.863c8.524,0,12.021,5.027,12.021,11.147c0,4.59-2.186,8.306-6.775,9.617
			l8.306,16.611h-7.869l-6.994-15.3h-6.12v15.3h-7.432V421.354z M389.275,400.152h5.246c5.683,0,7.213-1.748,7.213-5.245
			s-2.186-5.246-6.12-5.246h-6.558v10.491H389.275z"/>
		<polygon fill="#FFFFFF" points="417.472,421.354 417.472,383.76 442.389,383.76 442.389,389.88 424.685,389.88 424.685,398.842 
			437.58,398.842 437.58,404.743 424.685,404.743 424.685,415.234 442.826,415.234 442.826,421.354 		"/>
		<polygon fill="#FFFFFF" points="461.623,398.623 467.961,383.76 475.393,383.76 465.12,406.272 465.12,421.354 457.907,421.354 
			457.907,406.272 447.635,383.76 455.065,383.76 		"/>
		<path fill="#FFFFFF" d="M500.528,383.76h13.989c7.431,0,12.239,2.404,12.677,9.18c0,3.934-1.53,6.995-5.683,8.524
			c4.809,1.968,6.557,4.153,6.557,9.836c0,5.901-4.152,9.836-13.551,9.836h-13.989V383.76z M507.741,398.842h7.213
			c3.497,0,5.027-1.968,5.027-4.59c0-2.623-1.749-4.59-5.027-4.59h-7.213V398.842z M507.741,415.453h7.213
			c4.153,0,5.901-1.968,5.901-5.465s-1.748-5.464-5.901-5.464h-7.213V415.453z"/>
		<path fill="#FFFFFF" d="M543.368,383.76h8.962l10.71,37.595h-7.213l-1.967-8.087h-11.803l-2.187,8.087h-7.213L543.368,383.76z
			 M543.587,407.365h8.743l-4.153-16.393l0,0L543.587,407.365z"/>
		<polygon fill="#FFFFFF" points="576.373,398.623 582.711,383.76 590.143,383.76 579.87,406.272 579.87,421.354 572.876,421.354 
			572.876,406.272 562.385,383.76 569.815,383.76 		"/>
		<path fill="#FFFFFF" d="M97.046,379.826c-18.142,0-32.786,14.644-32.786,32.786s14.645,32.786,32.786,32.786
			c18.141,0,32.786-14.645,32.786-32.786C129.613,394.47,114.969,379.826,97.046,379.826 M97.046,439.059
			c-14.645,0-26.447-11.803-26.447-26.447s11.803-26.447,26.447-26.447c14.644,0,26.447,11.803,26.447,26.447
			C123.711,427.037,111.69,439.059,97.046,439.059"/>
		<path fill="#FFFFFF" d="M22.731,408.24c0,0,1.53,1.748,5.901,0.874c2.186-0.438,3.279,0,3.716,0.219s0.437,0.437,0.437,0.655
			c0,0.438-0.437,1.093-0.874,1.312c0,0,2.186,0.656,4.153,0.219c1.967-0.438,4.371-0.438,4.59-0.438s0.875,0,0.656,0.656
			c-0.219,0.655-0.875,1.312-0.875,1.312s1.749-0.219,4.809-0.875c1.312-0.218,3.279-0.437,5.246,0
			c1.967,0.438,1.967,3.061,4.59,3.935c2.623,0.874,2.623-5.683,2.623-7.432c0-1.748,0.656-2.622,1.967-3.716
			c2.186-1.748,1.749-4.371,1.312-6.119c-0.219-1.749,3.278-3.716,4.372-5.683c0.874-2.186,0.218-4.372-0.219-5.246
			c-0.437-0.874,0.219-1.53,0.875-2.186c1.093-1.093,3.06-4.372,2.186-5.464c-0.875-1.093-5.246,0-9.836,4.372
			c-4.59,4.153-7.868,9.18-9.18,11.366c-0.219,0.219-0.438-0.219,0-1.093c0.218-0.875,2.841-7.213,8.087-12.24
			c5.246-5.027,10.054-6.994,13.77-5.901c3.716,0.875,3.06,3.935,2.404,5.683s-2.623,2.841-3.06,5.027
			c-0.437,1.967,0.219,3.497,0.438,5.464c0.218,1.967-0.438,3.279-2.186,5.246c-0.874,0.874-2.404,2.623-2.404,3.497
			c0,0.219,0.656,1.312-0.437,4.372c-1.093,3.06-3.716,3.934-3.716,4.809c0,0.874,0,5.026-2.623,7.431
			c-2.623,2.404-5.683,1.53-6.994,0c-1.312-1.529-1.967-3.497-4.59-3.497c-2.623,0.219-4.372,0-7.213,0.656
			c-2.623,0.655-5.246,0.655-6.338,0.437c-1.093-0.218-1.312-0.655-1.312-0.655s1.312-0.219,2.623-0.656
			c1.093-0.437,1.312-0.874,1.312-0.874s-2.623,0.438-5.464,0.219c-3.06-0.219-5.901-1.312-7.65-1.312c0,0,0.656-0.874,2.186-1.093
			c1.53-0.219,1.749-0.874,1.749-0.874c-3.06,0.655-6.339-1.312-6.339-1.53c-0.437-4.153,1.967-11.584,1.967-11.584
			s-0.219,0-0.875,0.655c-0.874,0.656-1.749,0.874-1.749,0.874c0.438-1.093,0.875-2.404,1.312-4.371
			c0.875-4.59,4.59-12.677,4.59-12.677s-0.656,0-1.53,0.656c-0.875,0.656-1.749,0.656-1.749,0.656s0.219-0.656,0.874-2.186
			c0.656-1.53,1.749-3.279,3.279-5.027c1.53-1.749,2.404-3.278,2.404-3.278s-0.437-0.219-1.53,0
			c-1.093,0.218-1.967,0.656-1.967,0.656s0.656-1.312,2.841-3.935c2.186-2.623,5.464-5.027,5.464-5.027s-0.656,0.437-1.53,0.218
			c-0.655,0-1.53,0.219-1.53,0.219s0.656-0.656,3.497-2.623c2.841-1.967,5.901-3.278,5.901-3.278s-0.656,0-1.53,0
			c-0.875,0-1.749,0.218-1.749,0.218s2.186-1.749,7.431-3.497c6.557-2.186,9.18-1.53,9.18-1.53s-2.186,0.218-4.372,1.312
			c-2.186,0.874-2.841,1.53-2.841,1.53s0.875,0.656,1.093,0.875c0,0.218,0.219,0.437-0.218,0.437
			c-0.438,0.218-2.186,0.437-4.372,1.312c-2.186,0.874-3.06,1.749-3.06,1.749s0.656,0.218,0.875,0.437
			c0.437,0.219,0.437,0.437,0,0.875c-0.219,0.218-1.093,0.874-3.716,2.841c-2.404,1.967-3.279,3.278-3.279,3.278s1.312,0,1.53,0
			c0.218,0,0.437,0.219,0.218,0.438c-0.218,0.437-2.186,2.404-3.497,4.153c-1.312,1.967-2.404,3.497-2.404,3.497
			s2.404-0.656,1.967,0.874c-0.219,0.875-1.093,2.842-3.497,7.65s-3.716,7.868-3.716,7.868s2.186-0.218,2.404-0.218
			s0.437,0.218,0.437,0.656c-0.218,0.218-1.967,3.06-3.716,8.524C22.95,405.836,22.731,408.24,22.731,408.24"/>
		<path fill="#FFFFFF" d="M159.776,420.262c0,0-1.093-0.219-1.749-0.219c-0.656,0-0.656,1.093-0.656,1.748
			c0.218,3.935-0.219,8.743-0.219,9.181c0,0.437-1.749-0.656-2.186-0.875c-0.438-0.218-0.656,0.219-0.656,0.656
			c-0.656,6.12-3.497,12.896-3.497,12.896s-0.438-0.874-0.656-1.312c-0.219-0.437-0.438-0.437-0.656-0.219
			c-1.312,1.312-2.404,3.935-3.06,6.558s-2.404,4.59-2.404,4.59c-0.219-0.219-0.437-1.748-0.437-2.186
			c-0.219-0.438-0.656-0.219-0.875,0c-0.218,0.219-0.874,2.186-2.841,6.12s-3.279,7.213-5.901,7.432
			c-1.967,0.218-2.842-5.246-2.842-5.246s-0.655,0.438-1.093,1.312c-0.437,0.874-0.437,1.967-0.437,1.967
			c-1.967-5.683-1.093-10.054-1.093-10.491s-0.219-0.655-0.656-0.655c-0.219,0.218-1.093,0.874-1.093,0.874
			c-0.219-0.874-0.656-1.968-1.312-3.278c-0.656-1.094-2.404-0.656-3.716-0.438c-1.093,0-1.53-1.093-0.656-3.497
			c0.875-2.404,4.153-3.716,5.464-4.59c1.312-0.656,0.219-1.968,0.656-3.497c0.875-2.623,4.59-3.716,5.027-4.591
			c0.437-0.655-0.438-2.186,0.218-4.152s4.372-4.371,4.372-4.371c-0.437-3.497,0-7.213,1.53-9.399
			c1.53-2.186,4.372-0.218,5.246,5.465c1.093,8.087-2.186,13.552-3.716,16.83c-1.53,3.278-2.186,3.497-1.967,3.716
			c0.219,0.218,1.093,0,2.404-1.749c1.312-1.967,7.213-9.836,6.12-18.797c-1.312-8.962-5.901-11.147-9.617-9.18
			c-3.716,1.967-4.372,5.464-3.497,12.021c0,0-2.186,1.748-2.841,3.06c-0.875,1.53-0.438,4.152-0.875,4.59s-2.186,1.312-3.497,3.061
			c-1.312,1.748-1.093,4.152-1.967,4.59c-0.874,0.437-3.934,1.748-5.027,5.683c-1.312,3.935,0,6.994,1.967,6.557
			c1.749-0.437,4.59-0.655,4.59,2.187c-0.219,2.841-0.438,5.901,0,8.306c0,0,0.656-2.186,1.311-3.279c0,0,1.967,9.836,5.683,13.552
			c0,0,0-1.312-0.437-2.842c-0.219-1.529,0.218-2.404,0.218-2.404s0.438,1.53,2.404,1.53c3.497-0.219,7.432-8.306,7.432-8.306
			c-0.219,1.968,0.437,2.623,0.437,2.623c3.279-3.716,5.464-9.18,6.338-12.021c0.875-2.842,1.967-4.153,1.967-4.153
			s0.437,0.219,0.437,1.312s0.438,2.187,0.438,2.187c4.153-9.399,5.246-16.394,5.246-16.394s0.437,0.219,0.875,1.312
			c0.218,1.093,1.093,1.967,1.093,1.967c2.404-8.087,1.967-13.114,1.967-13.114s0.438,0.219,1.312,0.656
			c0.875,0.655,1.53,1.748,1.53,1.748c0.218-3.934-0.438-6.557-1.312-9.398c-0.656-2.841-1.53-5.901-1.53-5.901
			c1.312,0,2.404,1.093,2.404,1.093c-2.404-9.398-4.809-13.114-4.809-13.114s0.438,0,1.093,0.219c0.656,0,1.53,0.438,1.53,0.438
			c-2.404-5.683-5.901-8.962-5.901-8.962c0.656-0.437,2.186,0,2.186,0c-4.153-7.212-12.677-9.835-12.677-9.835
			s5.027,2.841,7.432,6.338c0.219,0.438-0.437,0.656-0.875,0.656c-0.655,0-0.655,0.437-0.437,0.875
			c0.219,0.437,3.716,3.934,4.809,6.557c0.219,0.437-1.749,0-1.312,1.093c0.438,1.093,3.716,6.12,4.59,10.054
			c0,0-2.842-0.655-2.404,0.219C154.967,407.147,157.372,411.737,159.776,420.262"/>
		<path fill="#FFFFFF" d="M105.789,321.686c0,0-2.841-0.218-6.776,0.438c-3.934,0.437-5.246,1.093-6.775,1.093
			c-1.53,0.218-1.967,0.218-1.967,0.218s0.875,1.093,1.967,1.093s1.967,0,2.404,0.437c0,0-1.749,0.218-5.027,1.53
			c-4.153,1.53-4.372,1.749-8.743,3.06c0,0,1.093,0.656,2.186,0.656c0.875,0,1.53,0.437,1.53,0.437s-3.06,0.656-6.557,1.967
			c-3.497,1.312-4.153,2.186-5.901,2.186c0,0,0.875,0.438,2.186,0.656c0.874,0,1.749,0.219,1.749,0.219s-1.312,0.656-4.59,2.404
			c-3.06,1.749-4.153,2.186-6.12,2.623c0,0,1.311,0.875,2.404,0.875c0.437,0,0.874,0,1.093,0c0,0-1.967,1.312-5.027,2.841
			c-3.06,1.53-3.497,1.749-4.59,2.842c0,0,1.53,0.218,2.186,0.437c0.219,0.218,0.656,0.218,0.875,0.218c0,0-1.967,1.093-4.809,2.842
			c-2.841,1.967-3.716,3.278-3.716,3.278s6.12-3.716,11.366-5.246c0.437-0.219,0.656-0.656,0.219-1.093
			c-0.219-0.219-1.53-1.093-1.53-1.093s0.437-0.219,3.716-1.967c3.497-1.749,5.246-2.404,5.683-2.623
			c0.437-0.218,0-0.656-0.219-0.874c-0.219-0.219-1.53-0.875-1.53-0.875s0.656-0.437,2.186-1.093
			c2.841-1.312,6.994-2.623,7.213-2.841c0.437-0.219,0.437-0.437,0-0.656c-0.219-0.219-1.312-1.093-1.312-1.093
			s1.093-0.656,3.278-1.093c2.186-0.656,4.153-1.312,5.027-1.53c1.312-0.656,1.749-0.874,1.53-1.53
			c-0.218-0.438-0.655-1.093-0.655-1.093s1.093-0.438,2.623-1.093c2.186-0.656,3.497-0.874,5.464-1.311
			c1.967-0.438,2.186-0.656,2.186-1.093c0-0.656-0.437-1.311-0.437-1.311s0.219-0.219,2.404-0.438
			c2.404-0.218,4.372-0.218,5.901-0.218c1.53,0,2.404,0.218,3.06,0c0.656-0.219,0.875-1.53,0.875-1.53s1.749-0.218,4.371,0.437
			c2.623,0.656,3.716,1.093,4.372,1.312c0.656,0.219,1.093,0,1.093-0.656c0.219-0.656,0.437-1.093,0.437-1.093s1.749,0,4.59,1.093
			c2.841,1.312,4.371,2.404,5.027,2.842c0.438,0.218,0.656,0,1.093-0.438c0.438-0.437,0.656-0.656,0.656-0.656s0.219,0,1.093,0.219
			c0.874,0.219,2.186,0.875,3.278,1.749c1.312,0.875,1.53,1.53,2.623,1.967c0.437,0,0.874-0.875,1.093-1.53
			c0.218-0.655,0.656-1.093,0.656-1.093s0.437,0,1.53,0.656s2.404,1.53,3.279,2.404h0.218c0,0,0-1.093-0.656-1.967
			c-1.093-1.53-3.278-3.278-5.246-4.59s-2.623-1.749-3.06-2.186c-0.218-0.219-0.218-0.438-0.218-0.438s-0.219,0.656,0.437,1.749
			c0.656,1.311,0.437,1.967,0.437,1.967s-2.186-1.312-4.809-2.404c-2.404-1.093-3.278-1.53-4.371-2.186
			c-1.312-0.656-1.53-0.875-1.53-0.875s0,1.312,0.656,2.186c0.656,0.656,0.656,0.874,0.656,0.874s-3.279-1.53-7.65-2.623
			c-4.372-0.875-6.776-1.749-6.776-1.749s0.437,1.53,1.093,2.186s0.875,1.093,0.875,1.093s-3.497-0.874-7.213-1.093
			c-3.497-0.219-5.027,0-5.683,0c-0.218,0-0.437,0-0.656,0c0,0,0.219,0.656,1.53,1.312
			C105.352,321.249,105.789,321.686,105.789,321.686"/>
		<path fill="#FFFFFF" d="M163.491,335.019c1.312,2.186,0.875,5.901-0.437,7.65c-1.093,1.749-3.06,2.841-4.153,4.153
			s-2.186,3.497-2.623,5.027c-0.438,1.53-1.312,3.06-2.623,3.06s-2.623-1.093-3.279-2.841c-0.655-1.749-0.874-3.935-3.715-5.464
			c-2.842-1.53-8.087-3.279-8.087-6.776s3.279-4.59,5.464-7.213s5.027-4.59,8.087-4.59
			C155.623,328.461,161.087,331.084,163.491,335.019"/>
		<path fill="#FFFFFF" d="M174.42,361.247c-0.437-0.874-0.656-1.53-0.656-1.53s0.219-0.438,0.875-0.875
			c1.093-0.437,1.967-0.437,1.967-1.312c0.219-3.715-2.623-6.338-2.623-6.338c0.437-0.219,1.093,0,1.967,0
			c0.874,0.219,0.874-0.219,0.874-0.219c-1.312-3.934-5.464-6.557-5.464-6.557c0.656-0.437,1.53,0,2.186,0.219s1.311,0,1.311,0
			c-0.655-2.404-2.404-4.153-4.808-5.464s-4.153-1.312-4.372-1.312c-0.219,0,0,0.219,0,0.437c0.218,0.219,1.312,0.656,2.186,1.53
			c1.093,1.093,1.312,1.53,1.312,1.53s0.219,0.656-0.875,1.312c-1.093,0.875-2.186,1.53-2.186,1.749
			c-0.219,0.219,0,0.438,0.219,0.656c0.218,0.219,1.53,0.875,3.278,2.186c1.53,1.311,2.186,2.186,1.749,2.404
			c-0.437,0.218-1.53,0.437-1.311,1.093c0.218,0.656,1.311,1.093,1.967,1.749s1.53,1.312,0.656,3.497
			c-0.437,1.312-1.312,1.749-1.967,1.749c-0.655,0-1.093,0-1.093,0.219c0.219,0.218,1.312,2.404,0.656,3.497
			c-0.437,1.093-1.093,1.749-2.404,1.53c-0.656,0-0.874,0-0.656,0.219c0.219,0.218,1.312,1.749,0.875,3.934
			c-0.219,1.312-1.312,1.53-2.186,1.093c-0.437-1.311-1.093-2.404-1.53-3.715c-0.219-0.438-0.656-0.656-1.093-0.438
			c-0.437,0.219-0.656,0.656-0.437,1.093c0.218,0.218,0.218,0.655,0.437,0.874c0.437,0.875,0.656,1.53,1.093,2.404
			c0,0.875,0,1.967-0.219,2.841c-0.218,1.312-1.311,1.749-1.967,0.219s-1.312-3.497-1.312-3.934c0-0.219-1.093,0.218-1.093,0.655
			c0,0.438-0.437,3.06-1.53,3.279c-0.437,0.219-0.874-0.875-0.874-1.967c0-1.312,0.656-3.497-0.875-4.59
			c-0.437-0.219-0.656-0.437-1.093-0.219c-0.437,0-0.656,0.438-0.656,0.438c-0.218,3.497-1.093,5.464-1.093,5.464
			s1.53-1.53,1.53-0.655c0,0.874,0.219,3.497,1.093,4.59c0.874,1.093,1.749,1.53,2.623,1.53c0.219,0-0.218-0.874,1.093-2.186
			c0.219-0.437,0.656-0.656,0.656-0.219c0,0.438,0.656,2.186,2.623,2.186c1.53,0,2.404-1.093,2.841-2.404
			c3.716,11.147,3.279,21.857-0.656,29.069c4.809-7.212,5.464-18.797,1.53-30.818c1.093-0.438,3.06,0,3.934-1.749v-0.219
			c5.027,10.273,6.12,20.546,3.279,28.195c3.715-7.868,2.841-19.453-2.842-30.6c0-0.875-0.437-1.312-0.437-1.312
			s1.312-0.874,2.841-0.874c0.438,0,0.656-0.219,0.875-0.438c6.557,9.617,9.18,20.109,7.431,28.196
			C184.693,383.76,181.852,371.739,174.42,361.247"/>
		<path fill="#FFFFFF" d="M126.553,333.926c0.656,0.218,0.875,0.656,0.438,1.53c-0.438,0.875-1.093,1.312-2.186,1.312
			c-2.186,0.219-3.934-1.312-8.087-1.093c-2.404,0-5.027,0.437-7.213,1.53c-2.186,1.093-2.623,1.53-2.841,1.53
			c0,0,0-0.438,0.218-0.656c0.875-0.875,4.809-3.716,10.929-4.809C122.619,332.614,125.46,333.27,126.553,333.926"/>
		<path fill="#FFFFFF" d="M123.056,337.642c0.219,0,0.219,0,0.437,0.218c0,0.219,0.219,1.093,0,2.186
			c-0.437,1.093-0.874,1.967-1.967,3.06c-1.312,0.875-3.497,0.656-4.372-1.093c-1.312-1.967-0.656-5.027,1.312-5.464
			c0.874-0.218,1.093,0.438,1.093,0.875c0.219,0.874-0.437,1.312,0,1.967s1.312,0.874,2.186,0c0.875-0.875,0.875-1.093,1.093-1.312
			C122.837,337.86,122.837,337.642,123.056,337.642"/>
		<path fill="#FFFFFF" d="M152.563,360.373c-0.219-0.438-0.656-0.438-0.656,0.218c0,1.093-0.219,1.749-1.093,2.841
			c-0.656,1.093-1.093,0.219-1.53,0.656c-1.53,1.093-0.874,3.716-0.874,5.027s-0.438,2.623-0.875,2.404
			c-0.874-0.437-1.53-2.186-1.53-2.623c-0.219-1.093-1.093-1.093-1.093-0.656c-0.438,1.53-1.749,4.809-2.404,6.339
			c-0.438,0.874-1.093,0-1.312-0.875c0.656-1.967,1.53-3.715,2.404-5.683c0.218-0.437,0.218-0.656,0.437-1.093
			c0.219-0.438,0-0.875-0.437-1.093c-0.438-0.218-0.875,0-1.093,0.438c-1.53,3.06-2.623,6.12-3.498,8.961
			c-0.655,1.311-1.53,2.404-2.404,3.497c-0.655,0.656-1.53-3.06-3.06-1.093c-0.438,0.656-1.967,2.623-2.623,3.497
			c0,0.218-0.219,0.218-0.219,0.218c1.312-3.497,3.06-6.994,5.246-10.491c0.218-0.219,0.437-0.656,0.655-0.874
			c0.219-0.438,0.219-0.875-0.218-1.093c-0.437-0.218-0.875-0.218-1.093,0.219c-1.967,3.06-3.716,6.338-5.027,9.398
			c-0.437-1.53-1.967,0-2.623,0.875c-0.655,0.874-1.53,2.186-1.749,1.53c0,0-0.218-0.437-0.218-0.874
			c0-0.656-0.656-0.875-1.312-0.875c1.093-1.967,2.623-4.153,4.153-6.12c0.219-0.218,0.437-0.437,0.656-0.655
			c0.219-0.219,0.219-0.875-0.219-1.093c-0.218-0.218-0.874-0.218-1.093,0.219c-1.967,2.623-3.716,5.246-5.027,7.869
			c-0.656,0.218-1.093,0.218-1.53,0.437c-1.312,0.437-2.841,0.875-2.841,0.875c0-0.656,0-1.312-0.656-1.749
			c-0.656-0.655-3.279,0-4.372-0.218c-1.093-0.219-1.093-0.437-1.093-0.875c0.437-1.53-0.874-2.186-2.404-2.404
			c-1.53-0.437-2.186-0.656-2.186-0.656c0.437-1.53-1.749-2.404-3.06-3.06s-2.841-1.53-2.841-1.53l-0.219-1.093
			c-0.219-1.53-1.967-1.967-3.06-3.06c-1.093-0.874-1.53-2.623-1.53-2.623s0,0.219,0.437,1.749c0.437,1.53,1.749,2.404,2.186,3.497
			c0.438,1.093-0.218,1.967-0.218,1.967c1.093,0.875,2.186,1.53,3.934,2.404c1.749,1.093,0.437,1.967,0.437,1.967
			c1.093,0.875,2.842,1.749,4.59,2.186c1.749,0.656,0.218,1.967,0.218,1.967c1.967,0.875,4.372,1.749,5.683,1.749
			s0.437,1.967,0.437,1.967c1.312,0.437,2.404,0.219,5.464-0.656c0.437,0,0.656-0.219,0.874-0.219
			c-3.497,8.306-4.153,16.393-1.749,22.513c-1.967-6.12-0.655-14.426,3.06-22.294c0.875,0.219,0.656,1.093,0.656,1.53
			c-0.218,0.656,0,1.53,0.437,1.312c2.623-1.093,4.372-3.497,5.027-3.497c0.219,0,0.219,0.219,0.437,0.437
			c-2.841,9.18-2.841,17.923,0.438,24.043c-2.186-5.684-2.186-13.333,0-21.202c1.749-0.875,2.186-2.186,3.278-3.06
			c1.093-0.875,1.53-0.438,1.53,0.218c0.218,0.875-0.438,2.404,0.437,1.967c1.093-0.437,1.967-1.093,2.623-1.749
			c-1.53,9.836-0.218,18.797,3.935,24.917c-3.935-6.995-4.59-17.268-1.749-28.196c0.218-0.437,0.218-0.655,0.437-0.874
			c0.219-0.656,0.656,0.219,0.656,1.093c0,0.875,0.219,1.53,0.656,1.093c2.841-1.312,4.59-5.901,4.809-6.775
			c0-0.438,0.218-0.219,0.656,0.218c1.312,1.093,0.874,2.186,1.312,2.186c0.874,0,1.53-0.656,2.404-1.749
			c0.656-1.312,0.656-4.153,0.656-5.027s1.53,0.656,1.53,0.656s1.093-1.967,1.093-5.464C153.437,361.903,153,360.81,152.563,360.373
			"/>
		<path fill="#FFFFFF" d="M128.739,382.23c0-0.219-0.219-0.437-0.438-0.437c0,0-0.218,0-0.218,0.218
			c0.218,0.219,0.437,0.438,0.437,0.656C128.739,382.449,128.739,382.449,128.739,382.23"/>
		<path fill="#FFFFFF" d="M112.127,377.858c-0.218,0.656,0,0.875,1.093,0.875c0.655,0,1.749,0,2.841,0
			c-1.312-0.656-2.623-1.312-3.935-1.967C112.127,377.203,112.346,377.64,112.127,377.858"/>
		<path fill="#FFFFFF" d="M118.903,380.7c-0.219-0.219-0.656-0.438-0.874-0.656c0,0.218,0.218,0.656,0,0.874
			C118.247,380.918,118.466,380.7,118.903,380.7"/>
		<path fill="#FFFFFF" d="M127.208,388.35c0.437-1.967,0.875-3.716,1.312-5.683c-0.219-0.218-0.437-0.437-0.437-0.656
			c-0.656,0.438-1.967,1.749-3.935,2.842C125.241,385.946,126.334,387.257,127.208,388.35"/>
		<path fill="#FFFFFF" d="M130.269,384.416c-0.437,0.219-0.656,0.656-1.093,0.875c-0.437,1.53-0.656,2.841-0.875,4.372
			c4.59,6.12,7.432,13.77,7.432,22.076c0.218-0.219,0.437-0.219,0.656-0.438c1.312-0.655,2.841-0.874,4.153-0.437
			c0-1.749-0.219-3.279-0.437-5.027c-1.749-3.279-3.06-7.213-3.279-11.584C134.858,390.754,132.892,387.476,130.269,384.416"/>
		<path fill="#FFFFFF" d="M104.04,374.58c0-0.437,0-0.875-0.875-1.312c-1.749-1.093-3.06-1.749-3.934-2.404
			c0,0,0.437-0.656,0.437-1.53c-0.874,0-1.53-0.219-2.404-0.219c-9.398,0-17.923,3.06-24.917,7.869
			c2.404,0.874,2.186,3.06,1.749,4.809c6.557-4.809,14.426-7.869,23.168-7.869C99.45,373.924,101.854,374.143,104.04,374.58"/>
		<path fill="#FFFFFF" d="M59.014,418.513c-1.53,1.312-3.278,1.53-4.809,0.874c3.497,20.546,21.202,36.283,42.84,36.283
			c7.868,0,15.081-2.186,21.638-5.683c-0.655-1.093-0.874-3.061-0.218-5.465c-6.12,3.935-13.333,6.339-21.202,6.339
			C78.03,451.08,62.074,436.873,59.014,418.513"/>
		<path fill="#FFFFFF" d="M50.708,412.611c-1.967-0.438-3.934-0.219-5.246,0c-3.06,0.438-4.809,0.874-4.809,0.874
			s0.437-0.874,0.875-1.312c0.218-0.655-0.438-0.655-0.656-0.655c-0.219,0-2.623,0-4.59,0.438c-1.967,0.218-4.153-0.219-4.153-0.219
			c0.438-0.438,0.656-1.093,0.875-1.312c0-0.219,0-0.438-0.437-0.656c-0.438-0.218-1.53-0.655-3.716-0.218
			c-4.59,0.874-5.901-0.875-5.901-0.875s0.218-2.404,1.311-5.901c1.53-5.464,3.498-8.087,3.716-8.524
			c0.219-0.219-0.218-0.656-0.437-0.656s-2.404,0.219-2.404,0.219s1.093-3.06,3.716-7.869c2.404-4.809,3.278-6.776,3.497-7.65
			c0.437-1.53-1.967-0.875-1.967-0.875s0.875-1.749,2.404-3.497c1.312-1.967,3.279-3.934,3.716-4.153
			c0.219-0.437,0-0.437-0.219-0.437c-0.218,0-1.53,0-1.53,0s0.874-1.312,3.278-3.279s3.498-2.841,3.716-2.841
			c0.437-0.437,0.437-0.656,0-0.875c-0.218,0-0.874-0.437-0.874-0.437s0.656-0.656,3.06-1.749c2.186-0.875,3.935-1.312,4.372-1.312
			c0.437-0.219,0.219-0.437,0.219-0.437c0-0.219-1.093-0.875-1.093-0.875s0.656-0.437,2.841-1.53s4.372-1.312,4.372-1.312
			s-2.623-0.656-9.18,1.53c-5.246,1.749-7.432,3.497-7.432,3.497s0.875-0.219,1.749-0.219c0.875,0,1.53,0,1.53,0
			s-3.06,1.53-5.901,3.279c-2.841,1.967-3.497,2.623-3.497,2.623s0.874-0.218,1.53-0.218c0.875,0,1.53-0.219,1.53-0.219
			s-3.06,2.404-5.464,5.027c-2.186,2.623-2.842,3.934-2.842,3.934s0.875-0.437,1.967-0.656s1.53,0,1.53,0s-0.875,1.53-2.404,3.278
			c-1.53,1.749-2.623,3.498-3.279,5.027c-0.656,1.53-0.874,2.186-0.874,2.186s0.874,0,1.749-0.655
			c0.874-0.656,1.53-0.656,1.53-0.656s-3.716,8.087-4.59,12.677c-0.438,1.749-0.656,3.279-1.312,4.372c0,0,1.093-0.219,1.749-0.874
			c0.875-0.656,0.875-0.656,0.875-0.656s-2.623,6.994-2.186,11.147c0,0.219,3.279,2.404,6.12,1.749c0,0-0.219,0.437-1.749,0.874
			c-1.53,0.219-2.186,1.093-2.186,1.093c1.749,0,4.59,1.093,7.65,1.312s5.464-0.219,5.464-0.219s-0.219,0.438-1.312,0.874
			c-1.312,0.656-2.623,0.656-2.623,0.656s0.437,0.437,1.312,0.655c1.093,0.219,3.497,0.219,6.338-0.437
			c2.623-0.656,4.372-0.438,7.213-0.656c2.623,0,3.279,1.967,4.59,3.497c0.437,0.438,1.093,0.874,1.749,1.093
			c-0.219-1.312-0.438-2.623-0.438-3.934C52.457,414.578,52.239,412.83,50.708,412.611"/>
		<path fill="#FFFFFF" d="M140.979,407.584c-0.437-0.655-0.656-1.529-1.093-2.186c0,0.219,0,0.438,0.219,0.656
			C140.323,406.491,140.542,407.147,140.979,407.584"/>
		<path fill="#FFFFFF" d="M123.056,383.979v0.219c-0.219,0.656,0,1.53,0.437,1.312c0.219-0.219,0.438-0.219,0.875-0.438
			C123.711,384.634,123.274,384.197,123.056,383.979"/>
		<path fill="#FFFFFF" d="M129.176,406.491c-1.967-4.59-2.186-10.491-0.875-16.83c-0.218-0.438-0.656-0.875-0.874-1.312
			C125.897,395.344,126.553,401.683,129.176,406.491"/>
		<path fill="#FFFFFF" d="M117.373,379.17c-0.219-0.219-0.875-0.219-1.53-0.219c0.656,0.438,1.312,0.875,2.186,1.312
			C118.029,379.826,117.81,379.389,117.373,379.17"/>
		<path fill="#FFFFFF" d="M90.27,411.081c-0.437,0-0.875,0-1.312,0.219c-1.53,0.438-2.623,1.968-2.623,3.716
			c0,2.186,1.749,3.935,3.934,3.935c0.875,0,1.749-0.219,2.404-0.874c0.874-0.656,1.53-1.749,1.53-3.061
			C94.204,412.83,92.456,411.081,90.27,411.081"/>
		<path fill="#FFFFFF" d="M113.22,423.321l-0.656-0.655l-0.219-0.875l-0.437-0.437v-0.219h-0.219v-0.219v-0.219l-3.06-3.06
			l-0.656-0.656l-3.497-3.497l-1.967-1.748l-1.749-1.53l-2.186-1.748l-0.437-0.438l-0.656-0.656l-0.875-0.655l-0.437-0.655v-10.929
			h-12.24v0.438v0.218V396l0.218,0.219v0.219v0.437l0.219,0.219l0,0l0.218,0.219v0.219l-0.218,0.437v0.219l0,0v0.219l0.218,0.438
			l-0.655,1.529l-0.219,0.438v0.219v0.219v0.218v0.219l0,0l0.437,0.438l0.219,0.219v0.218l0.218,0.219l0.219,0.438v0.219
			l0.219,0.219v0.218v0.219v0.438v0.219v0.218v0.438v0.219l0.218,0.438l0.219,0.437l-0.219,0.438v0.219l0.219,0.218l0.219,0.219
			l0.218,0.219l0,0h0.219l0.218,0.219l0.219,0.438l0.219,0.218l0.437,0.219l0.219,0.438l0,0l0.218,0.219l0,0
			c0.219,0,0.219-0.219,0.438-0.219c0.655-0.219,1.53-0.438,2.404-0.438c3.716,0,6.776,3.061,6.776,6.775
			c0,2.187-1.093,4.153-2.623,5.465v0.219v0.219l0,0l0.218,0.218v0.219v0.219l-0.218,0.438v0.218h0.437l0.218,0.219h1.312h0.219
			h0.656h0.218l0.438,0.219l0.218,0.438h0.219l0.219,0.437l0.218,0.219l0.437,0.219l0,0h0.438l0,0h0.656l0.218,0.219l0.219,0.655
			l0,0v0.219l0.437,0.219v-0.219h0.219h0.218l0.438,0.438l0.218,0.218h0.219l0.437,0.438l0.219,0.219l0.437,0.438l0.656,1.093v0.437
			v0.219l0.219,0.219l0,0v0.219l0,0l0.218-0.219l0,0l0.219,0.219v0.219l-0.219-0.219l0,0l0,0l0.219,0.219v0.218l2.841-0.218
			l3.935-0.438h0.437h0.218v-0.219l0.219-0.219v-0.437l-0.219-0.219h-0.437h-0.218v-0.219v-0.438l-0.438-0.874V426.6v-0.218l0,0
			l0.219-0.219l0,0h0.219l0.218-0.219v-0.219v-0.219v-0.655l0.219-0.219l0,0v-0.219L113.22,423.321L113.22,423.321L113.22,423.321z"
			/>
	</g>
</g>
<g id="White" display="none">
	<g display="inline">
		<path fill="#FFFFFF" d="M212.67,349.881c-0.656-1.967-1.967-3.497-4.372-3.497c-3.06,0-4.808,2.841-4.808,8.306
			s1.53,8.306,5.027,8.306c1.967,0,3.279-0.656,4.59-3.497l4.153,1.093c-1.311,4.153-4.59,6.12-8.743,6.12
			c-6.12,0-9.398-4.372-9.398-12.24c0-7.65,3.497-12.24,9.398-12.24c4.59,0,7.213,1.967,8.306,6.12L212.67,349.881z"/>
		<path fill="#FFFFFF" d="M230.156,366.711l-0.219-1.53c-1.53,1.093-3.278,1.749-5.246,1.749c-3.06,0-4.59-2.186-4.59-4.59
			c0-3.934,3.06-5.901,9.835-6.775v-1.53c0-1.312-1.093-1.967-2.404-1.967c-1.967,0-2.841,1.093-3.715,2.186l-2.623-1.967
			c1.093-1.749,3.934-3.278,6.338-3.06c4.59,0,6.557,1.749,6.557,6.776v8.087c0,0.875,0,1.749,0.438,2.404h-4.372V366.711z
			 M229.719,358.406c-2.623,0.437-5.683,1.093-5.683,3.497c0,1.312,0.875,1.967,1.967,1.967c1.312,0,2.841-1.093,3.716-1.749
			V358.406z"/>
		<rect x="238.68" y="343.105" fill="#FFFFFF" width="4.153" height="23.606"/>
		<path fill="#FFFFFF" d="M247.86,342.668h4.153v3.716h-4.153V342.668z M252.013,366.711h-4.153v-17.048h4.153V366.711z"/>
		<path fill="#FFFFFF" d="M261.849,352.941v13.77h-4.153v-13.77h-2.404v-3.278h2.404v-2.186c0-3.716,1.53-4.809,4.809-4.809h2.623
			v3.279h-1.093c-1.749,0-2.186,0.437-2.186,1.749v1.749h3.497v3.278h-3.497V352.941z"/>
		<path fill="#FFFFFF" d="M274.963,349.226c4.59,0,7.432,3.497,7.432,8.743c0,5.246-2.842,8.743-7.432,8.743
			s-7.432-3.497-7.432-8.743C267.531,352.723,270.373,349.226,274.963,349.226 M274.963,352.504c-2.186,0-3.279,1.749-3.279,5.464
			c0,3.715,1.093,5.464,3.279,5.464s3.278-1.749,3.278-5.464C278.241,354.253,277.148,352.504,274.963,352.504"/>
		<path fill="#FFFFFF" d="M285.892,366.711v-17.048h3.715v2.841l0,0c0.875-1.967,2.404-3.279,4.809-3.279v4.372
			c-0.218,0-0.437,0-0.656,0c-1.967,0-3.715,2.404-3.715,2.841v10.273H285.892z"/>
		<path fill="#FFFFFF" d="M297.694,366.711v-17.048h3.716v1.749c1.53-1.093,3.278-2.186,5.245-2.186
			c3.497,0,5.027,2.186,5.027,5.683v11.584h-4.152v-11.147c0-2.186-0.656-3.06-2.186-3.06c-1.749,0-3.06,1.093-3.716,1.749v12.24
			h-3.934V366.711z"/>
		<path fill="#FFFFFF" d="M316.71,342.668h4.153v3.716h-4.153V342.668z M320.863,366.711h-4.153v-17.048h4.153V366.711z"/>
		<path fill="#FFFFFF" d="M334.633,366.711l-0.219-1.53c-1.529,1.093-3.278,1.749-5.245,1.749c-3.061,0-4.591-2.186-4.591-4.59
			c0-3.934,3.061-5.901,9.836-6.775v-1.53c0-1.312-1.093-1.967-2.404-1.967c-1.967,0-2.841,1.093-3.716,2.186l-2.622-1.967
			c1.093-1.749,3.934-3.278,6.338-3.06c4.59,0,6.558,1.749,6.558,6.776v8.087c0,0.875,0,1.749,0.437,2.404h-4.371V366.711z
			 M334.195,358.406c-2.622,0.437-5.683,1.093-5.683,3.497c0,1.312,0.874,1.967,1.967,1.967c1.312,0,2.842-1.093,3.716-1.749
			V358.406L334.195,358.406z"/>
		<path fill="#FFFFFF" d="M366.326,349.226c-0.656-1.749-2.187-3.06-4.153-3.06s-3.278,0.875-3.278,2.623
			c0,4.153,12.24,3.279,12.24,10.929c0,4.809-3.061,7.213-8.307,7.213c-3.934,0-7.431-2.186-8.742-5.683l3.716-1.53
			c1.093,2.186,2.404,3.715,5.245,3.715c2.186,0,3.935-0.874,3.935-3.06c0-4.59-12.24-3.716-12.24-10.929
			c0-4.153,3.497-6.557,7.65-6.557c3.716,0,6.994,1.967,8.306,5.246L366.326,349.226z"/>
		<path fill="#FFFFFF" d="M375.506,349.663v-5.683h4.152v5.683h3.279v3.278h-3.279v9.617c0,0.874,0.438,1.093,1.53,1.093
			c0.656,0,1.312-0.219,1.967-0.437v3.278c-1.093,0.219-2.186,0.219-3.278,0.219c-3.06,0-4.152-1.53-4.152-3.934v-10.055h-2.404
			v-3.278h2.186V349.663z"/>
		<path fill="#FFFFFF" d="M395.833,366.711l-0.219-1.53c-1.53,1.093-3.278,1.749-5.246,1.749c-3.06,0-4.59-2.186-4.59-4.59
			c0-3.934,3.061-5.901,9.836-6.775v-1.53c0-1.312-1.093-1.967-2.404-1.967c-1.967,0-2.842,1.093-3.716,2.186l-2.623-1.967
			c1.093-1.749,3.935-3.278,6.339-3.06c4.59,0,6.558,1.749,6.558,6.776v8.087c0,0.875,0,1.749,0.437,2.404h-4.371V366.711z
			 M395.396,358.406c-2.623,0.437-5.683,1.093-5.683,3.497c0,1.312,0.874,1.967,1.967,1.967c1.312,0,2.842-1.093,3.716-1.749
			V358.406L395.396,358.406z"/>
		<path fill="#FFFFFF" d="M404.794,349.663v-5.683h4.153v5.683h3.278v3.278h-3.278v9.617c0,0.874,0.437,1.093,1.53,1.093
			c0.655,0,1.311-0.219,1.967-0.437v3.278c-1.093,0.219-2.186,0.219-3.278,0.219c-3.061,0-4.153-1.53-4.153-3.934v-10.055h-2.404
			v-3.278h2.186V349.663z"/>
		<path fill="#FFFFFF" d="M418.564,358.843c0,3.497,1.53,4.809,3.497,4.809s2.842-0.874,3.716-1.967l2.841,1.749
			c-1.529,2.404-3.934,3.498-7.213,3.498c-4.371,0-7.213-3.498-7.213-8.743c0-5.464,2.842-8.743,7.432-8.743
			c4.372,0,6.994,3.716,6.994,7.869v1.53H418.564z M425.121,356.001c0-2.404-1.312-3.716-3.278-3.716s-3.278,1.312-3.278,3.716
			H425.121z"/>
		<path fill="#FFFFFF" d="M458.781,343.105h4.59v14.863c0,6.994-4.152,9.18-8.961,9.18s-9.18-2.186-9.18-9.18v-14.863h4.59v15.082
			c0,3.935,1.529,5.246,4.59,5.246c3.06,0,4.59-1.311,4.59-5.246v-15.082H458.781z"/>
		<path fill="#FFFFFF" d="M468.617,366.711v-17.048h3.716v1.749c1.53-1.093,3.278-2.186,5.245-2.186
			c3.498,0,5.027,2.186,5.027,5.683v11.584h-4.152v-11.147c0-2.186-0.656-3.06-2.186-3.06c-1.749,0-3.061,1.093-3.716,1.749v12.24
			h-3.935V366.711z"/>
		<path fill="#FFFFFF" d="M487.633,342.668h4.153v3.716h-4.153V342.668z M491.567,366.711h-4.153v-17.048h4.153V366.711z"/>
		<polygon fill="#FFFFFF" points="495.064,349.663 498.999,349.663 501.84,361.247 501.84,361.247 504.9,349.663 508.834,349.663 
			504.025,366.711 499.654,366.711 		"/>
		<path fill="#FFFFFF" d="M514.518,358.843c0,3.497,1.529,4.809,3.497,4.809c1.967,0,2.841-0.874,3.716-1.967l2.841,1.749
			c-1.53,2.404-3.935,3.498-7.213,3.498c-4.371,0-7.213-3.498-7.213-8.743c0-5.464,2.842-8.743,7.432-8.743
			c4.371,0,6.994,3.716,6.994,7.869v1.53H514.518z M521.074,356.001c0-2.404-1.312-3.716-3.278-3.716
			c-1.968,0-3.278,1.312-3.278,3.716H521.074z"/>
		<path fill="#FFFFFF" d="M528.725,366.711v-17.048h3.715v2.841l0,0c1.094-1.967,2.405-3.279,4.809-3.279v4.372
			c-0.218,0-0.437,0-0.655,0c-1.967,0-3.716,2.404-3.716,2.841v10.273H528.725z"/>
		<path fill="#FFFFFF" d="M549.27,354.034c-0.874-0.874-1.967-1.749-3.278-1.749c-1.53,0-2.186,0.656-2.186,1.749
			c0,2.841,8.524,1.749,8.524,7.869c0,3.497-2.623,5.027-6.339,5.027c-2.623,0-5.027-1.312-6.557-3.498l2.622-1.967
			c0.875,1.312,2.187,2.404,3.935,2.404c1.53,0,2.404-0.875,2.404-1.967c0-2.841-8.524-1.967-8.524-7.869
			c0-3.278,2.623-5.027,5.684-5.027c2.186,0,4.59,0.874,5.901,2.623L549.27,354.034z"/>
		<path fill="#FFFFFF" d="M556.265,342.668h4.152v3.716h-4.152V342.668z M560.417,366.711h-4.152v-17.048h4.152V366.711z"/>
		<path fill="#FFFFFF" d="M566.1,349.663v-5.683h4.153v5.683h3.278v3.278h-3.278v9.617c0,0.874,0.438,1.093,1.53,1.093
			c0.655,0,1.312-0.219,1.967-0.437v3.278c-1.093,0.219-2.186,0.219-3.278,0.219c-3.061,0-4.153-1.53-4.153-3.934v-10.055h-2.404
			v-3.278h2.186V349.663z"/>
		<path fill="#FFFFFF" d="M575.936,369.334c0.656,0.218,1.093,0.218,1.749,0.218c1.312,0,2.186-0.437,2.622-1.312
			c0.438-0.874,0.656-1.311,0.656-1.967s-0.438-1.312-0.438-1.967l-4.59-14.644h4.153l2.841,10.491l0,0l2.842-10.491h4.152
			l-5.464,17.048c-1.749,4.809-3.278,6.12-6.558,6.12c-1.093,0-1.529,0-1.967-0.219V369.334L575.936,369.334z"/>
		<polygon fill="#FFFFFF" points="200.211,421.354 200.211,383.76 210.266,383.76 217.479,409.988 217.479,409.988 224.691,383.76 
			234.964,383.76 234.964,421.354 228.625,421.354 228.625,391.847 228.625,391.847 220.102,421.354 214.855,421.354 
			206.55,391.847 206.332,391.847 206.332,421.354 		"/>
		<path fill="#FFFFFF" d="M258.133,421.791c-10.273,0-15.737-6.994-15.737-19.234c0-12.239,5.464-19.234,15.737-19.234
			s15.737,6.995,15.737,19.234C273.87,414.797,268.187,421.791,258.133,421.791 M258.133,389.224c-5.901,0-8.524,4.372-8.524,13.333
			c0,8.743,2.623,13.333,8.524,13.333s8.524-4.371,8.524-13.333C266.657,393.814,264.034,389.224,258.133,389.224"/>
		<polygon fill="#FFFFFF" points="281.301,421.354 281.301,383.76 288.733,383.76 303.377,409.333 303.596,409.333 303.596,383.76 
			310.152,383.76 310.152,421.354 303.377,421.354 288.077,394.688 287.858,394.688 287.858,421.354 		"/>
		<polygon fill="#FFFFFF" points="343.376,383.76 343.376,389.88 333.54,389.88 333.54,421.354 326.546,421.354 326.546,389.88 
			316.71,389.88 316.71,383.76 		"/>
		<polygon fill="#FFFFFF" points="349.933,421.354 349.933,383.76 374.632,383.76 374.632,389.88 357.146,389.88 357.146,398.842 
			369.823,398.842 369.823,404.743 357.146,404.743 357.146,415.234 375.287,415.234 375.287,421.354 		"/>
		<path fill="#FFFFFF" d="M382.062,421.354V383.76h14.863c8.524,0,12.021,5.027,12.021,11.147c0,4.59-2.186,8.306-6.775,9.617
			l8.306,16.611h-7.869l-6.994-15.3h-6.12v15.3h-7.432V421.354z M389.275,400.152h5.246c5.683,0,7.213-1.748,7.213-5.245
			s-2.186-5.246-6.12-5.246h-6.558v10.491H389.275z"/>
		<polygon fill="#FFFFFF" points="417.472,421.354 417.472,383.76 442.389,383.76 442.389,389.88 424.685,389.88 424.685,398.842 
			437.58,398.842 437.58,404.743 424.685,404.743 424.685,415.234 442.826,415.234 442.826,421.354 		"/>
		<polygon fill="#FFFFFF" points="461.623,398.623 467.961,383.76 475.393,383.76 465.12,406.272 465.12,421.354 457.907,421.354 
			457.907,406.272 447.635,383.76 455.065,383.76 		"/>
		<path fill="#FFFFFF" d="M500.528,383.76h13.989c7.431,0,12.239,2.404,12.677,9.18c0,3.934-1.53,6.995-5.683,8.524
			c4.809,1.968,6.557,4.153,6.557,9.836c0,5.901-4.152,9.836-13.551,9.836h-13.989V383.76z M507.741,398.842h7.213
			c3.497,0,5.027-1.968,5.027-4.59c0-2.623-1.749-4.59-5.027-4.59h-7.213V398.842z M507.741,415.453h7.213
			c4.153,0,5.901-1.968,5.901-5.465s-1.748-5.464-5.901-5.464h-7.213V415.453z"/>
		<path fill="#FFFFFF" d="M543.368,383.76h8.962l10.71,37.595h-7.213l-1.967-8.087h-11.803l-2.187,8.087h-7.213L543.368,383.76z
			 M543.587,407.365h8.743l-4.153-16.393l0,0L543.587,407.365z"/>
		<polygon fill="#FFFFFF" points="576.373,398.623 582.711,383.76 590.143,383.76 579.87,406.272 579.87,421.354 572.876,421.354 
			572.876,406.272 562.385,383.76 569.815,383.76 		"/>
		<polygon fill="#FFFFFF" points="200.43,450.424 200.43,433.812 211.577,433.812 211.577,436.436 203.708,436.436 203.708,440.37 
			209.392,440.37 209.392,443.211 203.708,443.211 203.708,447.802 211.796,447.802 211.796,450.424 		"/>
		<polygon fill="#FFFFFF" points="217.26,444.305 213.981,438.402 217.042,438.402 218.79,441.9 220.539,438.402 223.599,438.402 
			220.32,444.305 223.817,450.424 220.757,450.424 218.79,446.709 216.823,450.424 213.763,450.424 		"/>
		<path fill="#FFFFFF" d="M227.096,438.402v-3.934h2.841v3.934h2.404v2.404h-2.404v6.776c0,0.655,0.219,0.874,1.093,0.874
			c0.438,0,0.875-0.219,1.312-0.219v2.404c-0.874,0-1.53,0.219-2.186,0.219c-2.186,0-3.06-1.093-3.06-2.842v-7.213h-1.749v-2.404
			H227.096z"/>
		<path fill="#FFFFFF" d="M234.746,450.424v-12.021h2.623v1.968l0,0c0.656-1.53,1.749-2.186,3.497-2.404v3.06
			c-0.219,0-0.219,0-0.437,0c-1.53,0-2.623,1.749-2.623,1.968v7.431H234.746L234.746,450.424z"/>
		<path fill="#FFFFFF" d="M249.608,450.424l-0.218-1.093c-1.093,0.875-2.186,1.312-3.716,1.312c-2.186,0-3.279-1.529-3.279-3.278
			c0-2.842,2.186-4.153,6.995-4.809V441.9c0-0.875-0.656-1.53-1.749-1.53c-1.312,0-2.186,0.655-2.623,1.53l-1.749-1.312
			c0.656-1.312,2.841-2.187,4.59-2.187c3.279,0,4.59,1.312,4.59,4.809v5.684c0,0.655,0,1.312,0.218,1.748h-3.06V450.424z
			 M249.171,444.741c-1.967,0.438-3.934,0.874-3.934,2.404c0,0.874,0.656,1.312,1.311,1.312c0.875,0,1.967-0.874,2.623-1.312
			V444.741L249.171,444.741z"/>
		<path fill="#FFFFFF" d="M259.881,438.185c3.279,0,5.246,2.404,5.246,6.338c0,3.935-1.967,6.339-5.246,6.339
			c-3.278,0-5.246-2.404-5.246-6.339C254.636,440.589,256.603,438.185,259.881,438.185 M259.881,440.589
			c-1.53,0-2.404,1.312-2.404,3.934c0,2.623,0.875,3.935,2.404,3.935c1.53,0,2.404-1.312,2.404-3.935
			C262.286,441.9,261.63,440.589,259.881,440.589"/>
		<path fill="#FFFFFF" d="M267.75,450.424v-12.021h2.623v1.968l0,0c0.655-1.53,1.749-2.186,3.497-2.404v3.06
			c-0.219,0-0.219,0-0.438,0c-1.53,0-2.623,1.749-2.623,1.968v7.431H267.75L267.75,450.424z"/>
		<path fill="#FFFFFF" d="M286.329,450.424h-2.404l-0.219-1.311c-1.093,1.093-1.967,1.529-3.278,1.529
			c-3.279,0-4.809-2.841-4.809-6.557c0-3.061,1.749-5.901,4.809-5.901c0.874,0,2.404,0.655,2.841,1.312l0,0v-5.901h2.841v16.829
			H286.329z M283.487,441.463c-0.656-0.438-1.312-1.093-2.186-1.093c-1.749,0-2.623,1.312-2.623,3.935
			c0,2.622,0.874,3.934,2.623,3.934c1.312,0,1.53-0.655,2.186-1.093V441.463z"/>
		<path fill="#FFFFFF" d="M290.044,433.595h2.841v2.622h-2.841V433.595z M292.886,450.424h-2.841v-12.021h2.841V450.424z"/>
		<path fill="#FFFFFF" d="M296.383,450.424v-12.021h2.623v1.312c1.093-0.655,2.404-1.529,3.716-1.529
			c2.404,0,3.497,1.529,3.497,3.934v8.306h-2.842v-7.868c0-1.53-0.437-2.186-1.53-2.186c-1.312,0-2.186,0.655-2.623,1.312v8.742
			H296.383z"/>
		<path fill="#FFFFFF" d="M316.055,450.424l-0.219-1.093c-1.093,0.875-2.186,1.312-3.716,1.312c-2.186,0-3.278-1.529-3.278-3.278
			c0-2.842,2.186-4.153,6.994-4.809V441.9c0-0.875-0.656-1.53-1.749-1.53c-1.312,0-2.186,0.655-2.623,1.53l-1.748-1.312
			c0.655-1.312,2.841-2.187,4.59-2.187c3.278,0,4.59,1.312,4.59,4.809v5.684c0,0.655,0,1.312,0.219,1.748h-3.06V450.424z
			 M315.836,444.741c-1.968,0.438-3.935,0.874-3.935,2.404c0,0.874,0.655,1.312,1.312,1.312c0.874,0,1.967-0.874,2.623-1.312
			V444.741z"/>
		<path fill="#FFFFFF" d="M321.956,450.424v-12.021h2.622v1.968l0,0c0.656-1.53,1.749-2.186,3.279-2.404v3.06
			c-0.219,0-0.219,0-0.438,0c-1.53,0-2.623,1.749-2.623,1.968v7.431H321.956L321.956,450.424z"/>
		<path fill="#FFFFFF" d="M329.605,452.392c0.438,0,0.875,0,1.312,0c1.093,0,1.53-0.219,1.968-0.874
			c0.218-0.656,0.437-0.875,0.437-1.312c0-0.438-0.219-0.875-0.437-1.53l-3.279-10.273h2.842l1.967,7.432l0,0l1.968-7.432h2.841
			l-3.716,12.021c-1.312,3.498-2.404,4.372-4.59,4.372c-0.655,0-1.093,0-1.312,0V452.392L329.605,452.392z"/>
		<path fill="#FFFFFF" d="M355.615,450.861c-4.59,0-6.994-3.06-6.994-8.524c0-5.464,2.404-8.524,6.994-8.524
			c4.591,0,6.995,3.061,6.995,8.524C362.828,447.583,360.206,450.861,355.615,450.861 M355.615,436.217
			c-2.622,0-3.934,1.968-3.934,5.901c0,3.935,1.093,5.901,3.934,5.901c2.623,0,3.935-1.967,3.935-5.901
			C359.55,438.185,358.238,436.217,355.615,436.217"/>
		<path fill="#FFFFFF" d="M365.67,438.402h2.842v1.094c0.874-0.875,1.748-1.312,3.06-1.312c3.278,0,4.809,2.841,4.809,6.557
			c0,3.061-1.748,5.901-4.809,5.901c-0.874,0-2.404-0.655-2.841-1.312l0,0v5.684h-2.842v-16.612H365.67z M368.512,447.364
			c0.655,0.438,1.312,1.093,2.186,1.093c1.748,0,2.623-1.312,2.623-3.935c0-2.622-0.875-3.934-2.623-3.934
			c-1.312,0-1.53,0.655-2.186,1.093V447.364z"/>
		<path fill="#FFFFFF" d="M379.222,438.402h2.841v1.094c0.875-0.875,1.749-1.312,3.061-1.312c3.278,0,4.809,2.841,4.809,6.557
			c0,3.061-1.749,5.901-4.809,5.901c-0.874,0-2.404-0.655-2.842-1.312l0,0v5.684h-2.841v-16.612H379.222z M382.062,447.364
			c0.656,0.438,1.312,1.093,2.187,1.093c1.748,0,2.622-1.312,2.622-3.935c0-2.622-0.874-3.934-2.622-3.934
			c-1.312,0-1.53,0.655-2.187,1.093V447.364z"/>
		<path fill="#FFFFFF" d="M397.145,438.185c3.278,0,5.245,2.404,5.245,6.338c0,3.935-1.967,6.339-5.245,6.339
			c-3.279,0-5.246-2.404-5.246-6.339C391.898,440.589,393.865,438.185,397.145,438.185 M397.145,440.589
			c-1.53,0-2.404,1.312-2.404,3.934c0,2.623,0.874,3.935,2.404,3.935c1.529,0,2.404-1.312,2.404-3.935
			C399.549,441.9,398.893,440.589,397.145,440.589"/>
		<path fill="#FFFFFF" d="M405.013,450.424v-12.021h2.623v1.968l0,0c0.655-1.53,1.749-2.186,3.497-2.404v3.06
			c-0.219,0-0.219,0-0.438,0c-1.529,0-2.622,1.749-2.622,1.968v7.431H405.013L405.013,450.424z"/>
		<path fill="#FFFFFF" d="M414.63,438.402v-3.934h2.842v3.934h2.404v2.404h-2.404v6.776c0,0.655,0.219,0.874,1.093,0.874
			c0.437,0,0.874-0.219,1.312-0.219v2.404c-0.875,0-1.53,0.219-2.186,0.219c-2.187,0-3.061-1.093-3.061-2.842v-7.213h-1.748v-2.404
			H414.63z"/>
		<path fill="#FFFFFF" d="M432.334,438.402v12.021h-2.623v-1.311c-1.093,0.655-2.404,1.529-3.715,1.529
			c-2.404,0-3.497-1.529-3.497-3.934v-8.307h2.841v7.869c0,1.53,0.438,2.186,1.53,2.186c1.312,0,2.186-0.655,2.623-1.312v-8.743
			H432.334z"/>
		<path fill="#FFFFFF" d="M435.613,450.424v-12.021h2.622v1.312c1.093-0.655,2.404-1.529,3.716-1.529
			c2.404,0,3.497,1.529,3.497,3.934v8.306h-2.841v-7.868c0-1.53-0.438-2.186-1.53-2.186c-1.312,0-2.186,0.655-2.623,1.312v8.742
			H435.613z"/>
		<path fill="#FFFFFF" d="M449.164,433.595h2.842v2.622h-2.842V433.595z M452.006,450.424h-2.842v-12.021h2.842V450.424z"/>
		<path fill="#FFFFFF" d="M456.158,438.402v-3.934H459v3.934h2.404v2.404H459v6.776c0,0.655,0.219,0.874,1.093,0.874
			c0.438,0,0.874-0.219,1.312-0.219v2.404c-0.874,0-1.53,0.219-2.186,0.219c-2.186,0-3.061-1.093-3.061-2.842v-7.213h-1.529v-2.404
			H456.158z"/>
		<path fill="#FFFFFF" d="M463.371,452.392c0.438,0,0.875,0,1.312,0c1.093,0,1.53-0.219,1.968-0.874
			c0.218-0.656,0.437-0.875,0.437-1.312c0-0.438-0.219-0.875-0.437-1.53l-3.279-10.273h2.842l1.967,7.432l0,0l1.968-7.432h2.841
			l-3.716,12.021c-1.312,3.498-2.404,4.372-4.59,4.372c-0.655,0-1.093,0-1.312,0V452.392L463.371,452.392z"/>
		<path fill="#FFFFFF" d="M97.046,379.826c-18.142,0-32.786,14.644-32.786,32.786s14.645,32.786,32.786,32.786
			c18.141,0,32.786-14.645,32.786-32.786C129.613,394.47,114.969,379.826,97.046,379.826 M97.046,439.059
			c-14.645,0-26.447-11.803-26.447-26.447s11.803-26.447,26.447-26.447c14.644,0,26.447,11.803,26.447,26.447
			C123.711,427.037,111.69,439.059,97.046,439.059"/>
		<path fill="#FFFFFF" d="M22.731,408.24c0,0,1.53,1.748,5.901,0.874c2.186-0.438,3.279,0,3.716,0.219s0.437,0.437,0.437,0.655
			c0,0.438-0.437,1.093-0.874,1.312c0,0,2.186,0.656,4.153,0.219c1.967-0.438,4.371-0.438,4.59-0.438s0.875,0,0.656,0.656
			c-0.219,0.655-0.875,1.312-0.875,1.312s1.749-0.219,4.809-0.875c1.312-0.218,3.279-0.437,5.246,0
			c1.967,0.438,1.967,3.061,4.59,3.935c2.623,0.874,2.623-5.683,2.623-7.432c0-1.748,0.656-2.622,1.967-3.716
			c2.186-1.748,1.749-4.371,1.312-6.119c-0.219-1.749,3.278-3.716,4.372-5.683c0.874-2.186,0.218-4.372-0.219-5.246
			c-0.437-0.874,0.219-1.53,0.875-2.186c1.093-1.093,3.06-4.372,2.186-5.464c-0.875-1.093-5.246,0-9.836,4.372
			c-4.59,4.153-7.868,9.18-9.18,11.366c-0.219,0.219-0.438-0.219,0-1.093c0.218-0.875,2.841-7.213,8.087-12.24
			c5.246-5.027,10.054-6.994,13.77-5.901c3.716,0.875,3.06,3.935,2.404,5.683s-2.623,2.841-3.06,5.027
			c-0.437,1.967,0.219,3.497,0.438,5.464c0.218,1.967-0.438,3.279-2.186,5.246c-0.874,0.874-2.404,2.623-2.404,3.497
			c0,0.219,0.656,1.312-0.437,4.372c-1.093,3.06-3.716,3.934-3.716,4.809c0,0.874,0,5.026-2.623,7.431
			c-2.623,2.404-5.683,1.53-6.994,0c-1.312-1.529-1.967-3.497-4.59-3.497c-2.623,0.219-4.372,0-7.213,0.656
			c-2.623,0.655-5.246,0.655-6.338,0.437c-1.093-0.218-1.312-0.655-1.312-0.655s1.312-0.219,2.623-0.656
			c1.093-0.437,1.312-0.874,1.312-0.874s-2.623,0.438-5.464,0.219c-3.06-0.219-5.901-1.312-7.65-1.312c0,0,0.656-0.874,2.186-1.093
			c1.53-0.219,1.749-0.874,1.749-0.874c-3.06,0.655-6.339-1.312-6.339-1.53c-0.437-4.153,1.967-11.584,1.967-11.584
			s-0.219,0-0.875,0.655c-0.874,0.656-1.749,0.874-1.749,0.874c0.438-1.093,0.875-2.404,1.312-4.371
			c0.875-4.59,4.59-12.677,4.59-12.677s-0.656,0-1.53,0.656c-0.875,0.656-1.749,0.656-1.749,0.656s0.219-0.656,0.874-2.186
			c0.656-1.53,1.749-3.279,3.279-5.027c1.53-1.749,2.404-3.278,2.404-3.278s-0.437-0.219-1.53,0
			c-1.093,0.218-1.967,0.656-1.967,0.656s0.656-1.312,2.841-3.935c2.186-2.623,5.464-5.027,5.464-5.027s-0.656,0.437-1.53,0.218
			c-0.655,0-1.53,0.219-1.53,0.219s0.656-0.656,3.497-2.623c2.841-1.967,5.901-3.278,5.901-3.278s-0.656,0-1.53,0
			c-0.875,0-1.749,0.218-1.749,0.218s2.186-1.749,7.431-3.497c6.557-2.186,9.18-1.53,9.18-1.53s-2.186,0.218-4.372,1.312
			c-2.186,0.874-2.841,1.53-2.841,1.53s0.875,0.656,1.093,0.875c0,0.218,0.219,0.437-0.218,0.437
			c-0.438,0.218-2.186,0.437-4.372,1.312c-2.186,0.874-3.06,1.749-3.06,1.749s0.656,0.218,0.875,0.437
			c0.437,0.219,0.437,0.437,0,0.875c-0.219,0.218-1.093,0.874-3.716,2.841c-2.404,1.967-3.279,3.278-3.279,3.278s1.312,0,1.53,0
			c0.218,0,0.437,0.219,0.218,0.438c-0.218,0.437-2.186,2.404-3.497,4.153c-1.312,1.967-2.404,3.497-2.404,3.497
			s2.404-0.656,1.967,0.874c-0.219,0.875-1.093,2.842-3.497,7.65s-3.716,7.868-3.716,7.868s2.186-0.218,2.404-0.218
			s0.437,0.218,0.437,0.656c-0.218,0.218-1.967,3.06-3.716,8.524C22.95,405.836,22.731,408.24,22.731,408.24"/>
		<path fill="#FFFFFF" d="M159.776,420.262c0,0-1.093-0.219-1.749-0.219c-0.656,0-0.656,1.093-0.656,1.748
			c0.218,3.935-0.219,8.743-0.219,9.181c0,0.437-1.749-0.656-2.186-0.875c-0.438-0.218-0.656,0.219-0.656,0.656
			c-0.656,6.12-3.497,12.896-3.497,12.896s-0.438-0.874-0.656-1.312c-0.219-0.437-0.438-0.437-0.656-0.219
			c-1.312,1.312-2.404,3.935-3.06,6.558s-2.404,4.59-2.404,4.59c-0.219-0.219-0.437-1.748-0.437-2.186
			c-0.219-0.438-0.656-0.219-0.875,0c-0.218,0.219-0.874,2.186-2.841,6.12s-3.279,7.213-5.901,7.432
			c-1.967,0.218-2.842-5.246-2.842-5.246s-0.655,0.438-1.093,1.312c-0.437,0.874-0.437,1.967-0.437,1.967
			c-1.967-5.683-1.093-10.054-1.093-10.491s-0.219-0.655-0.656-0.655c-0.219,0.218-1.093,0.874-1.093,0.874
			c-0.219-0.874-0.656-1.968-1.312-3.278c-0.656-1.094-2.404-0.656-3.716-0.438c-1.093,0-1.53-1.093-0.656-3.497
			c0.875-2.404,4.153-3.716,5.464-4.59c1.312-0.656,0.219-1.968,0.656-3.497c0.875-2.623,4.59-3.716,5.027-4.591
			c0.437-0.655-0.438-2.186,0.218-4.152s4.372-4.371,4.372-4.371c-0.437-3.497,0-7.213,1.53-9.399
			c1.53-2.186,4.372-0.218,5.246,5.465c1.093,8.087-2.186,13.552-3.716,16.83c-1.53,3.278-2.186,3.497-1.967,3.716
			c0.219,0.218,1.093,0,2.404-1.749c1.312-1.967,7.213-9.836,6.12-18.797c-1.312-8.962-5.901-11.147-9.617-9.18
			c-3.716,1.967-4.372,5.464-3.497,12.021c0,0-2.186,1.748-2.841,3.06c-0.875,1.53-0.438,4.152-0.875,4.59s-2.186,1.312-3.497,3.061
			c-1.312,1.748-1.093,4.152-1.967,4.59c-0.874,0.437-3.934,1.748-5.027,5.683c-1.312,3.935,0,6.994,1.967,6.557
			c1.749-0.437,4.59-0.655,4.59,2.187c-0.219,2.841-0.438,5.901,0,8.306c0,0,0.656-2.186,1.311-3.279c0,0,1.967,9.836,5.683,13.552
			c0,0,0-1.312-0.437-2.842c-0.219-1.529,0.218-2.404,0.218-2.404s0.438,1.53,2.404,1.53c3.497-0.219,7.432-8.306,7.432-8.306
			c-0.219,1.968,0.437,2.623,0.437,2.623c3.279-3.716,5.464-9.18,6.338-12.021c0.875-2.842,1.967-4.153,1.967-4.153
			s0.437,0.219,0.437,1.312s0.438,2.187,0.438,2.187c4.153-9.399,5.246-16.394,5.246-16.394s0.437,0.219,0.875,1.312
			c0.218,1.093,1.093,1.967,1.093,1.967c2.404-8.087,1.967-13.114,1.967-13.114s0.438,0.219,1.312,0.656
			c0.875,0.655,1.53,1.748,1.53,1.748c0.218-3.934-0.438-6.557-1.312-9.398c-0.656-2.841-1.53-5.901-1.53-5.901
			c1.312,0,2.404,1.093,2.404,1.093c-2.404-9.398-4.809-13.114-4.809-13.114s0.438,0,1.093,0.219c0.656,0,1.53,0.438,1.53,0.438
			c-2.404-5.683-5.901-8.962-5.901-8.962c0.656-0.437,2.186,0,2.186,0c-4.153-7.212-12.677-9.835-12.677-9.835
			s5.027,2.841,7.432,6.338c0.219,0.438-0.437,0.656-0.875,0.656c-0.655,0-0.655,0.437-0.437,0.875
			c0.219,0.437,3.716,3.934,4.809,6.557c0.219,0.437-1.749,0-1.312,1.093c0.438,1.093,3.716,6.12,4.59,10.054
			c0,0-2.842-0.655-2.404,0.219C154.967,407.147,157.372,411.737,159.776,420.262"/>
		<path fill="#FFFFFF" d="M105.789,321.686c0,0-2.841-0.218-6.776,0.438c-3.934,0.437-5.246,1.093-6.775,1.093
			c-1.53,0.218-1.967,0.218-1.967,0.218s0.875,1.093,1.967,1.093s1.967,0,2.404,0.437c0,0-1.749,0.218-5.027,1.53
			c-4.153,1.53-4.372,1.749-8.743,3.06c0,0,1.093,0.656,2.186,0.656c0.875,0,1.53,0.437,1.53,0.437s-3.06,0.656-6.557,1.967
			c-3.497,1.312-4.153,2.186-5.901,2.186c0,0,0.875,0.438,2.186,0.656c0.874,0,1.749,0.219,1.749,0.219s-1.312,0.656-4.59,2.404
			c-3.06,1.749-4.153,2.186-6.12,2.623c0,0,1.311,0.875,2.404,0.875c0.437,0,0.874,0,1.093,0c0,0-1.967,1.312-5.027,2.841
			c-3.06,1.53-3.497,1.749-4.59,2.842c0,0,1.53,0.218,2.186,0.437c0.219,0.218,0.656,0.218,0.875,0.218c0,0-1.967,1.093-4.809,2.842
			c-2.841,1.967-3.716,3.278-3.716,3.278s6.12-3.716,11.366-5.246c0.437-0.219,0.656-0.656,0.219-1.093
			c-0.219-0.219-1.53-1.093-1.53-1.093s0.437-0.219,3.716-1.967c3.497-1.749,5.246-2.404,5.683-2.623
			c0.437-0.218,0-0.656-0.219-0.874c-0.219-0.219-1.53-0.875-1.53-0.875s0.656-0.437,2.186-1.093
			c2.841-1.312,6.994-2.623,7.213-2.841c0.437-0.219,0.437-0.437,0-0.656c-0.219-0.219-1.312-1.093-1.312-1.093
			s1.093-0.656,3.278-1.093c2.186-0.656,4.153-1.312,5.027-1.53c1.312-0.656,1.749-0.874,1.53-1.53
			c-0.218-0.438-0.655-1.093-0.655-1.093s1.093-0.438,2.623-1.093c2.186-0.656,3.497-0.874,5.464-1.311
			c1.967-0.438,2.186-0.656,2.186-1.093c0-0.656-0.437-1.311-0.437-1.311s0.219-0.219,2.404-0.438
			c2.404-0.218,4.372-0.218,5.901-0.218c1.53,0,2.404,0.218,3.06,0c0.656-0.219,0.875-1.53,0.875-1.53s1.749-0.218,4.371,0.437
			c2.623,0.656,3.716,1.093,4.372,1.312c0.656,0.219,1.093,0,1.093-0.656c0.219-0.656,0.437-1.093,0.437-1.093s1.749,0,4.59,1.093
			c2.841,1.312,4.371,2.404,5.027,2.842c0.438,0.218,0.656,0,1.093-0.438c0.438-0.437,0.656-0.656,0.656-0.656s0.219,0,1.093,0.219
			c0.874,0.219,2.186,0.875,3.278,1.749c1.312,0.875,1.53,1.53,2.623,1.967c0.437,0,0.874-0.875,1.093-1.53
			c0.218-0.655,0.656-1.093,0.656-1.093s0.437,0,1.53,0.656s2.404,1.53,3.279,2.404h0.218c0,0,0-1.093-0.656-1.967
			c-1.093-1.53-3.278-3.278-5.246-4.59s-2.623-1.749-3.06-2.186c-0.218-0.219-0.218-0.438-0.218-0.438s-0.219,0.656,0.437,1.749
			c0.656,1.311,0.437,1.967,0.437,1.967s-2.186-1.312-4.809-2.404c-2.404-1.093-3.278-1.53-4.371-2.186
			c-1.312-0.656-1.53-0.875-1.53-0.875s0,1.312,0.656,2.186c0.656,0.656,0.656,0.874,0.656,0.874s-3.279-1.53-7.65-2.623
			c-4.372-0.875-6.776-1.749-6.776-1.749s0.437,1.53,1.093,2.186s0.875,1.093,0.875,1.093s-3.497-0.874-7.213-1.093
			c-3.497-0.219-5.027,0-5.683,0c-0.218,0-0.437,0-0.656,0c0,0,0.219,0.656,1.53,1.312
			C105.352,321.249,105.789,321.686,105.789,321.686"/>
		<path fill="#FFFFFF" d="M163.491,335.019c1.312,2.186,0.875,5.901-0.437,7.65c-1.093,1.749-3.06,2.841-4.153,4.153
			s-2.186,3.497-2.623,5.027c-0.438,1.53-1.312,3.06-2.623,3.06s-2.623-1.093-3.279-2.841c-0.655-1.749-0.874-3.935-3.715-5.464
			c-2.842-1.53-8.087-3.279-8.087-6.776s3.279-4.59,5.464-7.213s5.027-4.59,8.087-4.59
			C155.623,328.461,161.087,331.084,163.491,335.019"/>
		<path fill="#FFFFFF" d="M174.42,361.247c-0.437-0.874-0.656-1.53-0.656-1.53s0.219-0.438,0.875-0.875
			c1.093-0.437,1.967-0.437,1.967-1.312c0.219-3.715-2.623-6.338-2.623-6.338c0.437-0.219,1.093,0,1.967,0
			c0.874,0.219,0.874-0.219,0.874-0.219c-1.312-3.934-5.464-6.557-5.464-6.557c0.656-0.437,1.53,0,2.186,0.219s1.311,0,1.311,0
			c-0.655-2.404-2.404-4.153-4.808-5.464s-4.153-1.312-4.372-1.312c-0.219,0,0,0.219,0,0.437c0.218,0.219,1.312,0.656,2.186,1.53
			c1.093,1.093,1.312,1.53,1.312,1.53s0.219,0.656-0.875,1.312c-1.093,0.875-2.186,1.53-2.186,1.749
			c-0.219,0.219,0,0.438,0.219,0.656c0.218,0.219,1.53,0.875,3.278,2.186c1.53,1.311,2.186,2.186,1.749,2.404
			c-0.437,0.218-1.53,0.437-1.311,1.093c0.218,0.656,1.311,1.093,1.967,1.749s1.53,1.312,0.656,3.497
			c-0.437,1.312-1.312,1.749-1.967,1.749c-0.655,0-1.093,0-1.093,0.219c0.219,0.218,1.312,2.404,0.656,3.497
			c-0.437,1.093-1.093,1.749-2.404,1.53c-0.656,0-0.874,0-0.656,0.219c0.219,0.218,1.312,1.749,0.875,3.934
			c-0.219,1.312-1.312,1.53-2.186,1.093c-0.437-1.311-1.093-2.404-1.53-3.715c-0.219-0.438-0.656-0.656-1.093-0.438
			c-0.437,0.219-0.656,0.656-0.437,1.093c0.218,0.218,0.218,0.655,0.437,0.874c0.437,0.875,0.656,1.53,1.093,2.404
			c0,0.875,0,1.967-0.219,2.841c-0.218,1.312-1.311,1.749-1.967,0.219s-1.312-3.497-1.312-3.934c0-0.219-1.093,0.218-1.093,0.655
			c0,0.438-0.437,3.06-1.53,3.279c-0.437,0.219-0.874-0.875-0.874-1.967c0-1.312,0.656-3.497-0.875-4.59
			c-0.437-0.219-0.656-0.437-1.093-0.219c-0.437,0-0.656,0.438-0.656,0.438c-0.218,3.497-1.093,5.464-1.093,5.464
			s1.53-1.53,1.53-0.655c0,0.874,0.219,3.497,1.093,4.59c0.874,1.093,1.749,1.53,2.623,1.53c0.219,0-0.218-0.874,1.093-2.186
			c0.219-0.437,0.656-0.656,0.656-0.219c0,0.438,0.656,2.186,2.623,2.186c1.53,0,2.404-1.093,2.841-2.404
			c3.716,11.147,3.279,21.857-0.656,29.069c4.809-7.212,5.464-18.797,1.53-30.818c1.093-0.438,3.06,0,3.934-1.749v-0.219
			c5.027,10.273,6.12,20.546,3.279,28.195c3.715-7.868,2.841-19.453-2.842-30.6c0-0.875-0.437-1.312-0.437-1.312
			s1.312-0.874,2.841-0.874c0.438,0,0.656-0.219,0.875-0.438c6.557,9.617,9.18,20.109,7.431,28.196
			C184.693,383.76,181.852,371.739,174.42,361.247"/>
		<path fill="#FFFFFF" d="M126.553,333.926c0.656,0.218,0.875,0.656,0.438,1.53c-0.438,0.875-1.093,1.312-2.186,1.312
			c-2.186,0.219-3.934-1.312-8.087-1.093c-2.404,0-5.027,0.437-7.213,1.53c-2.186,1.093-2.623,1.53-2.841,1.53
			c0,0,0-0.438,0.218-0.656c0.875-0.875,4.809-3.716,10.929-4.809C122.619,332.614,125.46,333.27,126.553,333.926"/>
		<path fill="#FFFFFF" d="M123.056,337.642c0.219,0,0.219,0,0.437,0.218c0,0.219,0.219,1.093,0,2.186
			c-0.437,1.093-0.874,1.967-1.967,3.06c-1.312,0.875-3.497,0.656-4.372-1.093c-1.312-1.967-0.656-5.027,1.312-5.464
			c0.874-0.218,1.093,0.438,1.093,0.875c0.219,0.874-0.437,1.312,0,1.967s1.312,0.874,2.186,0c0.875-0.875,0.875-1.093,1.093-1.312
			C122.837,337.86,122.837,337.642,123.056,337.642"/>
		<path fill="#FFFFFF" d="M152.563,360.373c-0.219-0.438-0.656-0.438-0.656,0.218c0,1.093-0.219,1.749-1.093,2.841
			c-0.656,1.093-1.093,0.219-1.53,0.656c-1.53,1.093-0.874,3.716-0.874,5.027s-0.438,2.623-0.875,2.404
			c-0.874-0.437-1.53-2.186-1.53-2.623c-0.219-1.093-1.093-1.093-1.093-0.656c-0.438,1.53-1.749,4.809-2.404,6.339
			c-0.438,0.874-1.093,0-1.312-0.875c0.656-1.967,1.53-3.715,2.404-5.683c0.218-0.437,0.218-0.656,0.437-1.093
			c0.219-0.438,0-0.875-0.437-1.093c-0.438-0.218-0.875,0-1.093,0.438c-1.53,3.06-2.623,6.12-3.498,8.961
			c-0.655,1.311-1.53,2.404-2.404,3.497c-0.655,0.656-1.53-3.06-3.06-1.093c-0.438,0.656-1.967,2.623-2.623,3.497
			c0,0.218-0.219,0.218-0.219,0.218c1.312-3.497,3.06-6.994,5.246-10.491c0.218-0.219,0.437-0.656,0.655-0.874
			c0.219-0.438,0.219-0.875-0.218-1.093c-0.437-0.218-0.875-0.218-1.093,0.219c-1.967,3.06-3.716,6.338-5.027,9.398
			c-0.437-1.53-1.967,0-2.623,0.875c-0.655,0.874-1.53,2.186-1.749,1.53c0,0-0.218-0.437-0.218-0.874
			c0-0.656-0.656-0.875-1.312-0.875c1.093-1.967,2.623-4.153,4.153-6.12c0.219-0.218,0.437-0.437,0.656-0.655
			c0.219-0.219,0.219-0.875-0.219-1.093c-0.218-0.218-0.874-0.218-1.093,0.219c-1.967,2.623-3.716,5.246-5.027,7.869
			c-0.656,0.218-1.093,0.218-1.53,0.437c-1.312,0.437-2.841,0.875-2.841,0.875c0-0.656,0-1.312-0.656-1.749
			c-0.656-0.655-3.279,0-4.372-0.218c-1.093-0.219-1.093-0.437-1.093-0.875c0.437-1.53-0.874-2.186-2.404-2.404
			c-1.53-0.437-2.186-0.656-2.186-0.656c0.437-1.53-1.749-2.404-3.06-3.06s-2.841-1.53-2.841-1.53l-0.219-1.093
			c-0.219-1.53-1.967-1.967-3.06-3.06c-1.093-0.874-1.53-2.623-1.53-2.623s0,0.219,0.437,1.749c0.437,1.53,1.749,2.404,2.186,3.497
			c0.438,1.093-0.218,1.967-0.218,1.967c1.093,0.875,2.186,1.53,3.934,2.404c1.749,1.093,0.437,1.967,0.437,1.967
			c1.093,0.875,2.842,1.749,4.59,2.186c1.749,0.656,0.218,1.967,0.218,1.967c1.967,0.875,4.372,1.749,5.683,1.749
			s0.437,1.967,0.437,1.967c1.312,0.437,2.404,0.219,5.464-0.656c0.437,0,0.656-0.219,0.874-0.219
			c-3.497,8.306-4.153,16.393-1.749,22.513c-1.967-6.12-0.655-14.426,3.06-22.294c0.875,0.219,0.656,1.093,0.656,1.53
			c-0.218,0.656,0,1.53,0.437,1.312c2.623-1.093,4.372-3.497,5.027-3.497c0.219,0,0.219,0.219,0.437,0.437
			c-2.841,9.18-2.841,17.923,0.438,24.043c-2.186-5.684-2.186-13.333,0-21.202c1.749-0.875,2.186-2.186,3.278-3.06
			c1.093-0.875,1.53-0.438,1.53,0.218c0.218,0.875-0.438,2.404,0.437,1.967c1.093-0.437,1.967-1.093,2.623-1.749
			c-1.53,9.836-0.218,18.797,3.935,24.917c-3.935-6.995-4.59-17.268-1.749-28.196c0.218-0.437,0.218-0.655,0.437-0.874
			c0.219-0.656,0.656,0.219,0.656,1.093c0,0.875,0.219,1.53,0.656,1.093c2.841-1.312,4.59-5.901,4.809-6.775
			c0-0.438,0.218-0.219,0.656,0.218c1.312,1.093,0.874,2.186,1.312,2.186c0.874,0,1.53-0.656,2.404-1.749
			c0.656-1.312,0.656-4.153,0.656-5.027s1.53,0.656,1.53,0.656s1.093-1.967,1.093-5.464C153.437,361.903,153,360.81,152.563,360.373
			"/>
		<path fill="#FFFFFF" d="M128.739,382.23c0-0.219-0.219-0.437-0.438-0.437c0,0-0.218,0-0.218,0.218
			c0.218,0.219,0.437,0.438,0.437,0.656C128.739,382.449,128.739,382.449,128.739,382.23"/>
		<path fill="#FFFFFF" d="M112.127,377.858c-0.218,0.656,0,0.875,1.093,0.875c0.655,0,1.749,0,2.841,0
			c-1.312-0.656-2.623-1.312-3.935-1.967C112.127,377.203,112.346,377.64,112.127,377.858"/>
		<path fill="#FFFFFF" d="M118.903,380.7c-0.219-0.219-0.656-0.438-0.874-0.656c0,0.218,0.218,0.656,0,0.874
			C118.247,380.918,118.466,380.7,118.903,380.7"/>
		<path fill="#FFFFFF" d="M127.208,388.35c0.437-1.967,0.875-3.716,1.312-5.683c-0.219-0.218-0.437-0.437-0.437-0.656
			c-0.656,0.438-1.967,1.749-3.935,2.842C125.241,385.946,126.334,387.257,127.208,388.35"/>
		<path fill="#FFFFFF" d="M130.269,384.416c-0.437,0.219-0.656,0.656-1.093,0.875c-0.437,1.53-0.656,2.841-0.875,4.372
			c4.59,6.12,7.432,13.77,7.432,22.076c0.218-0.219,0.437-0.219,0.656-0.438c1.312-0.655,2.841-0.874,4.153-0.437
			c0-1.749-0.219-3.279-0.437-5.027c-1.749-3.279-3.06-7.213-3.279-11.584C134.858,390.754,132.892,387.476,130.269,384.416"/>
		<path fill="#FFFFFF" d="M104.04,374.58c0-0.437,0-0.875-0.875-1.312c-1.749-1.093-3.06-1.749-3.934-2.404
			c0,0,0.437-0.656,0.437-1.53c-0.874,0-1.53-0.219-2.404-0.219c-9.398,0-17.923,3.06-24.917,7.869
			c2.404,0.874,2.186,3.06,1.749,4.809c6.557-4.809,14.426-7.869,23.168-7.869C99.45,373.924,101.854,374.143,104.04,374.58"/>
		<path fill="#FFFFFF" d="M59.014,418.513c-1.53,1.312-3.278,1.53-4.809,0.874c3.497,20.546,21.202,36.283,42.84,36.283
			c7.868,0,15.081-2.186,21.638-5.683c-0.655-1.093-0.874-3.061-0.218-5.465c-6.12,3.935-13.333,6.339-21.202,6.339
			C78.03,451.08,62.074,436.873,59.014,418.513"/>
		<path fill="#FFFFFF" d="M50.708,412.611c-1.967-0.438-3.934-0.219-5.246,0c-3.06,0.438-4.809,0.874-4.809,0.874
			s0.437-0.874,0.875-1.312c0.218-0.655-0.438-0.655-0.656-0.655c-0.219,0-2.623,0-4.59,0.438c-1.967,0.218-4.153-0.219-4.153-0.219
			c0.438-0.438,0.656-1.093,0.875-1.312c0-0.219,0-0.438-0.437-0.656c-0.438-0.218-1.53-0.655-3.716-0.218
			c-4.59,0.874-5.901-0.875-5.901-0.875s0.218-2.404,1.311-5.901c1.53-5.464,3.498-8.087,3.716-8.524
			c0.219-0.219-0.218-0.656-0.437-0.656s-2.404,0.219-2.404,0.219s1.093-3.06,3.716-7.869c2.404-4.809,3.278-6.776,3.497-7.65
			c0.437-1.53-1.967-0.875-1.967-0.875s0.875-1.749,2.404-3.497c1.312-1.967,3.279-3.934,3.716-4.153
			c0.219-0.437,0-0.437-0.219-0.437c-0.218,0-1.53,0-1.53,0s0.874-1.312,3.278-3.279s3.498-2.841,3.716-2.841
			c0.437-0.437,0.437-0.656,0-0.875c-0.218,0-0.874-0.437-0.874-0.437s0.656-0.656,3.06-1.749c2.186-0.875,3.935-1.312,4.372-1.312
			c0.437-0.219,0.219-0.437,0.219-0.437c0-0.219-1.093-0.875-1.093-0.875s0.656-0.437,2.841-1.53s4.372-1.312,4.372-1.312
			s-2.623-0.656-9.18,1.53c-5.246,1.749-7.432,3.497-7.432,3.497s0.875-0.219,1.749-0.219c0.875,0,1.53,0,1.53,0
			s-3.06,1.53-5.901,3.279c-2.841,1.967-3.497,2.623-3.497,2.623s0.874-0.218,1.53-0.218c0.875,0,1.53-0.219,1.53-0.219
			s-3.06,2.404-5.464,5.027c-2.186,2.623-2.842,3.934-2.842,3.934s0.875-0.437,1.967-0.656s1.53,0,1.53,0s-0.875,1.53-2.404,3.278
			c-1.53,1.749-2.623,3.498-3.279,5.027c-0.656,1.53-0.874,2.186-0.874,2.186s0.874,0,1.749-0.655
			c0.874-0.656,1.53-0.656,1.53-0.656s-3.716,8.087-4.59,12.677c-0.438,1.749-0.656,3.279-1.312,4.372c0,0,1.093-0.219,1.749-0.874
			c0.875-0.656,0.875-0.656,0.875-0.656s-2.623,6.994-2.186,11.147c0,0.219,3.279,2.404,6.12,1.749c0,0-0.219,0.437-1.749,0.874
			c-1.53,0.219-2.186,1.093-2.186,1.093c1.749,0,4.59,1.093,7.65,1.312s5.464-0.219,5.464-0.219s-0.219,0.438-1.312,0.874
			c-1.312,0.656-2.623,0.656-2.623,0.656s0.437,0.437,1.312,0.655c1.093,0.219,3.497,0.219,6.338-0.437
			c2.623-0.656,4.372-0.438,7.213-0.656c2.623,0,3.279,1.967,4.59,3.497c0.437,0.438,1.093,0.874,1.749,1.093
			c-0.219-1.312-0.438-2.623-0.438-3.934C52.457,414.578,52.239,412.83,50.708,412.611"/>
		<path fill="#FFFFFF" d="M140.979,407.584c-0.437-0.655-0.656-1.529-1.093-2.186c0,0.219,0,0.438,0.219,0.656
			C140.323,406.491,140.542,407.147,140.979,407.584"/>
		<path fill="#FFFFFF" d="M123.056,383.979v0.219c-0.219,0.656,0,1.53,0.437,1.312c0.219-0.219,0.438-0.219,0.875-0.438
			C123.711,384.634,123.274,384.197,123.056,383.979"/>
		<path fill="#FFFFFF" d="M129.176,406.491c-1.967-4.59-2.186-10.491-0.875-16.83c-0.218-0.438-0.656-0.875-0.874-1.312
			C125.897,395.344,126.553,401.683,129.176,406.491"/>
		<path fill="#FFFFFF" d="M117.373,379.17c-0.219-0.219-0.875-0.219-1.53-0.219c0.656,0.438,1.312,0.875,2.186,1.312
			C118.029,379.826,117.81,379.389,117.373,379.17"/>
		<path fill="#FFFFFF" d="M90.27,411.081c-0.437,0-0.875,0-1.312,0.219c-1.53,0.438-2.623,1.968-2.623,3.716
			c0,2.186,1.749,3.935,3.934,3.935c0.875,0,1.749-0.219,2.404-0.874c0.874-0.656,1.53-1.749,1.53-3.061
			C94.204,412.83,92.456,411.081,90.27,411.081"/>
		<path fill="#FFFFFF" d="M113.22,423.321l-0.656-0.655l-0.219-0.875l-0.437-0.437v-0.219h-0.219v-0.219v-0.219l-3.06-3.06
			l-0.656-0.656l-3.497-3.497l-1.967-1.748l-1.749-1.53l-2.186-1.748l-0.437-0.438l-0.656-0.656l-0.875-0.655l-0.437-0.655v-10.929
			h-12.24v0.438v0.218V396l0.218,0.219v0.219v0.437l0.219,0.219l0,0l0.218,0.219v0.219l-0.218,0.437v0.219l0,0v0.219l0.218,0.438
			l-0.655,1.529l-0.219,0.438v0.219v0.219v0.218v0.219l0,0l0.437,0.438l0.219,0.219v0.218l0.218,0.219l0.219,0.438v0.219
			l0.219,0.219v0.218v0.219v0.438v0.219v0.218v0.438v0.219l0.218,0.438l0.219,0.437l-0.219,0.438v0.219l0.219,0.218l0.219,0.219
			l0.218,0.219l0,0h0.219l0.218,0.219l0.219,0.438l0.219,0.218l0.437,0.219l0.219,0.438l0,0l0.218,0.219l0,0
			c0.219,0,0.219-0.219,0.438-0.219c0.655-0.219,1.53-0.438,2.404-0.438c3.716,0,6.776,3.061,6.776,6.775
			c0,2.187-1.093,4.153-2.623,5.465v0.219v0.219l0,0l0.218,0.218v0.219v0.219l-0.218,0.438v0.218h0.437l0.218,0.219h1.312h0.219
			h0.656h0.218l0.438,0.219l0.218,0.438h0.219l0.219,0.437l0.218,0.219l0.437,0.219l0,0h0.438l0,0h0.656l0.218,0.219l0.219,0.655
			l0,0v0.219l0.437,0.219v-0.219h0.219h0.218l0.438,0.438l0.218,0.218h0.219l0.437,0.438l0.219,0.219l0.437,0.438l0.656,1.093v0.437
			v0.219l0.219,0.219l0,0v0.219l0,0l0.218-0.219l0,0l0.219,0.219v0.219l-0.219-0.219l0,0l0,0l0.219,0.219v0.218l2.841-0.218
			l3.935-0.438h0.437h0.218v-0.219l0.219-0.219v-0.437l-0.219-0.219h-0.437h-0.218v-0.219v-0.438l-0.438-0.874V426.6v-0.218l0,0
			l0.219-0.219l0,0h0.219l0.218-0.219v-0.219v-0.219v-0.655l0.219-0.219l0,0v-0.219L113.22,423.321L113.22,423.321L113.22,423.321z"
			/>
	</g>
</g>
</svg>
