<?xml version="1.0" encoding="utf-8"?>
<!-- Generator: Adobe Illustrator 20.1.0, SVG Export Plug-In . SVG Version: 6.00 Build 0)  -->
<svg version="1.1" id="Layer_1" xmlns="http://www.w3.org/2000/svg" xmlns:xlink="http://www.w3.org/1999/xlink" x="0px" y="0px"
	 viewBox="0 0 569.4 126.8" style="enable-background:new 0 0 569.4 126.8;" xml:space="preserve">
<style type="text/css">
	.st0{display:none;}
	.st1{display:inline;}
	.st2{fill:#FFFFFF;}
	.st3{fill:#1F346B;}
</style>
<g id="White" class="st0">
	<g class="st1">
		<path class="st2" d="M212.7,341.7c-0.7-2-2-3.5-4.4-3.5c-3.1,0-4.8,2.8-4.8,8.3s1.5,8.3,5,8.3c2,0,3.3-0.7,4.6-3.5l4.2,1.1
			c-1.3,4.2-4.6,6.1-8.7,6.1c-6.1,0-9.4-4.4-9.4-12.2c0-7.6,3.5-12.2,9.4-12.2c4.6,0,7.2,2,8.3,6.1L212.7,341.7L212.7,341.7z"/>
		<path class="st2" d="M230.2,358.5L230,357c-1.5,1.1-3.3,1.7-5.2,1.7c-3.1,0-4.6-2.2-4.6-4.6c0-3.9,3.1-5.9,9.8-6.8v-1.5
			c0-1.3-1.1-2-2.4-2c-2,0-2.8,1.1-3.7,2.2l-2.6-2c1.1-1.7,3.9-3.3,6.3-3.1c4.6,0,6.6,1.7,6.6,6.8v8.1c0,0.9,0,1.7,0.4,2.4h-4.4
			L230.2,358.5L230.2,358.5z M229.7,350.2c-2.6,0.4-5.7,1.1-5.7,3.5c0,1.3,0.9,2,2,2c1.3,0,2.8-1.1,3.7-1.7V350.2z"/>
		<rect x="238.7" y="334.9" class="st2" width="4.2" height="23.6"/>
		<path class="st2" d="M247.9,334.5h4.2v3.7h-4.2V334.5z M252,358.5h-4.2v-17h4.2V358.5z"/>
		<path class="st2" d="M261.8,344.7v13.8h-4.2v-13.8h-2.4v-3.3h2.4v-2.2c0-3.7,1.5-4.8,4.8-4.8h2.6v3.3h-1c-1.7,0-2.2,0.4-2.2,1.7
			v1.7h3.5v3.3h-3.5V344.7L261.8,344.7z"/>
		<path class="st2" d="M275,341c4.6,0,7.4,3.5,7.4,8.7s-2.8,8.7-7.4,8.7s-7.4-3.5-7.4-8.7C267.5,344.5,270.4,341,275,341 M275,344.2
			c-2.2,0-3.3,1.7-3.3,5.5s1.1,5.5,3.3,5.5s3.3-1.7,3.3-5.5C278.2,346,277.1,344.2,275,344.2"/>
		<path class="st2" d="M285.9,358.5v-17h3.7v2.8c0.9-2,2.4-3.3,4.8-3.3v4.4h-0.7c-2,0-3.7,2.4-3.7,2.8v10.3H285.9L285.9,358.5z"/>
		<path class="st2" d="M297.7,358.5v-17h3.7v1.7c1.5-1.1,3.3-2.2,5.2-2.2c3.5,0,5,2.2,5,5.7v11.6h-4.2v-11.1c0-2.2-0.7-3.1-2.2-3.1
			c-1.7,0-3.1,1.1-3.7,1.7V358h-3.9v0.5H297.7z"/>
		<path class="st2" d="M316.7,334.5h4.2v3.7h-4.2V334.5L316.7,334.5z M320.9,358.5h-4.2v-17h4.2V358.5L320.9,358.5z"/>
		<path class="st2" d="M334.6,358.5l-0.2-1.5c-1.5,1.1-3.3,1.7-5.2,1.7c-3.1,0-4.6-2.2-4.6-4.6c0-3.9,3.1-5.9,9.8-6.8v-1.5
			c0-1.3-1.1-2-2.4-2c-2,0-2.8,1.1-3.7,2.2l-2.6-2c1.1-1.7,3.9-3.3,6.3-3.1c4.6,0,6.6,1.7,6.6,6.8v8.1c0,0.9,0,1.7,0.4,2.4h-4.4
			L334.6,358.5L334.6,358.5z M334.2,350.2c-2.6,0.4-5.7,1.1-5.7,3.5c0,1.3,0.9,2,2,2c1.3,0,2.8-1.1,3.7-1.7V350.2L334.2,350.2z"/>
		<path class="st2" d="M366.3,341c-0.7-1.7-2.2-3.1-4.2-3.1s-3.3,0.9-3.3,2.6c0,4.2,12.2,3.3,12.2,10.9c0,4.8-3.1,7.2-8.3,7.2
			c-3.9,0-7.4-2.2-8.7-5.7l3.7-1.5c1.1,2.2,2.4,3.7,5.2,3.7c2.2,0,3.9-0.9,3.9-3.1c0-4.6-12.2-3.7-12.2-10.9c0-4.2,3.5-6.6,7.6-6.6
			c3.7,0,7,2,8.3,5.2L366.3,341z"/>
		<path class="st2" d="M375.5,341.5v-5.7h4.2v5.7h3.3v3.3h-3.3v9.6c0,0.9,0.4,1.1,1.5,1.1c0.7,0,1.3-0.2,2-0.4v3.3
			c-1.1,0.2-2.2,0.2-3.3,0.2c-3.1,0-4.2-1.5-4.2-3.9v-10.1h-2.4v-3.3h2.2L375.5,341.5L375.5,341.5z"/>
		<path class="st2" d="M395.8,358.5l-0.2-1.5c-1.5,1.1-3.3,1.7-5.2,1.7c-3.1,0-4.6-2.2-4.6-4.6c0-3.9,3.1-5.9,9.8-6.8v-1.5
			c0-1.3-1.1-2-2.4-2c-2,0-2.8,1.1-3.7,2.2l-2.6-2c1.1-1.7,3.9-3.3,6.3-3.1c4.6,0,6.6,1.7,6.6,6.8v8.1c0,0.9,0,1.7,0.4,2.4h-4.4
			L395.8,358.5L395.8,358.5z M395.4,350.2c-2.6,0.4-5.7,1.1-5.7,3.5c0,1.3,0.9,2,2,2c1.3,0,2.8-1.1,3.7-1.7V350.2L395.4,350.2z"/>
		<path class="st2" d="M404.8,341.5v-5.7h4.2v5.7h3.3v3.3H409v9.6c0,0.9,0.4,1.1,1.5,1.1c0.7,0,1.3-0.2,2-0.4v3.3
			c-1.1,0.2-2.2,0.2-3.3,0.2c-3.1,0-4.2-1.5-4.2-3.9v-10.1h-2.4v-3.3h2.2L404.8,341.5L404.8,341.5z"/>
		<path class="st2" d="M418.6,350.5c0,3.5,1.5,4.8,3.5,4.8s2.8-0.9,3.7-2l2.8,1.7c-1.5,2.4-3.9,3.5-7.2,3.5c-4.4,0-7.2-3.5-7.2-8.7
			c0-5.5,2.8-8.7,7.4-8.7c4.4,0,7,3.7,7,7.9v1.5H418.6L418.6,350.5z M425.1,347.8c0-2.4-1.3-3.7-3.3-3.7s-3.3,1.3-3.3,3.7H425.1z"/>
		<path class="st2" d="M458.8,334.9h4.6v14.9c0,7-4.2,9.2-9,9.2s-9.2-2.2-9.2-9.2v-14.9h4.6V350c0,3.9,1.5,5.2,4.6,5.2
			s4.6-1.3,4.6-5.2v-15.1H458.8z"/>
		<path class="st2" d="M468.6,358.5v-17h3.7v1.7c1.5-1.1,3.3-2.2,5.2-2.2c3.5,0,5,2.2,5,5.7v11.6h-4.2v-11.1c0-2.2-0.7-3.1-2.2-3.1
			c-1.7,0-3.1,1.1-3.7,1.7V358h-3.9L468.6,358.5L468.6,358.5z"/>
		<path class="st2" d="M487.6,334.5h4.2v3.7h-4.2V334.5z M491.6,358.5h-4.2v-17h4.2V358.5L491.6,358.5z"/>
		<polygon class="st2" points="495.1,341.5 499,341.5 501.8,353 501.8,353 504.9,341.5 508.8,341.5 504,358.5 499.7,358.5 		"/>
		<path class="st2" d="M514.5,350.5c0,3.5,1.5,4.8,3.5,4.8s2.8-0.9,3.7-2l2.8,1.7c-1.5,2.4-3.9,3.5-7.2,3.5c-4.4,0-7.2-3.5-7.2-8.7
			c0-5.5,2.8-8.7,7.4-8.7c4.4,0,7,3.7,7,7.9v1.5H514.5L514.5,350.5z M521.1,347.8c0-2.4-1.3-3.7-3.3-3.7s-3.3,1.3-3.3,3.7H521.1z"/>
		<path class="st2" d="M528.7,358.5v-17h3.7v2.8c1.1-2,2.4-3.3,4.8-3.3v4.4h-0.7c-2,0-3.7,2.4-3.7,2.8v10.3H528.7L528.7,358.5z"/>
		<path class="st2" d="M549.3,345.8c-0.9-0.9-2-1.7-3.3-1.7c-1.5,0-2.2,0.7-2.2,1.7c0,2.8,8.5,1.7,8.5,7.9c0,3.5-2.6,5-6.3,5
			c-2.6,0-5-1.3-6.6-3.5l2.6-2c0.9,1.3,2.2,2.4,3.9,2.4c1.5,0,2.4-0.9,2.4-2c0-2.8-8.5-2-8.5-7.9c0-3.3,2.6-5,5.7-5
			c2.2,0,4.6,0.9,5.9,2.6L549.3,345.8z"/>
		<path class="st2" d="M556.3,334.5h4.2v3.7h-4.2V334.5z M560.4,358.5h-4.2v-17h4.2V358.5z"/>
		<path class="st2" d="M566.1,341.5v-5.7h4.2v5.7h3.3v3.3h-3.3v9.6c0,0.9,0.4,1.1,1.5,1.1c0.7,0,1.3-0.2,2-0.4v3.3
			c-1.1,0.2-2.2,0.2-3.3,0.2c-3.1,0-4.2-1.5-4.2-3.9v-10.1h-2.4v-3.3h2.2V341.5L566.1,341.5z"/>
		<path class="st2" d="M575.9,361c0.7,0.2,1.1,0.2,1.7,0.2c1.3,0,2.2-0.4,2.6-1.3c0.4-0.9,0.7-1.3,0.7-2s-0.4-1.3-0.4-2l-4.6-14.6
			h4.2l2.8,10.5l2.8-10.5h4.2l-5.5,17c-1.7,4.8-3.3,6.1-6.6,6.1c-1.1,0-1.5,0-2-0.2L575.9,361L575.9,361z"/>
		<polygon class="st2" points="200.2,413.2 200.2,375.5 210.3,375.5 217.5,401.8 217.5,401.8 224.7,375.5 235,375.5 235,413.2 
			228.6,413.2 228.6,383.5 228.6,383.5 220.1,413.2 214.9,413.2 206.6,383.5 206.3,383.5 206.3,413.2 		"/>
		<path class="st2" d="M258.1,413.5c-10.3,0-15.7-7-15.7-19.2s5.5-19.2,15.7-19.2c10.3,0,15.7,7,15.7,19.2
			C273.9,406.5,268.2,413.5,258.1,413.5 M258.1,381c-5.9,0-8.5,4.4-8.5,13.3c0,8.7,2.6,13.3,8.5,13.3s8.5-4.4,8.5-13.3
			C266.7,385.5,264,381,258.1,381"/>
		<polygon class="st2" points="281.3,413.2 281.3,375.5 288.7,375.5 303.4,401 303.6,401 303.6,375.5 310.2,375.5 310.2,413.2 
			303.4,413.2 288.1,386.5 287.9,386.5 287.9,413.2 		"/>
		<polygon class="st2" points="343.4,375.5 343.4,381.7 333.5,381.7 333.5,413.2 326.5,413.2 326.5,381.7 316.7,381.7 316.7,375.5 
					"/>
		<polygon class="st2" points="349.9,413.2 349.9,375.5 374.6,375.5 374.6,381.7 357.1,381.7 357.1,390.5 369.8,390.5 369.8,396.5 
			357.1,396.5 357.1,407 375.3,407 375.3,413.2 		"/>
		<path class="st2" d="M382.1,413.2v-37.6H397c8.5,0,12,5,12,11.1c0,4.6-2.2,8.3-6.8,9.6l8.3,16.6h-7.9l-7-15.3h-6.1v15.3h-7.4
			V413.2L382.1,413.2z M389.3,392h5.2c5.7,0,7.2-1.7,7.2-5.2s-2.2-5.2-6.1-5.2H389V392L389.3,392L389.3,392z"/>
		<polygon class="st2" points="417.5,413.2 417.5,375.5 442.4,375.5 442.4,381.7 424.7,381.7 424.7,390.5 437.6,390.5 437.6,396.5 
			424.7,396.5 424.7,407 442.8,407 442.8,413.2 		"/>
		<polygon class="st2" points="461.6,390.4 468,375.5 475.4,375.5 465.1,398 465.1,413.2 457.9,413.2 457.9,398 447.6,375.5 
			455.1,375.5 		"/>
		<path class="st2" d="M500.5,375.5h14c7.4,0,12.2,2.4,12.7,9.2c0,3.9-1.5,7-5.7,8.5c4.8,2,6.6,4.2,6.6,9.8c0,5.9-4.2,9.8-13.6,9.8
			h-14V375.5z M507.7,390.5h7.2c3.5,0,5-2,5-4.6c0-2.6-1.7-4.6-5-4.6h-7.2V390.5L507.7,390.5z M507.7,407.2h7.2c4.2,0,5.9-2,5.9-5.5
			s-1.7-5.5-5.9-5.5h-7.2V407.2L507.7,407.2z"/>
		<path class="st2" d="M543.4,375.5h9l10.7,37.6h-7.2l-2-8.1h-11.8l-2.2,8.1h-7.2L543.4,375.5z M543.6,399.2h8.7l-4.2-16.4
			L543.6,399.2z"/>
		<polygon class="st2" points="576.4,390.4 582.7,375.5 590.1,375.5 579.9,398 579.9,413.2 572.9,413.2 572.9,398 562.4,375.5 
			569.8,375.5 		"/>
		<polygon class="st2" points="200.4,442.2 200.4,425.5 211.6,425.5 211.6,428.2 203.7,428.2 203.7,432.2 209.4,432.2 209.4,435 
			203.7,435 203.7,439.5 211.8,439.5 211.8,442.2 		"/>
		<polygon class="st2" points="217.3,436 214,430.2 217,430.2 218.8,433.7 220.5,430.2 223.6,430.2 220.3,436 223.8,442.2 
			220.8,442.2 218.8,438.5 216.8,442.2 213.8,442.2 		"/>
		<path class="st2" d="M227.1,430.2v-3.9h2.8v3.9h2.4v2.4h-2.4v6.8c0,0.7,0.2,0.9,1.1,0.9c0.4,0,0.9-0.2,1.3-0.2v2.4
			c-0.9,0-1.5,0.2-2.2,0.2c-2.2,0-3.1-1.1-3.1-2.8v-7.2h-1.7v-2.4L227.1,430.2L227.1,430.2z"/>
		<path class="st2" d="M234.7,442.2v-12h2.6v2c0.7-1.5,1.7-2.2,3.5-2.4v3.1h-0.4c-1.5,0-2.6,1.7-2.6,2v7.4L234.7,442.2L234.7,442.2z
			"/>
		<path class="st2" d="M249.6,442.2l-0.2-1.1c-1.1,0.9-2.2,1.3-3.7,1.3c-2.2,0-3.3-1.5-3.3-3.3c0-2.8,2.2-4.2,7-4.8v-0.7
			c0-0.9-0.7-1.5-1.7-1.5c-1.3,0-2.2,0.7-2.6,1.5l-1.7-1.3c0.7-1.3,2.8-2.2,4.6-2.2c3.3,0,4.6,1.3,4.6,4.8v5.7c0,0.7,0,1.3,0.2,1.7
			h-3.1L249.6,442.2L249.6,442.2z M249.2,436.5c-2,0.4-3.9,0.9-3.9,2.4c0,0.9,0.7,1.3,1.3,1.3c0.9,0,2-0.9,2.6-1.3L249.2,436.5
			L249.2,436.5z"/>
		<path class="st2" d="M259.9,430c3.3,0,5.2,2.4,5.2,6.3c0,3.9-2,6.3-5.2,6.3c-3.3,0-5.2-2.4-5.2-6.3
			C254.6,432.4,256.6,430,259.9,430 M259.9,432.4c-1.5,0-2.4,1.3-2.4,3.9c0,2.6,0.9,3.9,2.4,3.9s2.4-1.3,2.4-3.9
			C262.3,433.7,261.6,432.4,259.9,432.4"/>
		<path class="st2" d="M267.8,442.2v-12h2.6v2c0.7-1.5,1.7-2.2,3.5-2.4v3.1h-0.4c-1.5,0-2.6,1.7-2.6,2v7.4L267.8,442.2L267.8,442.2z
			"/>
		<path class="st2" d="M286.3,442.2h-2.4l-0.2-1.3c-1.1,1.1-2,1.5-3.3,1.5c-3.3,0-4.8-2.8-4.8-6.6c0-3.1,1.7-5.9,4.8-5.9
			c0.9,0,2.4,0.7,2.8,1.3v-5.9h2.8V442h0.3V442.2z M283.5,433.2c-0.7-0.4-1.3-1.1-2.2-1.1c-1.7,0-2.6,1.3-2.6,3.9
			c0,2.6,0.9,3.9,2.6,3.9c1.3,0,1.5-0.7,2.2-1.1V433.2z"/>
		<path class="st2" d="M290,425.4h2.8v2.6H290V425.4z M292.9,442.2H290v-12h2.8v12H292.9z"/>
		<path class="st2" d="M296.4,442.2v-12h2.6v1.3c1.1-0.7,2.4-1.5,3.7-1.5c2.4,0,3.5,1.5,3.5,3.9v8.3h-2.8v-7.9
			c0-1.5-0.4-2.2-1.5-2.2c-1.3,0-2.2,0.7-2.6,1.3v8.7L296.4,442.2L296.4,442.2z"/>
		<path class="st2" d="M316.1,442.2l-0.2-1.1c-1.1,0.9-2.2,1.3-3.7,1.3c-2.2,0-3.3-1.5-3.3-3.3c0-2.8,2.2-4.2,7-4.8v-0.7
			c0-0.9-0.7-1.5-1.7-1.5c-1.3,0-2.2,0.7-2.6,1.5l-1.7-1.3c0.7-1.3,2.8-2.2,4.6-2.2c3.3,0,4.6,1.3,4.6,4.8v5.7c0,0.7,0,1.3,0.2,1.7
			L316.1,442.2L316.1,442.2L316.1,442.2z M315.8,436.5c-2,0.4-3.9,0.9-3.9,2.4c0,0.9,0.7,1.3,1.3,1.3c0.9,0,2-0.9,2.6-1.3V436.5z"/>
		<path class="st2" d="M322,442.2v-12h2.6v2c0.7-1.5,1.7-2.2,3.3-2.4v3.1h-0.4c-1.5,0-2.6,1.7-2.6,2v7.4L322,442.2L322,442.2z"/>
		<path class="st2" d="M329.6,444.2h1.3c1.1,0,1.5-0.2,2-0.9c0.2-0.7,0.4-0.9,0.4-1.3c0-0.4-0.2-0.9-0.4-1.5l-3.3-10.3h2.8l2,7.4
			l2-7.4h2.8l-3.7,12c-1.3,3.5-2.4,4.4-4.6,4.4h-1.3L329.6,444.2L329.6,444.2z"/>
		<path class="st2" d="M355.6,442.7c-4.6,0-7-3.1-7-8.5c0-5.4,2.4-8.5,7-8.5s7,3.1,7,8.5C362.8,439.4,360.2,442.7,355.6,442.7
			 M355.6,428c-2.6,0-3.9,2-3.9,5.9c0,3.9,1.1,5.9,3.9,5.9c2.6,0,3.9-2,3.9-5.9C359.5,430,358.2,428,355.6,428"/>
		<path class="st2" d="M365.7,430.2h2.8v1.1c0.9-0.9,1.7-1.3,3.1-1.3c3.3,0,4.8,2.8,4.8,6.6c0,3.1-1.7,5.9-4.8,5.9
			c-0.9,0-2.4-0.7-2.8-1.3v5.7H366v-16.6L365.7,430.2L365.7,430.2z M368.5,439.2c0.7,0.4,1.3,1.1,2.2,1.1c1.7,0,2.6-1.3,2.6-3.9
			c0-2.6-0.9-3.9-2.6-3.9c-1.3,0-1.5,0.7-2.2,1.1V439.2z"/>
		<path class="st2" d="M379.2,430.2h2.8v1.1c0.9-0.9,1.7-1.3,3.1-1.3c3.3,0,4.8,2.8,4.8,6.6c0,3.1-1.7,5.9-4.8,5.9
			c-0.9,0-2.4-0.7-2.8-1.3v5.7h-2.8v-16.6L379.2,430.2L379.2,430.2z M382.1,439.2c0.7,0.4,1.3,1.1,2.2,1.1c1.7,0,2.6-1.3,2.6-3.9
			c0-2.6-0.9-3.9-2.6-3.9c-1.3,0-1.5,0.7-2.2,1.1V439.2z"/>
		<path class="st2" d="M397.1,430c3.3,0,5.2,2.4,5.2,6.3c0,3.9-2,6.3-5.2,6.3c-3.3,0-5.2-2.4-5.2-6.3
			C391.9,432.4,393.9,430,397.1,430 M397.1,432.4c-1.5,0-2.4,1.3-2.4,3.9c0,2.6,0.9,3.9,2.4,3.9s2.4-1.3,2.4-3.9
			C399.5,433.7,398.9,432.4,397.1,432.4"/>
		<path class="st2" d="M405,442.2v-12h2.6v2c0.7-1.5,1.7-2.2,3.5-2.4v3.1h-0.4c-1.5,0-2.6,1.7-2.6,2v7.4L405,442.2L405,442.2z"/>
		<path class="st2" d="M414.6,430.2v-3.9h2.8v3.9h2.4v2.4h-2.4v6.8c0,0.7,0.2,0.9,1.1,0.9c0.4,0,0.9-0.2,1.3-0.2v2.4
			c-0.9,0-1.5,0.2-2.2,0.2c-2.2,0-3.1-1.1-3.1-2.8v-7.2h-1.7v-2.4L414.6,430.2L414.6,430.2z"/>
		<path class="st2" d="M432.3,430.2v12h-2.6v-1.3c-1.1,0.7-2.4,1.5-3.7,1.5c-2.4,0-3.5-1.5-3.5-3.9v-8.3h2.8v7.9
			c0,1.5,0.4,2.2,1.5,2.2c1.3,0,2.2-0.7,2.6-1.3v-8.7L432.3,430.2L432.3,430.2z"/>
		<path class="st2" d="M435.6,442.2v-12h2.6v1.3c1.1-0.7,2.4-1.5,3.7-1.5c2.4,0,3.5,1.5,3.5,3.9v8.3h-2.8v-7.9
			c0-1.5-0.4-2.2-1.5-2.2c-1.3,0-2.2,0.7-2.6,1.3v8.7L435.6,442.2L435.6,442.2z"/>
		<path class="st2" d="M449.2,425.4h2.8v2.6h-2.8V425.4z M452,442.2h-2.8v-12h2.8V442.2z"/>
		<path class="st2" d="M456.2,430.2v-3.9h2.8v3.9h2.4v2.4H459v6.8c0,0.7,0.2,0.9,1.1,0.9c0.4,0,0.9-0.2,1.3-0.2v2.4
			c-0.9,0-1.5,0.2-2.2,0.2c-2.2,0-3.1-1.1-3.1-2.8v-7.2h-1.5v-2.4L456.2,430.2L456.2,430.2z"/>
		<path class="st2" d="M463.4,444.2h1.3c1.1,0,1.5-0.2,2-0.9c0.2-0.7,0.4-0.9,0.4-1.3c0-0.4-0.2-0.9-0.4-1.5l-3.3-10.3h2.8l2,7.4
			l2-7.4h2.8l-3.7,12c-1.3,3.5-2.4,4.4-4.6,4.4h-1.3L463.4,444.2L463.4,444.2z"/>
		<path class="st2" d="M97,371.5c-18.1,0-32.8,14.6-32.8,32.8c0,18.2,14.6,32.8,32.8,32.8s32.8-14.6,32.8-32.8
			C129.6,386.2,115,371.5,97,371.5 M97,430.9c-14.6,0-26.4-11.8-26.4-26.4c0-14.6,11.8-26.4,26.4-26.4s26.4,11.8,26.4,26.4
			C123.7,418.8,111.7,430.9,97,430.9"/>
		<path class="st2" d="M22.7,400c0,0,1.5,1.7,5.9,0.9c2.2-0.4,3.3,0,3.7,0.2c0.4,0.2,0.4,0.4,0.4,0.7c0,0.4-0.4,1.1-0.9,1.3
			c0,0,2.2,0.7,4.2,0.2c2-0.4,4.4-0.4,4.6-0.4s0.9,0,0.7,0.7s-0.9,1.3-0.9,1.3s1.7-0.2,4.8-0.9c1.3-0.2,3.3-0.4,5.2,0
			c2,0.4,2,3.1,4.6,3.9s2.6-5.7,2.6-7.4c0-1.7,0.7-2.6,2-3.7c2.2-1.7,1.7-4.4,1.3-6.1c-0.2-1.7,3.3-3.7,4.4-5.7
			c0.9-2.2,0.2-4.4-0.2-5.2c-0.4-0.9,0.2-1.5,0.9-2.2c1.1-1.1,3.1-4.4,2.2-5.5c-0.9-1.1-5.2,0-9.8,4.4c-4.6,4.2-7.9,9.2-9.2,11.4
			c-0.2,0.2-0.4-0.2,0-1.1c0.2-0.9,2.8-7.2,8.1-12.2c5.2-5,10.1-7,13.8-5.9c3.7,0.9,3.1,3.9,2.4,5.7c-0.7,1.8-2.6,2.8-3.1,5
			c-0.4,2,0.2,3.5,0.4,5.5c0.2,2-0.4,3.3-2.2,5.2c-0.9,0.9-2.4,2.6-2.4,3.5c0,0.2,0.7,1.3-0.4,4.4c-1.1,3.1-3.7,3.9-3.7,4.8
			c0,0.9,0,5-2.6,7.4c-2.6,2.4-5.7,1.5-7,0s-2-3.5-4.6-3.5c-2.6,0.2-4.4,0-7.2,0.7c-2.6,0.7-5.2,0.7-6.3,0.4
			c-1.1-0.2-1.3-0.7-1.3-0.7s1.3-0.2,2.6-0.7c1.1-0.4,1.3-0.9,1.3-0.9s-2.6,0.4-5.5,0.2c-3.1-0.2-5.9-1.3-7.6-1.3
			c0,0,0.7-0.9,2.2-1.1s1.7-0.9,1.7-0.9c-3.1,0.7-6.3-1.3-6.3-1.5c-0.4-4.2,2-11.6,2-11.6s-0.2,0-0.9,0.7c-0.9,0.7-1.7,0.9-1.7,0.9
			c0.4-1.1,0.9-2.4,1.3-4.4c0.9-4.6,4.6-12.7,4.6-12.7s-0.7,0-1.5,0.7c-0.9,0.7-1.7,0.7-1.7,0.7s0.2-0.7,0.9-2.2s1.7-3.3,3.3-5
			c1.5-1.7,2.4-3.3,2.4-3.3s-0.4-0.2-1.5,0s-2,0.7-2,0.7s0.7-1.3,2.8-3.9c2.2-2.6,5.5-5,5.5-5s-0.7,0.4-1.5,0.2
			c-0.7,0-1.5,0.2-1.5,0.2s0.7-0.7,3.5-2.6c2.8-2,5.9-3.3,5.9-3.3s-0.7,0-1.5,0c-0.9,0-1.7,0.2-1.7,0.2s2.2-1.7,7.4-3.5
			c6.6-2.2,9.2-1.5,9.2-1.5s-2.2,0.2-4.4,1.3c-2.2,0.9-2.8,1.5-2.8,1.5s0.9,0.7,1.1,0.9c0,0.2,0.2,0.4-0.2,0.4
			c-0.4,0.2-2.2,0.4-4.4,1.3c-2.2,0.9-3.1,1.7-3.1,1.7s0.7,0.2,0.9,0.4c0.4,0.2,0.4,0.4,0,0.9c-0.2,0.2-1.1,0.9-3.7,2.8
			c-2.4,2-3.3,3.3-3.3,3.3s1.3,0,1.5,0s0.4,0.2,0.2,0.4c-0.2,0.4-2.2,2.4-3.5,4.2c-1.3,2-2.4,3.5-2.4,3.5s2.4-0.7,2,0.9
			c-0.2,0.9-1.1,2.8-3.5,7.6s-3.7,7.9-3.7,7.9s2.2-0.2,2.4-0.2s0.4,0.2,0.4,0.7c-0.2,0.2-2,3.1-3.7,8.5C23,397.5,22.7,400,22.7,400"
			/>
		<path class="st2" d="M159.8,412c0,0-1.1-0.2-1.7-0.2c-0.7,0-0.7,1.1-0.7,1.7c0.2,3.9-0.2,8.7-0.2,9.2c0,0.4-1.7-0.7-2.2-0.9
			c-0.4-0.2-0.7,0.2-0.7,0.7c-0.7,6.1-3.5,12.9-3.5,12.9s-0.4-0.9-0.7-1.3c-0.2-0.4-0.4-0.4-0.7-0.2c-1.3,1.3-2.4,3.9-3.1,6.6
			s-2.4,4.6-2.4,4.6c-0.2-0.2-0.4-1.7-0.4-2.2c-0.2-0.4-0.7-0.2-0.9,0s-0.9,2.2-2.8,6.1c-1.9,3.9-3.3,7.2-5.9,7.4
			c-2,0.2-2.8-5.2-2.8-5.2s-0.7,0.4-1.1,1.3c-0.4,0.9-0.4,2-0.4,2c-2-5.7-1.1-10.1-1.1-10.5c0-0.4-0.2-0.7-0.7-0.7
			c-0.2,0.2-1.1,0.9-1.1,0.9c-0.2-0.9-0.7-2-1.3-3.3c-0.7-1.1-2.4-0.7-3.7-0.4c-1.1,0-1.5-1.1-0.7-3.5c0.9-2.4,4.2-3.7,5.5-4.6
			c1.3-0.7,0.2-2,0.7-3.5c0.9-2.6,4.6-3.7,5-4.6c0.4-0.7-0.4-2.2,0.2-4.2s4.4-4.4,4.4-4.4c-0.4-3.5,0-7.2,1.5-9.4s4.4-0.2,5.2,5.5
			c1.1,8.1-2.2,13.6-3.7,16.8c-1.5,3.3-2.2,3.5-2,3.7s1.1,0,2.4-1.7c1.3-2,7.2-9.8,6.1-18.8c-1.3-9-5.9-11.1-9.6-9.2
			c-3.7,1.9-4.4,5.5-3.5,12c0,0-2.2,1.7-2.8,3.1c-0.9,1.5-0.4,4.2-0.9,4.6c-0.5,0.4-2.2,1.3-3.5,3.1c-1.3,1.7-1.1,4.2-2,4.6
			c-0.9,0.4-3.9,1.7-5,5.7c-1.3,3.9,0,7,2,6.6c1.7-0.4,4.6-0.7,4.6,2.2c-0.2,2.8-0.4,5.9,0,8.3c0,0,0.7-2.2,1.3-3.3
			c0,0,2,9.8,5.7,13.6c0,0,0-1.3-0.4-2.8c-0.2-1.5,0.2-2.4,0.2-2.4s0.4,1.5,2.4,1.5c3.5-0.2,7.4-8.3,7.4-8.3c-0.2,2,0.4,2.6,0.4,2.6
			c3.3-3.7,5.5-9.2,6.3-12c0.9-2.8,2-4.2,2-4.2s0.4,0.2,0.4,1.3s0.4,2.2,0.4,2.2c4.2-9.4,5.2-16.4,5.2-16.4s0.4,0.2,0.9,1.3
			c0.2,1.1,1.1,2,1.1,2c2.4-8.1,2-13.1,2-13.1s0.4,0.2,1.3,0.7c0.9,0.7,1.5,1.7,1.5,1.7c0.2-3.9-0.4-6.6-1.3-9.4
			c-0.7-2.8-1.5-5.9-1.5-5.9c1.3,0,2.4,1.1,2.4,1.1c-2.4-9.4-4.8-13.1-4.8-13.1s0.4,0,1.1,0.2c0.7,0,1.5,0.4,1.5,0.4
			c-2.4-5.7-5.9-9-5.9-9c0.7-0.4,2.2,0,2.2,0c-4.2-7.2-12.7-9.8-12.7-9.8s5,2.8,7.4,6.3c0.2,0.4-0.4,0.7-0.9,0.7
			c-0.7,0-0.7,0.4-0.4,0.9c0.2,0.4,3.7,3.9,4.8,6.6c0.2,0.4-1.7,0-1.3,1.1c0.4,1.1,3.7,6.1,4.6,10.1c0,0-2.8-0.7-2.4,0.2
			C155,398.9,157.4,403.5,159.8,412"/>
		<path class="st2" d="M105.8,313.5c0,0-2.8-0.2-6.8,0.4c-3.9,0.4-5.2,1.1-6.8,1.1c-1.5,0.2-2,0.2-2,0.2s0.9,1.1,2,1.1s2,0,2.4,0.4
			c0,0-1.7,0.2-5,1.5c-4.2,1.5-4.4,1.7-8.7,3.1c0,0,1.1,0.7,2.2,0.7c0.9,0,1.5,0.4,1.5,0.4s-3.1,0.7-6.6,2s-4.2,2.2-5.9,2.2
			c0,0,0.9,0.4,2.2,0.7c0.9,0,1.7,0.2,1.7,0.2s-1.3,0.7-4.6,2.4c-3.1,1.7-4.2,2.2-6.1,2.6c0,0,1.3,0.9,2.4,0.9h1.1c0,0-2,1.3-5,2.8
			c-3.1,1.5-3.5,1.7-4.6,2.8c0,0,1.5,0.2,2.2,0.4c0.2,0.2,0.7,0.2,0.9,0.2c0,0-2,1.1-4.8,2.8c-2.8,2-3.7,3.3-3.7,3.3
			s6.1-3.7,11.4-5.2c0.4-0.2,0.7-0.7,0.2-1.1c-0.2-0.2-1.5-1.1-1.5-1.1s0.4-0.2,3.7-2c3.5-1.7,5.2-2.4,5.7-2.6
			c0.4-0.2,0-0.7-0.2-0.9s-1.5-0.9-1.5-0.9s0.7-0.4,2.2-1.1c2.8-1.3,7-2.6,7.2-2.8c0.4-0.2,0.4-0.4,0-0.7c-0.2-0.2-1.3-1.1-1.3-1.1
			s1.1-0.7,3.3-1.1c2.2-0.7,4.2-1.3,5-1.5c1.3-0.7,1.7-0.9,1.5-1.5c-0.2-0.4-0.7-1.1-0.7-1.1s1.1-0.4,2.6-1.1
			c2.2-0.7,3.5-0.9,5.5-1.3c2-0.4,2.2-0.7,2.2-1.1c0-0.7-0.4-1.3-0.4-1.3s0.2-0.2,2.4-0.4c2.4-0.2,4.4-0.2,5.9-0.2s2.4,0.2,3.1,0
			s0.9-1.5,0.9-1.5s1.7-0.2,4.4,0.4c2.6,0.7,3.7,1.1,4.4,1.3c0.7,0.2,1.1,0,1.1-0.7c0.2-0.7,0.4-1.1,0.4-1.1s1.7,0,4.6,1.1
			c2.8,1.3,4.4,2.4,5,2.8c0.4,0.2,0.7,0,1.1-0.4l0.7-0.7c0,0,0.2,0,1.1,0.2c0.9,0.2,2.2,0.9,3.3,1.7c1.3,0.9,1.5,1.5,2.6,2
			c0.4,0,0.9-0.9,1.1-1.5c0.2-0.7,0.7-1.1,0.7-1.1s0.4,0,1.5,0.7s2.4,1.5,3.3,2.4h0.2c0,0,0-1.1-0.7-2c-1.1-1.5-3.3-3.3-5.2-4.6
			c-1.9-1.3-2.6-1.7-3.1-2.2c-0.2-0.2-0.2-0.4-0.2-0.4s-0.2,0.7,0.4,1.7c0.7,1.3,0.4,2,0.4,2s-2.2-1.3-4.8-2.4
			c-2.4-1.1-3.3-1.5-4.4-2.2c-1.3-0.7-1.5-0.9-1.5-0.9s0,1.3,0.7,2.2c0.7,0.7,0.7,0.9,0.7,0.9s-3.3-1.5-7.7-2.6
			c-4.4-0.9-6.8-1.7-6.8-1.7s0.4,1.5,1.1,2.2s0.9,1.1,0.9,1.1s-3.5-0.9-7.2-1.1c-3.5-0.2-5,0-5.7,0h-0.7c0,0,0.2,0.7,1.5,1.3
			C105.4,313,105.8,313.5,105.8,313.5"/>
		<path class="st2" d="M163.5,326.8c1.3,2.2,0.9,5.9-0.4,7.6c-1.1,1.7-3.1,2.8-4.2,4.2s-2.2,3.5-2.6,5c-0.4,1.5-1.3,3.1-2.6,3.1
			s-2.6-1.1-3.3-2.8s-0.9-3.9-3.7-5.5c-2.8-1.5-8.1-3.3-8.1-6.8s3.3-4.6,5.5-7.2c2.2-2.6,5-4.6,8.1-4.6
			C155.6,320.2,161.1,322.9,163.5,326.8"/>
		<path class="st2" d="M174.4,353c-0.4-0.9-0.7-1.5-0.7-1.5s0.2-0.4,0.9-0.9c1.1-0.4,2-0.4,2-1.3c0.2-3.7-2.6-6.3-2.6-6.3
			c0.4-0.2,1.1,0,2,0c0.9,0.2,0.9-0.2,0.9-0.2c-1.3-3.9-5.5-6.6-5.5-6.6c0.7-0.4,1.5,0,2.2,0.2s1.3,0,1.3,0
			c-0.7-2.4-2.4-4.2-4.8-5.5s-4.2-1.3-4.4-1.3s0,0.2,0,0.4c0.2,0.2,1.3,0.7,2.2,1.5c1.1,1.1,1.3,1.5,1.3,1.5s0.2,0.7-0.9,1.3
			c-1.1,0.9-2.2,1.5-2.2,1.7c-0.2,0.2,0,0.4,0.2,0.7c0.2,0.2,1.5,0.9,3.3,2.2c1.5,1.3,2.2,2.2,1.7,2.4c-0.4,0.2-1.5,0.4-1.3,1.1
			s1.3,1.1,2,1.7c0.7,0.6,1.5,1.3,0.7,3.5c-0.4,1.3-1.3,1.7-2,1.7s-1.1,0-1.1,0.2c0.2,0.2,1.3,2.4,0.7,3.5c-0.4,1.1-1.1,1.7-2.4,1.5
			c-0.7,0-0.9,0-0.7,0.2s1.3,1.7,0.9,3.9c-0.2,1.3-1.3,1.5-2.2,1.1c-0.4-1.3-1.1-2.4-1.5-3.7c-0.2-0.4-0.7-0.7-1.1-0.4
			c-0.4,0.2-0.7,0.7-0.4,1.1c0.2,0.2,0.2,0.7,0.4,0.9c0.4,0.9,0.7,1.5,1.1,2.4c0,0.9,0,2-0.2,2.8c-0.2,1.3-1.3,1.7-2,0.2
			s-1.3-3.5-1.3-3.9c0-0.2-1.1,0.2-1.1,0.7c0,0.4-0.4,3.1-1.5,3.3c-0.4,0.2-0.9-0.9-0.9-2c0-1.3,0.7-3.5-0.9-4.6
			c-0.4-0.2-0.7-0.4-1.1-0.2c-0.4,0-0.7,0.4-0.7,0.4c-0.2,3.5-1.1,5.5-1.1,5.5s1.5-1.5,1.5-0.7c0,0.9,0.2,3.5,1.1,4.6
			c0.9,1.1,1.7,1.5,2.6,1.5c0.2,0-0.2-0.9,1.1-2.2c0.2-0.4,0.7-0.7,0.7-0.2c0,0.4,0.7,2.2,2.6,2.2c1.5,0,2.4-1.1,2.8-2.4
			c3.7,11.1,3.3,21.9-0.7,29.1c4.8-7.2,5.5-18.8,1.5-30.8c1.1-0.4,3.1,0,3.9-1.7v-0.2c5,10.3,6.1,20.5,3.3,28.2
			c3.7-7.9,2.8-19.5-2.8-30.6c0-0.9-0.4-1.3-0.4-1.3s1.3-0.9,2.8-0.9c0.4,0,0.7-0.2,0.9-0.4c6.6,9.6,9.2,20.1,7.4,28.2
			C184.7,375.5,181.9,363.5,174.4,353"/>
		<path class="st2" d="M126.6,325.7c0.7,0.2,0.9,0.7,0.4,1.5c-0.4,0.9-1.1,1.3-2.2,1.3c-2.2,0.2-3.9-1.3-8.1-1.1
			c-2.4,0-5,0.4-7.2,1.5c-2.2,1.1-2.6,1.5-2.8,1.5c0,0,0-0.4,0.2-0.7c0.9-0.9,4.8-3.7,10.9-4.8C122.6,324.4,125.5,325,126.6,325.7"
			/>
		<path class="st2" d="M123.1,329.4c0.2,0,0.2,0,0.4,0.2c0,0.2,0.2,1.1,0,2.2c-0.4,1.1-0.9,2-2,3.1c-1.3,0.9-3.5,0.7-4.4-1.1
			c-1.3-2-0.7-5,1.3-5.5c0.9-0.2,1.1,0.4,1.1,0.9c0.2,0.9-0.4,1.3,0,2s1.3,0.9,2.2,0c0.9-0.9,0.9-1.1,1.1-1.3
			C122.8,329.7,122.8,329.4,123.1,329.4"/>
		<path class="st2" d="M152.6,352.2c-0.2-0.4-0.7-0.4-0.7,0.2c0,1.1-0.2,1.7-1.1,2.8c-0.7,1.1-1.1,0.2-1.5,0.7
			c-1.5,1.1-0.9,3.7-0.9,5s-0.4,2.6-0.9,2.4c-0.9-0.4-1.5-2.2-1.5-2.6c-0.2-1.1-1.1-1.1-1.1-0.7c-0.4,1.5-1.7,4.8-2.4,6.3
			c-0.4,0.9-1.1,0-1.3-0.9c0.7-2,1.5-3.7,2.4-5.7c0.2-0.4,0.2-0.7,0.4-1.1c0.2-0.4,0-0.9-0.4-1.1s-0.9,0-1.1,0.4
			c-1.5,3.1-2.6,6.1-3.5,9c-0.7,1.3-1.5,2.4-2.4,3.5c-0.7,0.7-1.5-3.1-3.1-1.1c-0.4,0.7-2,2.6-2.6,3.5c0,0.2-0.2,0.2-0.2,0.2
			c1.3-3.5,3.1-7,5.2-10.5c0.2-0.2,0.4-0.7,0.7-0.9c0.2-0.4,0.2-0.9-0.2-1.1s-0.9-0.2-1.1,0.2c-2,3.1-3.7,6.3-5,9.4
			c-0.4-1.5-2,0-2.6,0.9c-0.7,0.9-1.5,2.2-1.7,1.5c0,0-0.2-0.4-0.2-0.9c0-0.7-0.7-0.9-1.3-0.9c1.1-2,2.6-4.2,4.2-6.1l0.7-0.7
			c0.2-0.2,0.2-0.9-0.2-1.1c-0.2-0.2-0.9-0.2-1.1,0.2c-2,2.6-3.7,5.2-5,7.9c-0.7,0.2-1.1,0.2-1.5,0.4c-1.3,0.4-2.8,0.9-2.8,0.9
			c0-0.7,0-1.3-0.7-1.7c-0.7-0.7-3.3,0-4.4-0.2s-1.1-0.4-1.1-0.9c0.4-1.5-0.9-2.2-2.4-2.4c-1.5-0.4-2.2-0.7-2.2-0.7
			c0.4-1.5-1.7-2.4-3.1-3.1s-2.8-1.5-2.8-1.5l-0.2-1.1c-0.2-1.5-2-2-3.1-3.1c-1.1-0.9-1.5-2.6-1.5-2.6s0,0.2,0.4,1.7
			s1.7,2.4,2.2,3.5c0.4,1.1-0.2,2-0.2,2c1.1,0.9,2.2,1.5,3.9,2.4c1.7,1.1,0.4,2,0.4,2c1.1,0.9,2.8,1.7,4.6,2.2c1.7,0.7,0.2,2,0.2,2
			c2,0.9,4.4,1.7,5.7,1.7s0.4,2,0.4,2c1.3,0.4,2.4,0.2,5.5-0.7c0.4,0,0.7-0.2,0.9-0.2c-3.5,8.3-4.2,16.4-1.7,22.5
			c-2-6.1-0.7-14.4,3.1-22.3c0.9,0.2,0.7,1.1,0.7,1.5c-0.2,0.7,0,1.5,0.4,1.3c2.6-1.1,4.4-3.5,5-3.5c0.2,0,0.2,0.2,0.4,0.4
			c-2.8,9.2-2.8,17.9,0.4,24c-2.2-5.7-2.2-13.3,0-21.2c1.7-0.9,2.2-2.2,3.3-3.1c1.1-0.9,1.5-0.4,1.5,0.2c0.2,0.9-0.4,2.4,0.4,2
			c1.1-0.4,2-1.1,2.6-1.7c-1.5,9.8-0.2,18.8,3.9,24.9c-3.9-7-4.6-17.3-1.7-28.2c0.2-0.4,0.2-0.7,0.4-0.9c0.2-0.7,0.7,0.2,0.7,1.1
			c0,0.9,0.2,1.5,0.7,1.1c2.8-1.3,4.6-5.9,4.8-6.8c0-0.4,0.2-0.2,0.7,0.2c1.3,1.1,0.9,2.2,1.3,2.2c0.9,0,1.5-0.7,2.4-1.7
			c0.7-1.3,0.7-4.2,0.7-5s1.5,0.7,1.5,0.7s1.1-2,1.1-5.5C153.4,353.7,153,352.5,152.6,352.2"/>
		<path class="st2" d="M128.7,374c0-0.2-0.2-0.4-0.4-0.4c0,0-0.2,0-0.2,0.2c0.2,0.2,0.4,0.4,0.4,0.7
			C128.7,374.2,128.7,374.2,128.7,374"/>
		<path class="st2" d="M112.1,369.7c-0.2,0.7,0,0.9,1.1,0.9h2.8l-3.9-2C112.1,369,112.3,369.4,112.1,369.7"/>
		<path class="st2" d="M118.9,372.5c-0.2-0.2-0.7-0.4-0.9-0.7c0,0.2,0.2,0.7,0,0.9C118.2,372.7,118.5,372.5,118.9,372.5"/>
		<path class="st2" d="M127.2,380.2c0.4-2,0.9-3.7,1.3-5.7c-0.2-0.2-0.4-0.4-0.4-0.7c-0.7,0.4-2,1.7-3.9,2.8
			C125.2,377.7,126.3,379,127.2,380.2"/>
		<path class="st2" d="M130.3,376.2c-0.4,0.2-0.7,0.7-1.1,0.9c-0.4,1.5-0.7,2.8-0.9,4.4c4.6,6.1,7.4,13.8,7.4,22.1
			c0.2-0.2,0.4-0.2,0.7-0.4c1.3-0.7,2.8-0.9,4.2-0.4c0-1.7-0.2-3.3-0.4-5c-1.7-3.3-3.1-7.2-3.3-11.6
			C134.9,382.5,132.9,379.2,130.3,376.2"/>
		<path class="st2" d="M104,366.4c0-0.4,0-0.9-0.9-1.3c-1.7-1.1-3.1-1.7-3.9-2.4c0,0,0.4-0.7,0.4-1.5c-0.9,0-1.5-0.2-2.4-0.2
			c-9.4,0-17.9,3.1-24.9,7.9c2.4,0.9,2.2,3.1,1.7,4.8c6.6-4.8,14.4-7.9,23.2-7.9C99.4,365.7,101.9,365.9,104,366.4"/>
		<path class="st2" d="M59,410.2c-1.5,1.3-3.3,1.5-4.8,0.9c3.5,20.5,21.2,36.3,42.8,36.3c7.9,0,15.1-2.2,21.6-5.7
			c-0.7-1.1-0.9-3.1-0.2-5.5c-6.1,3.9-13.3,6.3-21.2,6.3C78,442.9,62.1,428.7,59,410.2"/>
		<path class="st2" d="M50.7,404.4c-2-0.4-3.9-0.2-5.2,0c-3.1,0.4-4.8,0.9-4.8,0.9s0.4-0.9,0.9-1.3c0.2-0.7-0.4-0.7-0.7-0.7
			c-0.2,0-2.6,0-4.6,0.4c-2,0.2-4.2-0.2-4.2-0.2c0.4-0.4,0.7-1.1,0.9-1.3c0-0.2,0-0.4-0.4-0.7c-0.4-0.2-1.5-0.7-3.7-0.2
			c-4.6,0.9-5.9-0.9-5.9-0.9s0.2-2.4,1.3-5.9c1.5-5.5,3.5-8.1,3.7-8.5c0.2-0.2-0.2-0.7-0.4-0.7s-2.4,0.2-2.4,0.2s1.1-3.1,3.7-7.9
			c2.4-4.8,3.3-6.8,3.5-7.6c0.4-1.5-2-0.9-2-0.9s0.9-1.7,2.4-3.5c1.3-2,3.3-3.9,3.7-4.2c0.2-0.4,0-0.4-0.2-0.4h-1.5
			c0,0,0.9-1.3,3.3-3.3s3.5-2.8,3.7-2.8c0.4-0.4,0.4-0.7,0-0.9c-0.2,0-0.9-0.4-0.9-0.4s0.7-0.7,3.1-1.7c2.2-0.9,3.9-1.3,4.4-1.3
			c0.4-0.2,0.2-0.4,0.2-0.4c0-0.2-1.1-0.9-1.1-0.9s0.7-0.4,2.8-1.5c2.1-1.1,4.4-1.3,4.4-1.3s-2.6-0.7-9.2,1.5
			c-5.2,1.7-7.4,3.5-7.4,3.5s0.9-0.2,1.7-0.2h1.5c0,0-3.1,1.5-5.9,3.3c-2.8,2-3.5,2.6-3.5,2.6s0.9-0.2,1.5-0.2
			c0.9,0,1.5-0.2,1.5-0.2s-3.1,2.4-5.5,5c-2.2,2.6-2.8,3.9-2.8,3.9s0.9-0.4,2-0.7c1.1-0.3,1.5,0,1.5,0s-0.9,1.5-2.4,3.3
			c-1.5,1.7-2.6,3.5-3.3,5c-0.7,1.5-0.9,2.2-0.9,2.2s0.9,0,1.7-0.7c0.9-0.7,1.5-0.7,1.5-0.7s-3.7,8.1-4.6,12.7
			c-0.4,1.7-0.7,3.3-1.3,4.4c0,0,1.1-0.2,1.7-0.9l0.9-0.7c0,0-2.6,7-2.2,11.1c0,0.2,3.3,2.4,6.1,1.7c0,0-0.2,0.4-1.7,0.9
			c-1.5,0.2-2.2,1.1-2.2,1.1c1.7,0,4.6,1.1,7.6,1.3c3,0.2,5.5-0.2,5.5-0.2s-0.2,0.4-1.3,0.9c-1.3,0.7-2.6,0.7-2.6,0.7
			s0.4,0.4,1.3,0.7c1.1,0.2,3.5,0.2,6.3-0.4c2.6-0.7,4.4-0.4,7.2-0.7c2.6,0,3.3,2,4.6,3.5c0.4,0.4,1.1,0.9,1.7,1.1
			c-0.2-1.3-0.4-2.6-0.4-3.9C52.5,406.4,52.2,404.5,50.7,404.4"/>
		<path class="st2" d="M141,399.4c-0.4-0.7-0.7-1.5-1.1-2.2c0,0.2,0,0.4,0.2,0.7C140.3,398.2,140.5,398.9,141,399.4"/>
		<path class="st2" d="M123.1,375.8v0.2c-0.2,0.7,0,1.5,0.4,1.3c0.2-0.2,0.4-0.2,0.9-0.4C123.7,376.4,123.3,376,123.1,375.8"/>
		<path class="st2" d="M129.2,398.2c-2-4.6-2.2-10.5-0.9-16.8c-0.2-0.4-0.7-0.9-0.9-1.3C125.9,387,126.6,393.5,129.2,398.2"/>
		<path class="st2" d="M117.4,371c-0.2-0.2-0.9-0.2-1.5-0.2c0.7,0.4,1.3,0.9,2.2,1.3C118,371.5,117.8,371.2,117.4,371"/>
		<path class="st2" d="M90.3,402.9c-0.4,0-0.9,0-1.3,0.2c-1.5,0.4-2.6,2-2.6,3.7c0,2.2,1.7,3.9,3.9,3.9c0.9,0,1.7-0.2,2.4-0.9
			c0.9-0.7,1.5-1.7,1.5-3.1C94.2,404.5,92.5,402.9,90.3,402.9"/>
		<path class="st2" d="M113.2,415l-0.7-0.7l-0.2-0.9l-0.4-0.4v-0.2h-0.2v-0.2v-0.2l-3.1-3.1l-0.6-0.6l-3.5-3.5l-2-1.7l-1.7-1.5
			l-2.2-1.7l-0.4-0.4l-0.7-0.7l-0.9-0.7l-0.4-0.7v-10.9H83.9v0.4v0.2v0.2l0.2,0.2v0.2v0.4l0.2,0.2l0.2,0.2v0.2l-0.2,0.4v0.2v0.2
			l0.2,0.4l-0.7,1.5l-0.2,0.4v0.2v0.2v0.2v0.2l0.4,0.4l0.2,0.2v0.2l0.2,0.2l0.2,0.4v0.2l0.2,0.2v0.2v0.2v0.4v0.2v0.2v0.4v0.2
			l0.2,0.4l0.2,0.4l-0.2,0.4v0.2l0.2,0.2l0.2,0.2l0.2,0.2h0.2l0.2,0.2l0.2,0.4l0.2,0.2l0.4,0.2l0.2,0.4l0.2,0.2
			c0.2,0,0.2-0.2,0.4-0.2c0.7-0.2,1.5-0.4,2.4-0.4c3.7,0,6.8,3.1,6.8,6.8c0,2.2-1.1,4.2-2.6,5.5v0.2v0.2l0.2,0.2v0.2v0.2l-0.2,0.4
			v0.2h0.4l0.2,0.2h1.3h0.2H97h0.2l0.4,0.2l0.2,0.4H98l0.2,0.4l0.2,0.2l0.4,0.2h0.4h0.7l0.2,0.2l0.2,0.7v0.2l0.4,0.2v-0.2h0.2h0.2
			l0.4,0.4l0.2,0.2h0.2l0.4,0.4l0.2,0.2l0.4,0.4l0.7,1.1v0.4v0.2l0.2,0.2v0.2l0.2-0.2l0.2,0.2v0.2L104,420l0.2,0.2v0.2l2.8-0.2
			l3.9-0.4h0.4h0.2v-0.2l0.2-0.2V419l-0.2-0.2h-0.4h-0.2v-0.2v-0.4l-0.4-0.9v-0.2v-0.2l0.2-0.2h0.2l0.2-0.2v-0.2v-0.2v-0.7l0.2-0.2
			V415L113.2,415L113.2,415z"/>
	</g>
</g>
<g>
	<g>
		<path class="st3" d="M169.1,28.1c-0.8-2.2-2.3-3.7-4.7-3.7c-3.3,0-5.4,3.1-5.4,9.2c-0.1,6.2,1.8,9.2,5.5,9.2
			c2.2,0,3.6-0.8,5.1-3.9l4.6,1.2c-1.5,4.5-5,6.8-9.8,6.8c-6.7,0-10.5-4.8-10.5-13.4c0-8.6,3.9-13.4,10.5-13.4c5,0,7.9,2.2,9.1,6.9
			L169.1,28.1z"/>
		<path class="st3" d="M187.8,46.5l-0.3-1.7c-1.8,1.2-3.5,2-5.8,2c-3.4,0-5.1-2.4-5.1-5c0-4.3,3.5-6.5,10.8-7.4V33
			c0-1.4-1.2-2.2-2.8-2.2c-2.1,0-3.3,1.1-4.2,2.3l-2.9-2.2c1.2-2,4.3-3.5,7-3.4c5.1,0.1,7.3,2,7.3,7.6V44c0,1,0.1,1.9,0.3,2.8h-4.4
			V46.5z M187.3,37.5c-3,0.6-6.3,1.2-6.3,3.9c0,1.4,0.9,2.2,2.2,2.2c1.4,0,3.2-1.2,4.2-2v-4.1H187.3z"/>
		<path class="st3" d="M196.5,46.5V20.4h4.5v26.2H196.5z"/>
		<path class="st3" d="M206,24.2V20h4.5v4.2H206z M210.4,46.5h-4.5V27.7h4.5V46.5z"/>
		<path class="st3" d="M221.4,31.4v15.2h-4.5V31.4h-2.6v-3.6h2.5v-2.3c0-4.1,1.7-5.4,5.3-5.4h3v3.6H224c-1.9,0-2.5,0.6-2.5,2v2h3.9
			v3.6h-3.9V31.4z"/>
		<path class="st3" d="M235.1,27.4c5.1,0,8.1,3.9,8.1,9.8s-3.1,9.8-8.1,9.8s-8.1-3.9-8.1-9.8C226.9,31.1,230,27.4,235.1,27.4z
			 M235.1,31c-2.5,0-3.7,2-3.7,6.2s1.2,6.2,3.7,6.2s3.7-2,3.7-6.2S237.6,31,235.1,31z"/>
		<path class="st3" d="M246.5,46.5V27.7h4.2v3.2h0.1c1.1-2.2,2.6-3.5,5.3-3.6V32c-0.2,0-0.4,0-0.8,0c-2.2,0-4.2,2.5-4.2,3.1v11.4
			L246.5,46.5L246.5,46.5z"/>
		<path class="st3" d="M258.9,46.5V27.7h4.2v2c1.7-1.2,3.6-2.4,5.8-2.4c3.7,0,5.6,2.4,5.6,6.3v12.9h-4.5V34.3c0-2.5-0.8-3.3-2.3-3.3
			c-2,0-3.4,1.1-4.2,2v13.5L258.9,46.5L258.9,46.5z"/>
		<path class="st3" d="M279.2,24.2V20h4.5v4.2H279.2z M283.7,46.5h-4.5V27.7h4.5V46.5z"/>
		<path class="st3" d="M298.3,46.5l-0.3-1.7c-1.8,1.2-3.5,2-5.8,2c-3.4,0-5.1-2.4-5.1-5c0-4.3,3.5-6.5,10.8-7.4V33
			c0-1.4-1.2-2.2-2.8-2.2c-2.1,0-3.3,1.1-4.2,2.3l-2.9-2.2c1.2-2,4.3-3.5,7-3.4c5.1,0.1,7.3,2,7.3,7.6V44c0,1,0.1,1.9,0.3,2.8h-4.4
			V46.5z M297.8,37.5c-3,0.6-6.3,1.2-6.3,3.9c0,1.4,0.9,2.2,2.2,2.2c1.4,0,3.2-1.2,4.2-2v-4.1H297.8z"/>
		<path class="st3" d="M329.7,27.4c-0.8-2-2.3-3.4-4.6-3.4c-2.2,0-3.7,0.9-3.7,2.9c0,4.5,13.4,3.5,13.4,12c0,5.4-3.4,8-9.1,8
			c-4.3,0-8.3-2.4-9.8-6.2l4.2-1.8c1.2,2.4,2.8,4.1,5.7,4.1c2.5,0,4.4-1,4.4-3.5c0-5.2-13.4-4.2-13.4-12.2c0-4.6,4-7.3,8.5-7.3
			c4.2,0,7.7,2.1,9.2,5.9L329.7,27.4z"/>
		<path class="st3" d="M339.1,27.7v-6.3h4.5v6.3h3.7v3.6h-3.7V42c0,1,0.6,1.3,1.7,1.3c0.7,0,1.4-0.2,2.1-0.3v3.7
			c-1.2,0.1-2.3,0.3-3.5,0.3c-3.3,0-4.6-1.7-4.6-4.3V31.6h-2.6v-3.9H339.1z"/>
		<path class="st3" d="M360.8,46.5l-0.3-1.7c-1.8,1.2-3.5,2-5.8,2c-3.4,0-5.1-2.4-5.1-5c0-4.3,3.5-6.5,10.8-7.4V33
			c0-1.4-1.2-2.2-2.8-2.2c-2.1,0-3.3,1.1-4.2,2.3l-2.9-2.2c1.2-2,4.3-3.5,7-3.4c5.1,0.1,7.3,2,7.3,7.6V44c0,1,0.1,1.9,0.3,2.8h-4.4
			V46.5z M360.4,37.5c-3,0.6-6.3,1.2-6.3,3.9c0,1.4,0.9,2.2,2.2,2.2c1.4,0,3.2-1.2,4.2-2v-4.1H360.4z"/>
		<path class="st3" d="M370,27.7v-6.3h4.5v6.3h3.7v3.6h-3.7V42c0,1,0.6,1.3,1.7,1.3c0.7,0,1.4-0.2,2.1-0.3v3.7
			c-1.2,0.1-2.3,0.3-3.5,0.3c-3.3,0-4.6-1.7-4.6-4.3V31.6h-2.6v-3.9H370z"/>
		<path class="st3" d="M384.5,37.8c0.1,4,1.8,5.4,4,5.4c2.1,0,3.1-1,4.2-2.2l3.3,2c-1.8,2.6-4.3,3.9-7.9,3.9c-4.8,0-7.9-3.9-7.9-9.8
			s3.1-9.8,8.1-9.8c5,0,7.7,4.2,7.7,8.7v1.9H384.5z M391.7,34.8c-0.1-2.6-1.4-4.2-3.6-4.2c-2.2,0-3.5,1.5-3.6,4.2H391.7z"/>
		<path class="st3" d="M425.4,20.4h5v16.4c0,7.6-4.7,10.1-10,10.1c-5.3,0-10-2.5-10-10.1V20.4h5V37c0,4.3,1.7,5.7,5.1,5.7
			s5.1-1.4,5.1-5.7V20.4z"/>
		<path class="st3" d="M435.4,46.5V27.7h4.2v2c1.7-1.2,3.6-2.4,5.8-2.4c3.7,0,5.6,2.4,5.6,6.3v12.9h-4.5V34.3c0-2.5-0.8-3.3-2.3-3.3
			c-2,0-3.4,1.1-4.2,2v13.5L435.4,46.5L435.4,46.5z"/>
		<path class="st3" d="M455.7,24.2V20h4.5v4.2H455.7z M460.3,46.5h-4.5V27.7h4.5V46.5z"/>
		<path class="st3" d="M463.9,27.7h4.5l3.1,12.8h0.1l3.2-12.8h4.5l-5.4,18.8h-4.7L463.9,27.7z"/>
		<path class="st3" d="M485.6,37.8c0.1,4,1.8,5.4,4,5.4c2.2,0,3.1-1,4.2-2.2l3.3,2c-1.8,2.6-4.3,3.9-7.9,3.9c-4.8,0-7.9-3.9-7.9-9.8
			s3.1-9.8,8.1-9.8c5,0,7.7,4.2,7.7,8.7v1.9H485.6z M492.8,34.8c-0.1-2.6-1.4-4.2-3.6-4.2c-2.2,0-3.5,1.5-3.6,4.2H492.8z"/>
		<path class="st3" d="M501.2,46.5V27.7h4.2v3.2h0.1c1.1-2.2,2.6-3.5,5.3-3.6V32c-0.2,0-0.4,0-0.8,0c-2.2,0-4.2,2.5-4.2,3.1v11.4
			L501.2,46.5L501.2,46.5z"/>
		<path class="st3" d="M523.2,32.7c-0.9-1-2.1-2-3.5-2c-1.8,0-2.5,0.8-2.5,1.9c0,3.2,9.5,1.9,9.5,8.7c0,4-3,5.6-6.9,5.6
			c-3,0-5.5-1.3-7.2-3.9l3-2.2c1.1,1.4,2.4,2.8,4.4,2.8c1.5,0,2.6-0.9,2.6-2.1c0-3.2-9.5-2.1-9.5-8.6c0-3.5,3-5.5,6.3-5.5
			c2.5,0,5,1,6.6,2.9L523.2,32.7z"/>
		<path class="st3" d="M530.2,24.2V20h4.5v4.2H530.2z M534.7,46.5h-4.5V27.7h4.5V46.5z"/>
		<path class="st3" d="M541.1,27.7v-6.3h4.5v6.3h3.7v3.6h-3.7V42c0,1,0.5,1.3,1.7,1.3c0.7,0,1.4-0.2,2.1-0.3v3.7
			c-1.2,0.1-2.3,0.3-3.5,0.3c-3.3,0-4.6-1.7-4.6-4.3V31.6h-2.6v-3.9H541.1z"/>
		<path class="st3" d="M552,49.6c0.7,0.1,1.2,0.1,1.9,0.1c1.5,0,2.4-0.4,3-1.5c0.4-0.9,0.8-1.4,0.8-2.2c0-0.7-0.3-1.4-0.6-2.2
			L552,27.7h4.5l3.1,11.6h0.1l3.2-11.6h4.5l-5.9,18.8c-2,5.4-3.6,6.8-7.3,6.8c-1.1,0-1.7-0.1-2.2-0.1V49.6z"/>
		<path class="st3" d="M155.3,106.9V65.6h11.1l7.9,28.9h0.1l8-28.9h11.2v41.4h-6.9V74.4h-0.1l-9.2,32.6h-6.1l-9.1-32.6h-0.1v32.6
			H155.3z"/>
		<path class="st3" d="M217,107.5c-11.3,0-17.4-7.7-17.4-21.2S205.7,65,217,65c11.3,0,17.4,7.7,17.4,21.2S228.4,107.5,217,107.5z
			 M217,71.6c-6.5,0-9.5,5-9.5,14.6c-0.1,9.7,3,14.6,9.5,14.6c6.5,0,9.5-5,9.5-14.6C226.5,76.6,223.5,71.6,217,71.6z"/>
		<path class="st3" d="M241.5,106.9V65.6h8.3L266,93.7h0.1V65.6h7.5v41.4H266L249,77.4h-0.1v29.5H241.5z"/>
		<path class="st3" d="M309.1,65.5v6.6h-10.9v34.9h-7.9V72.2h-10.9v-6.6h29.7V65.5z"/>
		<path class="st3" d="M315.2,106.9V65.6h27.4v6.6h-19.5v9.9h14.2v6.6h-14.2v11.6h20.1v6.6h-28.1V106.9z"/>
		<path class="st3" d="M349.6,106.9V65.6h16.5c9.4,0,13.2,5.5,13.2,12.3c0.1,5.1-2.5,9.2-7.6,10.7l9.1,18.5H372l-7.8-16.8h-6.8v16.7
			H349.6z M357.5,83.6h5.8c6.2,0,8.1-2,8.1-5.8s-2.3-5.8-6.7-5.8h-7.3L357.5,83.6L357.5,83.6z"/>
		<path class="st3" d="M387.7,106.9V65.6H415v6.6h-19.5v9.9h14.2v6.6h-14.2v11.6h20.1v6.6h-28.1V106.9z"/>
		<path class="st3" d="M435.1,82l7.2-16.4h8.3L439,90.4v16.5h-7.9V90.4l-11.3-25h8.3L435.1,82z"/>
		<path class="st3" d="M468.9,65.5h15.4c8.3,0,13.6,2.8,14.1,10.1c0,4.3-1.8,7.6-6.3,9.4c5.4,2.2,7.3,4.6,7.3,11
			s-4.5,10.9-15.1,10.9h-15.3V65.5H468.9z M476.9,82.1h7.9c3.7,0,5.7-2.2,5.7-5.1c0-2.9-1.9-5.1-5.7-5.1h-7.9V82.1z M476.9,100.4
			h7.9c4.6,0,6.6-2.1,6.6-6.1c0-4-2-6.1-6.6-6.1h-7.9V100.4z"/>
		<path class="st3" d="M515.3,65.5h9.9l11.8,41.5h-7.8l-2.3-8.9h-13.1l-2.4,8.9h-7.9L515.3,65.5z M515.4,91.4h9.7l-4.6-18h-0.1
			L515.4,91.4z"/>
		<path class="st3" d="M550.6,82l7.2-16.4h8.3l-11.4,24.9v16.5h-7.9V90.4l-11.3-25h8.3L550.6,82z"/>
	</g>
	<g>
		<path class="st3" d="M64.2,51.7c-14.9,0-27,12.1-27,27s12.1,27,27,27s27-12.1,27-27S79.2,51.7,64.2,51.7z M64.3,100.4
			c-12.1,0-21.9-9.8-21.9-21.9s9.8-21.9,21.9-21.9s21.9,9.8,21.9,21.9S76.4,100.4,64.3,100.4z"/>
		<path class="st3" d="M3.2,75c0,0,1.2,1.5,5,0.8c1.8-0.3,2.8,0.1,3.1,0.2c0.3,0.2,0.4,0.3,0.3,0.6c0,0.3-0.3,0.8-0.7,1.1
			c0,0,1.9,0.6,3.4,0.2c1.7-0.3,3.5-0.3,3.9-0.3c0.2,0,0.8,0.1,0.6,0.6c-0.2,0.4-0.7,1.2-0.7,1.2s1.4-0.2,4-0.7
			c1.1-0.2,2.8-0.3,4.3,0c1.5,0.3,1.5,2.5,3.7,3.2s2.2-4.7,2.2-6.2c0-1.4,0.6-2.2,1.7-3.1c1.8-1.4,1.3-3.5,1.2-5.1
			c-0.2-1.5,2.8-3,3.5-4.7c0.8-1.8,0.1-3.6-0.2-4.4c-0.3-0.8,0.2-1.3,0.7-1.8c1-1,2.4-3.6,1.8-4.5c-0.7-1-4.3,0.1-8,3.5
			c-3.9,3.4-6.5,7.5-7.6,9.4c-0.1,0.2-0.3-0.2,0-0.9c0.2-0.7,2.3-5.9,6.6-10c4.2-4.2,8.3-5.7,11.4-5c3.1,0.8,2.4,3.3,2,4.7
			c-0.6,1.4-2.1,2.4-2.4,4.1c-0.3,1.7,0.1,2.9,0.3,4.4c0.1,1.5-0.3,2.6-1.9,4.3c-0.7,0.7-2,2.2-1.9,3c0,0.2,0.4,1.1-0.4,3.6
			c-0.9,2.6-3.1,3.2-3.1,4c-0.1,0.8-0.1,4.2-2.2,6.2c-2.1,2.1-4.6,1.3-5.7,0.1c-1.1-1.3-1.5-3-3.9-2.9c-2.2,0.1-3.6,0-5.8,0.6
			c-2.2,0.4-4.4,0.6-5.2,0.3c-0.9-0.2-1.1-0.4-1.1-0.4s1-0.1,2.2-0.6c0.9-0.3,1-0.7,1-0.7s-2.1,0.3-4.6,0.1c-2.4-0.1-4.8-1-6.3-1.1
			c0,0,0.6-0.7,1.9-0.9c1.3-0.2,1.3-0.7,1.3-0.7c-2.4,0.4-5.1-1.3-5.1-1.5C2.1,72.4,4,66.2,4,66.2s-0.1,0-0.8,0.6
			c-0.7,0.6-1.5,0.7-1.5,0.7c0.3-0.9,0.7-2,1-3.5c0.8-3.9,3.7-10.5,3.7-10.5s-0.6,0-1.2,0.4c-0.7,0.4-1.4,0.6-1.4,0.6
			s0.1-0.7,0.7-1.9s1.4-2.8,2.6-4.2c1.2-1.4,2-2.8,2-2.8s-0.3-0.2-1.2,0c-0.9,0.2-1.7,0.6-1.7,0.6s0.6-1,2.4-3.2s4.5-4.2,4.5-4.2
			s-0.6,0.3-1.3,0.2c-0.6,0-1.2,0.1-1.2,0.1s0.6-0.6,2.8-2.1c2.3-1.5,4.7-2.8,4.7-2.8s-0.6-0.1-1.2,0c-0.7,0.1-1.4,0.2-1.4,0.2
			s1.9-1.4,6.1-2.9c5.5-1.8,7.6-1.3,7.6-1.3s-1.8,0.2-3.5,1c-1.9,0.8-2.4,1.2-2.4,1.2s0.8,0.6,0.9,0.7c0.1,0.1,0.2,0.3-0.1,0.4
			c-0.3,0.1-1.8,0.3-3.5,1.1c-1.9,0.8-2.4,1.4-2.4,1.4s0.7,0.2,0.8,0.3c0.3,0.1,0.3,0.3,0,0.7c-0.1,0.1-1,0.8-3,2.4
			c-2,1.7-2.8,2.8-2.8,2.8s1,0,1.2,0c0.2,0,0.3,0.1,0.1,0.4c-0.2,0.3-1.9,1.9-3,3.4c-1.2,1.5-2,3-2,3s2-0.6,1.7,0.8
			c-0.2,0.8-0.8,2.3-2.9,6.3s-3,6.6-3,6.6s1.9-0.1,2-0.1c0.1,0,0.4,0.2,0.3,0.6c-0.1,0.2-1.8,2.5-3,6.9C3.4,73,3.2,75,3.2,75z"/>
		<path class="st3" d="M115.9,84.9c0,0-0.9-0.1-1.3-0.2c-0.6,0-0.6,0.9-0.6,1.4c0.2,3.2-0.1,7.2-0.2,7.5c-0.1,0.3-1.4-0.6-1.8-0.7
			c-0.3-0.1-0.6,0.1-0.6,0.4c-0.6,5.1-3,10.7-3,10.7s-0.4-0.8-0.6-1.1c-0.1-0.3-0.4-0.3-0.7-0.1c-1,1-2,3.3-2.6,5.4
			c-0.7,2.1-2,3.9-2,3.9c-0.2-0.1-0.3-1.4-0.4-1.8c-0.1-0.3-0.6-0.2-0.7,0.1c-0.1,0.2-0.8,1.8-2.3,5c-1.5,3.2-2.8,5.9-5,6.2
			c-1.5,0.1-2.3-4.4-2.3-4.4s-0.6,0.3-0.9,1.1c-0.3,0.8-0.3,1.5-0.3,1.5c-1.7-4.7-1-8.3-0.9-8.7c0.1-0.4-0.2-0.7-0.4-0.4
			c-0.2,0.1-0.9,0.7-0.9,0.7c-0.1-0.7-0.4-1.7-1-2.6c-0.6-1-2-0.6-3-0.4c-0.9,0.1-1.3-0.9-0.7-2.9c0.7-2,3.3-3.1,4.4-3.7
			s0.2-1.7,0.6-2.9c0.7-2.1,3.7-3,4.2-3.7c0.3-0.6-0.3-1.8,0.1-3.4c0.4-1.7,3.6-3.6,3.6-3.6c-0.3-3,0-5.9,1.3-7.7
			c1.2-1.8,3.6-0.2,4.3,4.5c1,6.6-1.8,11.1-3.2,13.9c-1.3,2.8-1.9,2.9-1.7,3.1c0.1,0.1,0.9,0.1,2-1.5c1.1-1.7,6.1-8.1,5.1-15.5
			c-1-7.4-5-9.1-8-7.6c-3.1,1.7-3.5,4.5-2.9,9.9c0,0-1.8,1.4-2.4,2.5c-0.7,1.2-0.3,3.4-0.8,3.7c-0.4,0.3-1.9,1.1-3,2.5
			s-0.9,3.4-1.7,3.7c-0.8,0.4-3.2,1.4-4.2,4.6c-1,3.2,0,5.8,1.5,5.5c1.5-0.3,3.9-0.6,3.7,1.9c-0.1,2.3-0.3,5,0,6.8
			c0,0,0.6-1.8,1.1-2.6c0,0,1.7,8,4.6,11.1c0,0,0-1.1-0.3-2.4c-0.2-1.3,0.1-1.9,0.1-1.9s0.3,1.3,1.9,1.2c3-0.1,6.2-6.8,6.2-6.8
			c-0.1,1.7,0.3,2.2,0.3,2.2c2.8-3.1,4.5-7.6,5.3-9.9c0.8-2.3,1.5-3.4,1.5-3.4s0.3,0.2,0.3,1.1c0,0.9,0.2,1.8,0.2,1.8
			c3.4-7.7,4.3-13.5,4.3-13.5s0.4,0.2,0.7,1.1c0.2,0.9,0.9,1.7,0.9,1.7c2-6.7,1.5-10.8,1.5-10.8s0.3,0.1,1,0.6
			c0.7,0.6,1.2,1.4,1.2,1.4c0.2-3.2-0.4-5.5-1-7.8c-0.6-2.3-1.3-5-1.3-5c1.1,0,2,0.9,2,0.9c-2-7.8-4.1-10.8-4.1-10.8s0.3,0,0.9,0.1
			c0.4,0.1,1.2,0.4,1.2,0.4c-2-4.6-5-7.4-5-7.4c0.4-0.2,1.8,0,1.8,0c-3.4-5.9-10.5-8-10.5-8s4.2,2.4,6.2,5.3
			c0.2,0.2-0.3,0.7-0.8,0.7s-0.6,0.3-0.3,0.7c0.2,0.3,3.1,3.3,4.1,5.5c0.2,0.4-1.4,0-1.1,0.9c0.3,0.9,3,5.1,3.7,8.1
			c0,0-2.3-0.6-2.1,0.2C112,74.1,114.1,77.9,115.9,84.9z"/>
		<path class="st3" d="M71.5,3.9c0,0-2.3-0.1-5.5,0.3c-3.2,0.4-4.4,0.9-5.6,1s-1.7,0.1-1.7,0.1s0.8,0.9,1.7,0.9s1.5,0.1,2.1,0.3
			c0,0-1.4,0.2-4.2,1.2c-3.5,1.2-3.6,1.4-7.3,2.5c0,0,1,0.6,1.9,0.6c0.8,0,1.3,0.3,1.3,0.3s-2.5,0.6-5.3,1.7
			c-2.9,1.1-3.4,1.8-4.8,1.9c0,0,0.8,0.4,1.8,0.6c0.7,0.1,1.4,0.2,1.4,0.2s-1.1,0.6-3.7,2c-2.6,1.4-3.4,1.8-5,2.2c0,0,1,0.7,2,0.8
			c0.3,0,0.7,0,1,0.1c0,0-1.7,1-4.2,2.3c-2.5,1.2-3,1.5-3.9,2.3c0,0,1.2,0.1,1.9,0.3c0.2,0.1,0.4,0.2,0.7,0.2c0,0-1.7,0.8-4,2.3
			c-2.4,1.7-3.1,2.8-3.1,2.8s5.1-3.1,9.5-4.3c0.3-0.1,0.7-0.6,0.2-1c-0.2-0.2-1.2-1-1.2-1s0.3-0.2,3.2-1.5c2.9-1.3,4.3-2,4.6-2.2
			c0.3-0.2,0.1-0.6-0.2-0.8c-0.2-0.1-1.3-0.7-1.3-0.7s0.6-0.3,1.9-0.9c2.3-1,5.7-2.2,5.9-2.3c0.3-0.1,0.3-0.4,0.1-0.7
			c-0.2-0.2-1.1-0.9-1.1-0.9s0.9-0.6,2.6-1c1.8-0.4,3.4-1,4.1-1.3c0.6-0.2,0.9-0.6,0.7-1c-0.1-0.3-0.6-1-0.6-1s1-0.4,2.2-0.9
			c1.8-0.6,3-0.7,4.5-1.1c1.5-0.4,1.8-0.6,1.9-0.9c0-0.6-0.3-1.1-0.3-1.1s0.1-0.1,2.1-0.2c1.9-0.2,3.5-0.2,4.8-0.2
			c1.2,0,2,0.1,2.5,0c0.6-0.2,0.8-1.3,0.8-1.3s1.4-0.2,3.6,0.3c2.1,0.6,3.1,0.9,3.6,1c0.6,0.1,0.9,0,1-0.4c0.1-0.4,0.3-1,0.3-1
			s1.4,0,3.7,1c2.4,1.1,3.6,2,4.1,2.3c0.3,0.2,0.7-0.1,0.9-0.3c0.3-0.3,0.6-0.7,0.6-0.7s0.2-0.1,0.9,0.1s1.8,0.8,2.8,1.4
			c1,0.7,1.2,1.2,2.1,1.5c0.3,0.1,0.7-0.6,1-1.1c0.2-0.6,0.6-0.8,0.6-0.8s0.3,0,1.3,0.6c1,0.6,2,1.2,2.6,1.9c0.1,0.1,0.2,0,0.2-0.1
			c0-0.1,0.1-0.9-0.6-1.7c-1-1.2-2.8-2.8-4.3-3.9c-1.5-1-2.2-1.4-2.5-1.8c-0.1-0.1-0.2-0.3-0.2-0.3s-0.1,0.7,0.3,1.5
			c0.4,1,0.4,1.7,0.4,1.7s-1.7-1.3-3.9-2.2c-2-0.9-2.6-1.3-3.5-1.9C90,1.2,89.8,1,89.8,1s0.1,1.1,0.4,1.8c0.4,0.7,0.4,1,0.4,1
			S88,2.4,84.5,1.5C81,0.8,78.9,0,78.9,0s0.4,1.2,0.9,1.8c0.4,0.6,0.7,0.9,0.7,0.9s-3-0.6-5.9-0.7c-3-0.1-4.2,0-4.6-0.1
			c-0.1,0-0.3,0-0.4,0c0,0,0.1,0.6,1.2,1.1C71.3,3.5,71.5,3.9,71.5,3.9z"/>
		<path class="st3" d="M119,14.7c1,1.8,0.7,5-0.3,6.3c-1,1.4-2.4,2.3-3.4,3.4c-1,1.1-1.8,2.9-2.2,4.2c-0.4,1.3-1.1,2.6-2.2,2.6
			s-2.1-0.9-2.8-2.3c-0.7-1.3-0.8-3.2-3.1-4.5c-2.3-1.2-6.6-2.6-6.6-5.5c0-2.8,2.8-3.7,4.4-5.9c1.8-2.2,4.2-3.7,6.6-3.7
			C112.5,9.4,117,11.6,119,14.7z"/>
		<path class="st3" d="M127.9,36.3c-0.3-0.8-0.7-1.3-0.7-1.3s0.2-0.4,0.8-0.7c0.9-0.4,1.7-0.3,1.7-1c0.1-3.1-2.2-5.2-2.2-5.2
			c0.3-0.2,0.9-0.1,1.5,0.1c0.7,0.1,0.8-0.2,0.8-0.2c-1.1-3.3-4.5-5.4-4.5-5.4c0.4-0.3,1.2,0,1.8,0.1c0.6,0.2,1.1,0,1.1,0
			c-0.6-2-2.1-3.5-4.1-4.5s-3.4-1.1-3.5-1.1c-0.2,0-0.1,0.2,0,0.3c0.2,0.1,1.1,0.6,1.9,1.3c1,0.9,1,1.2,1,1.2s0.1,0.4-0.8,1.2
			c-0.9,0.7-1.8,1.2-1.9,1.4c-0.1,0.2-0.1,0.3,0.1,0.4c0.2,0.1,1.3,0.8,2.6,1.9c1.3,1.1,1.8,1.9,1.4,2c-0.3,0.1-1.3,0.3-1.1,0.9
			c0.2,0.6,1,0.9,1.5,1.4c0.6,0.6,1.3,1.1,0.6,2.9c-0.4,1.1-1.1,1.4-1.7,1.4c-0.6,0-0.9-0.1-0.8,0.1c0.1,0.2,1,2,0.6,3
			c-0.4,1-0.8,1.4-2.1,1.3c-0.6-0.1-0.7,0-0.6,0.2c0.1,0.2,1.1,1.4,0.8,3.2c-0.2,1.1-1.1,1.2-1.9,0.9c-0.4-1-0.9-2.1-1.3-3.1
			c-0.2-0.3-0.6-0.4-0.9-0.3c-0.3,0.1-0.4,0.6-0.3,0.9c0.1,0.2,0.2,0.6,0.3,0.8c0.3,0.7,0.6,1.3,0.9,1.9c0,0.7,0,1.7-0.2,2.2
			c-0.2,1.1-1,1.4-1.5,0.2c-0.6-1.2-1-2.9-1-3.2c0-0.2-0.9,0.1-0.9,0.6c-0.1,0.4-0.4,2.4-1.2,2.8c-0.3,0.1-0.8-0.7-0.8-1.7
			c0-1,0.6-2.9-0.8-3.9c-0.3-0.2-0.6-0.3-1-0.2c-0.3,0-0.6,0.3-0.6,0.3c-0.1,2.9-0.9,4.4-0.9,4.4s1.2-1.2,1.2-0.6s0.2,3,0.9,3.9
			c0.8,0.9,1.4,1.2,2.1,1.2c0.2,0-0.1-0.8,0.9-1.8c0.2-0.3,0.4-0.6,0.6-0.2c0.1,0.3,0.6,1.9,2.2,1.8c1.3,0,2.1-1,2.4-2
			c3,9.1,2.8,17.9-0.6,23.9c4-5.9,4.6-15.5,1.3-25.4c0.9-0.4,2.4-0.1,3.2-1.5c0,0,0-0.1,0.1-0.1c4.1,8.4,5,17.1,2.6,23.2
			c3.1-6.4,2.3-16-2.3-25.2c-0.1-0.7-0.3-1-0.3-1s1-0.8,2.3-0.8c0.3,0,0.6-0.1,0.8-0.3c5.4,7.9,7.6,16.6,6.1,23.2
			C136.5,54.8,134.2,45.1,127.9,36.3z"/>
		<g>
			<path class="st3" d="M88.5,14c0.4,0.2,0.7,0.6,0.3,1.3C88.4,16,88,16.4,87,16.4c-1.8,0.1-3.3-1.1-6.6-1c-1.9,0.1-4.1,0.4-5.9,1.3
				c-1.9,0.9-2.2,1.2-2.3,1.2c0,0.1,0-0.3,0.2-0.6c0.7-0.8,4-3.2,9-4C85.5,12.8,87.7,13.4,88.5,14z"/>
			<path class="st3" d="M85.7,16.9c0.1-0.1,0.2-0.1,0.3,0.1c0,0.1,0.2,0.9-0.1,1.9c-0.2,0.9-0.7,1.7-1.7,2.4s-3,0.6-3.6-0.9
				c-0.7-1.4-0.2-4,1.4-4.4c0.7-0.2,0.9,0.3,0.9,0.8c0.1,0.8-0.3,1.1,0,1.7c0.3,0.6,1.1,0.8,1.9,0c0.8-0.7,0.8-0.9,0.8-1.2
				C85.6,17.1,85.6,16.9,85.7,16.9z"/>
		</g>
		<path class="st3" d="M110.1,35.6c-0.2-0.3-0.6-0.3-0.7,0.2c-0.1,0.9-0.2,1.5-0.9,2.4c-0.7,0.9-0.9,0.2-1.3,0.6
			c-1.3,1-0.8,3.1-0.8,4.2c0,1.1-0.2,2.1-0.7,2c-0.8-0.3-1.2-1.8-1.3-2.2c-0.2-1-0.9-0.9-0.9-0.7c-0.3,1.2-1.3,4-2.1,5.3
			c-0.4,0.8-0.9-0.1-1.1-0.8c0.6-1.5,1.2-3.1,2-4.6c0.1-0.3,0.2-0.6,0.4-0.8c0.2-0.3,0-0.8-0.3-1c-0.3-0.2-0.8,0-1,0.3
			c-1.2,2.4-2.2,5-2.9,7.5c-0.6,1.1-1.2,2.1-2,2.9c-0.4,0.6-1.3-2.5-2.6-0.9c-0.4,0.6-1.7,2.2-2.1,2.9C91.8,53,91.8,53,91.8,53
			c1.1-2.9,2.5-5.7,4.4-8.6c0.1-0.2,0.3-0.4,0.4-0.7c0.2-0.3,0.1-0.7-0.2-0.9c-0.3-0.2-0.8-0.1-0.9,0.2c-1.7,2.5-3,5.2-4.1,7.8
			c-0.3-1.3-1.5,0-2.1,0.7c-0.6,0.8-1.3,1.8-1.5,1.3c0-0.1-0.1-0.4-0.1-0.7c-0.1-0.6-0.6-0.8-1.1-0.8c1-1.7,2.1-3.3,3.3-5
			c0.1-0.2,0.3-0.4,0.4-0.7c0.2-0.2,0.1-0.7-0.1-0.9c-0.2-0.2-0.7-0.1-0.9,0.1c-1.7,2.1-3,4.3-4.1,6.4c-0.6,0.1-1,0.2-1.3,0.3
			c-1.1,0.3-2.3,0.8-2.3,0.8c0-0.4-0.1-1.1-0.6-1.5c-0.6-0.4-2.8,0-3.5-0.1c-0.8-0.1-1-0.3-0.8-0.8c0.3-1.2-0.8-1.8-2-2.1
			c-1.2-0.3-1.8-0.6-1.8-0.6c0.4-1.2-1.4-2-2.5-2.5c-1.1-0.6-2.3-1.2-2.3-1.2s0,0-0.1-1c-0.1-1.3-1.7-1.7-2.5-2.4
			c-0.9-0.8-1.3-2.2-1.3-2.2s0,0.2,0.3,1.5c0.3,1.3,1.5,1.9,1.9,2.9c0.3,0.9-0.2,1.7-0.2,1.7c0.8,0.7,1.9,1.2,3.3,2.1
			C71.1,47.2,70,48,70,48c0.8,0.7,2.3,1.4,3.9,1.9c1.4,0.4,0.2,1.7,0.2,1.7c1.5,0.8,3.5,1.3,4.7,1.4c1.2,0.1,0.3,1.7,0.3,1.7
			c1.1,0.3,1.9,0.2,4.5-0.4c0.3-0.1,0.6-0.1,0.8-0.1c-3,6.8-3.5,13.5-1.4,18.5c-1.5-5.1-0.7-11.8,2.5-18.4c0.7,0.2,0.7,0.9,0.4,1.2
			c-0.2,0.6,0,1.2,0.4,1.1c2.2-1,3.5-2.9,4.1-2.9c0.1,0,0.2,0.1,0.3,0.3c-2.4,7.5-2.3,14.7,0.3,19.9c-1.9-4.7-1.9-10.9,0-17.4
			c1.4-0.8,1.9-1.9,2.8-2.5c0.9-0.8,1.2-0.3,1.3,0.2c0.2,0.8-0.4,2,0.3,1.7c0.9-0.4,1.7-0.9,2.2-1.4c-1.3,8.1-0.2,15.5,3.2,20.6
			c-3.2-5.8-3.7-14.3-1.4-23.2c0.1-0.3,0.2-0.6,0.2-0.7c0.2-0.4,0.6,0.1,0.6,0.8c0,0.8,0.1,1.2,0.6,0.9c2.3-1.2,3.7-4.8,4-5.6
			c0.1-0.3,0.2-0.1,0.6,0.1c1.1,1,0.8,1.8,1,1.8c0.7-0.1,1.3-0.4,2-1.5c0.7-1,0.4-3.4,0.4-4.2c0-0.8,1.2,0.6,1.2,0.6s0.8-1.7,1-4.5
			C110.7,37,110.4,36,110.1,35.6z"/>
		<g>
			<path class="st3" d="M90.4,53.7c-0.1-0.2-0.1-0.3-0.3-0.3c0,0-0.1,0.1-0.2,0.1c0.1,0.1,0.3,0.3,0.4,0.4
				C90.3,53.9,90.3,53.8,90.4,53.7z"/>
			<path class="st3" d="M76.8,50.2c-0.1,0.4,0,0.7,0.8,0.8c0.6,0,1.5-0.1,2.3-0.1c-1-0.6-2.1-1.1-3.2-1.5
				C76.8,49.5,76.9,49.8,76.8,50.2z"/>
			<path class="st3" d="M82.3,52.4c-0.2-0.1-0.4-0.3-0.7-0.4c0.1,0.2,0.1,0.4,0.1,0.7C81.7,52.6,81.9,52.5,82.3,52.4z"/>
			<path class="st3" d="M89.1,58.7c0.2-1.5,0.7-3.1,1.1-4.7c-0.1-0.1-0.3-0.3-0.4-0.4c-0.6,0.3-1.5,1.5-3.2,2.4
				C87.6,56.8,88.3,57.8,89.1,58.7z"/>
			<path class="st3" d="M91.6,55.4c-0.2,0.2-0.6,0.4-1,0.7c-0.3,1.2-0.6,2.4-0.8,3.5c3.7,5.2,6.1,11.4,6.2,18.2
				c0.2-0.1,0.3-0.2,0.6-0.3c1.1-0.6,2.3-0.7,3.4-0.3c0-1.3-0.2-2.8-0.4-4.1c-1.5-2.6-2.4-5.9-2.8-9.5C95.5,60.7,93.7,58,91.6,55.4z
				"/>
			<path class="st3" d="M70.1,47.3c0.1-0.3,0-0.7-0.7-1.1c-1.3-0.9-2.4-1.4-3.3-2.1c0,0,0.4-0.6,0.3-1.3c-0.7,0-1.3-0.1-2-0.1
				c-7.7,0-14.7,2.4-20.6,6.5c2,0.8,1.9,2.5,1.4,3.9c5.3-4,11.9-6.4,19.1-6.4C66.3,46.8,68.2,47,70.1,47.3z"/>
			<path class="st3" d="M33.1,83.6c-1.3,1.1-2.8,1.2-4,0.8c2.8,16.9,17.5,29.9,35.2,29.9c6.5,0,12.5-1.8,17.7-4.7
				c-0.6-0.9-0.8-2.5-0.2-4.5c-5.1,3.3-11,5.3-17.5,5.3C48.6,110.2,35.5,98.7,33.1,83.6z"/>
			<path class="st3" d="M26.2,78.7c-1.5-0.3-3.2-0.2-4.3,0c-2.5,0.4-4,0.7-4,0.7s0.4-0.7,0.7-1.2c0.2-0.4-0.3-0.7-0.6-0.6
				c-0.2,0-2.2,0.1-3.9,0.3c-1.7,0.2-3.4-0.2-3.4-0.2c0.3-0.3,0.6-0.9,0.7-1.1c0-0.1,0-0.3-0.3-0.6c-0.3-0.2-1.2-0.7-3.1-0.2
				c-3.7,0.8-5-0.8-5-0.8s0.2-2,1-5c1.3-4.4,2.9-6.7,3-6.9c0.1-0.2-0.1-0.4-0.3-0.6c-0.1,0-2,0.1-2,0.1s1-2.5,3-6.6
				c2.1-4,2.6-5.5,2.9-6.3c0.3-1.3-1.7-0.8-1.7-0.8s0.8-1.4,2-3c1.1-1.5,2.8-3.2,3-3.4c0.2-0.3,0.1-0.4-0.1-0.4s-1.2,0-1.2,0
				s0.8-1.1,2.8-2.8c2-1.7,2.9-2.3,3-2.4c0.3-0.3,0.3-0.6,0-0.7c-0.1-0.1-0.8-0.3-0.8-0.3s0.7-0.6,2.4-1.4c1.9-0.8,3.2-1,3.5-1.1
				c0.3-0.1,0.2-0.3,0.1-0.4c0-0.1-0.9-0.7-0.9-0.7s0.6-0.4,2.4-1.2c1.8-0.8,3.5-1,3.5-1s-2.1-0.4-7.6,1.3C16.8,33,15,34.4,15,34.4
				s0.8-0.2,1.4-0.2c0.8-0.1,1.2,0,1.2,0s-2.5,1.2-4.7,2.8c-2.3,1.5-2.8,2.1-2.8,2.1s0.7-0.1,1.2-0.1c0.8,0,1.3-0.2,1.3-0.2
				s-2.6,2-4.5,4.2s-2.4,3.2-2.4,3.2s0.8-0.4,1.7-0.6c0.9-0.2,1.2,0,1.2,0s-0.7,1.3-2,2.8c-1.2,1.4-2.1,3-2.6,4.2
				c-0.6,1.2-0.7,1.9-0.7,1.9s0.8,0,1.4-0.6c0.7-0.4,1.2-0.4,1.2-0.4S3,60,2.2,63.8c-0.3,1.5-0.7,2.6-1,3.5c0,0,0.9-0.2,1.5-0.7
				c0.7-0.6,0.8-0.6,0.8-0.6S1.6,72.3,2,75.7c0,0.2,2.6,1.9,5.1,1.5c0,0-0.1,0.4-1.3,0.7s-1.9,0.9-1.9,0.9c1.4,0,3.9,0.9,6.3,1.1
				c2.4,0.1,4.6-0.1,4.6-0.1s-0.2,0.3-1,0.7c-1.1,0.4-2.2,0.6-2.2,0.6s0.3,0.3,1.1,0.4c0.9,0.2,3,0.1,5.2-0.3s3.6-0.4,5.8-0.6
				c2.2-0.1,2.8,1.5,3.9,2.9c0.3,0.4,0.9,0.8,1.4,1c-0.2-1.1-0.3-2.1-0.4-3.2C27.7,80.2,27.4,78.9,26.2,78.7z"/>
			<path class="st3" d="M100.4,74.5c-0.3-0.6-0.6-1.2-0.9-1.9c0,0.2,0.1,0.3,0.1,0.6C99.9,73.6,100.2,74.1,100.4,74.5z"/>
			<path class="st3" d="M85.7,55c0,0.1,0,0.1-0.1,0.2c-0.2,0.6,0,1.2,0.4,1.1c0.2-0.1,0.4-0.2,0.7-0.3C86.3,55.6,86,55.3,85.7,55z"
				/>
			<path class="st3" d="M90.6,73.6c-1.5-3.9-1.8-8.7-0.8-13.9c-0.2-0.3-0.6-0.7-0.8-1C88.1,64.4,88.7,69.6,90.6,73.6z"/>
			<path class="st3" d="M81.1,51c-0.2-0.2-0.7-0.2-1.2-0.2c0.6,0.3,1.2,0.7,1.8,1C81.5,51.6,81.4,51.3,81.1,51z"/>
		</g>
		<g>
			<path class="st3" d="M58.7,77.4c-0.3,0-0.8,0.1-1.1,0.2c-1.2,0.4-2.2,1.7-2.2,3.1c0,1.8,1.4,3.2,3.2,3.2c0.8,0,1.4-0.2,1.9-0.7
				c0.8-0.6,1.3-1.5,1.3-2.5C62,78.9,60.5,77.4,58.7,77.4z"/>
			<path class="st3" d="M77.7,87.5l-0.6-0.6l-0.2-0.8l-0.3-0.3l0.1-0.1l-0.1-0.1l-0.1-0.2v-0.2l-2.5-2.4l-0.6-0.6l-3.1-3l-1.7-1.4
				l-1.3-1.2L65.6,75l-0.4-0.4L64.6,74l-0.7-0.6l-0.3-0.3v-9h-10l-0.1,0.3v0.1v0.1l0.2,0.1v0.1l0.1,0.3l0.1,0.2h-0.1l0.1,0.2
				l-0.1,0.1l-0.1,0.3v0.2h-0.1v0.1l0.1,0.3L53.1,68L53,68.3v0.2l0.1,0.1v0.1V69v0.1l0.4,0.4l0.2,0.1l0.1,0.2L54,70l0.2,0.3l0.1,0.1
				l0.2,0.2v0.2l0.1,0.1v0.4l-0.1,0.2l-0.1,0.2v0.2l0.1,0.2l0.1,0.3l0.1,0.3l-0.1,0.3v0.1l0.1,0.1l0.2,0.2l0.2,0.2V74h0.1l0.1,0.2
				l0.2,0.3l0.1,0.1l0.3,0.2l0.1,0.3h0.1l0.1,0.1v0.1c0.1,0,0.2-0.1,0.3-0.1c0.6-0.2,1.2-0.3,1.9-0.3c3.1,0,5.6,2.5,5.6,5.6
				c0,1.9-0.9,3.4-2.2,4.5v0.2v0.1v0.1l0.1,0.2v0.1v0.2L62,86.5v0.1l0.3,0.1l0.1,0.2h1.2l0.1,0.1l0.6,0.1l0.2-0.1l0.3,0.1l0.2,0.2
				l0.2,0.1l0.2,0.4l0.1,0.1l0.4,0.1l0,0h0.2l0.1,0.1l0.6-0.1l0.2,0.1l0.2,0.4v0.1l-0.1,0.1l0.3,0.1l0.1-0.1h0.1h0.2l0.3,0.3
				l0.1,0.1h0.1l0.3,0.3l0.2,0.1l0.3,0.3L70,91l0.1,0.3L70,91.5l0.1,0.2L70,91.9V92l0,0l0.1-0.1l0,0l0.2,0.1v0.1L70.1,92l0,0v0.1
				l0.1,0.1v0.2l2.4-0.2l3.3-0.3h0.3l0.1-0.1l0.1-0.2l0.1-0.1v-0.3L76.4,91h-0.3L76,90.9v-0.1v-0.4l-0.1-0.1v-0.1V90l0.1-0.1
				l0.2-0.2v-0.1h0.1l0.1-0.2v-0.2l0.1-0.1l-0.1-0.6l0.2-0.2v-0.1l0.1-0.2l0.6-0.4l0.1-0.1L77.7,87.5z"/>
		</g>
	</g>
</g>
</svg>
